%TF.GenerationSoftware,KiCad,Pcbnew,(5.1.9)-1*%
%TF.CreationDate,2021-04-29T09:51:16-05:00*%
%TF.ProjectId,controller_bldc,636f6e74-726f-46c6-9c65-725f626c6463,rev?*%
%TF.SameCoordinates,Original*%
%TF.FileFunction,Paste,Top*%
%TF.FilePolarity,Positive*%
%FSLAX46Y46*%
G04 Gerber Fmt 4.6, Leading zero omitted, Abs format (unit mm)*
G04 Created by KiCad (PCBNEW (5.1.9)-1) date 2021-04-29 09:51:16*
%MOMM*%
%LPD*%
G01*
G04 APERTURE LIST*
G04 APERTURE END LIST*
%TO.C,U4*%
G36*
G01*
X84999500Y-13404200D02*
X85299500Y-13404200D01*
G75*
G02*
X85449500Y-13554200I0J-150000D01*
G01*
X85449500Y-15004200D01*
G75*
G02*
X85299500Y-15154200I-150000J0D01*
G01*
X84999500Y-15154200D01*
G75*
G02*
X84849500Y-15004200I0J150000D01*
G01*
X84849500Y-13554200D01*
G75*
G02*
X84999500Y-13404200I150000J0D01*
G01*
G37*
G36*
G01*
X83729500Y-13404200D02*
X84029500Y-13404200D01*
G75*
G02*
X84179500Y-13554200I0J-150000D01*
G01*
X84179500Y-15004200D01*
G75*
G02*
X84029500Y-15154200I-150000J0D01*
G01*
X83729500Y-15154200D01*
G75*
G02*
X83579500Y-15004200I0J150000D01*
G01*
X83579500Y-13554200D01*
G75*
G02*
X83729500Y-13404200I150000J0D01*
G01*
G37*
G36*
G01*
X82459500Y-13404200D02*
X82759500Y-13404200D01*
G75*
G02*
X82909500Y-13554200I0J-150000D01*
G01*
X82909500Y-15004200D01*
G75*
G02*
X82759500Y-15154200I-150000J0D01*
G01*
X82459500Y-15154200D01*
G75*
G02*
X82309500Y-15004200I0J150000D01*
G01*
X82309500Y-13554200D01*
G75*
G02*
X82459500Y-13404200I150000J0D01*
G01*
G37*
G36*
G01*
X81189500Y-13404200D02*
X81489500Y-13404200D01*
G75*
G02*
X81639500Y-13554200I0J-150000D01*
G01*
X81639500Y-15004200D01*
G75*
G02*
X81489500Y-15154200I-150000J0D01*
G01*
X81189500Y-15154200D01*
G75*
G02*
X81039500Y-15004200I0J150000D01*
G01*
X81039500Y-13554200D01*
G75*
G02*
X81189500Y-13404200I150000J0D01*
G01*
G37*
G36*
G01*
X81189500Y-8254200D02*
X81489500Y-8254200D01*
G75*
G02*
X81639500Y-8404200I0J-150000D01*
G01*
X81639500Y-9854200D01*
G75*
G02*
X81489500Y-10004200I-150000J0D01*
G01*
X81189500Y-10004200D01*
G75*
G02*
X81039500Y-9854200I0J150000D01*
G01*
X81039500Y-8404200D01*
G75*
G02*
X81189500Y-8254200I150000J0D01*
G01*
G37*
G36*
G01*
X82459500Y-8254200D02*
X82759500Y-8254200D01*
G75*
G02*
X82909500Y-8404200I0J-150000D01*
G01*
X82909500Y-9854200D01*
G75*
G02*
X82759500Y-10004200I-150000J0D01*
G01*
X82459500Y-10004200D01*
G75*
G02*
X82309500Y-9854200I0J150000D01*
G01*
X82309500Y-8404200D01*
G75*
G02*
X82459500Y-8254200I150000J0D01*
G01*
G37*
G36*
G01*
X83729500Y-8254200D02*
X84029500Y-8254200D01*
G75*
G02*
X84179500Y-8404200I0J-150000D01*
G01*
X84179500Y-9854200D01*
G75*
G02*
X84029500Y-10004200I-150000J0D01*
G01*
X83729500Y-10004200D01*
G75*
G02*
X83579500Y-9854200I0J150000D01*
G01*
X83579500Y-8404200D01*
G75*
G02*
X83729500Y-8254200I150000J0D01*
G01*
G37*
G36*
G01*
X84999500Y-8254200D02*
X85299500Y-8254200D01*
G75*
G02*
X85449500Y-8404200I0J-150000D01*
G01*
X85449500Y-9854200D01*
G75*
G02*
X85299500Y-10004200I-150000J0D01*
G01*
X84999500Y-10004200D01*
G75*
G02*
X84849500Y-9854200I0J150000D01*
G01*
X84849500Y-8404200D01*
G75*
G02*
X84999500Y-8254200I150000J0D01*
G01*
G37*
%TD*%
%TO.C,U8*%
G36*
G01*
X47876500Y-8508200D02*
X48176500Y-8508200D01*
G75*
G02*
X48326500Y-8658200I0J-150000D01*
G01*
X48326500Y-10108200D01*
G75*
G02*
X48176500Y-10258200I-150000J0D01*
G01*
X47876500Y-10258200D01*
G75*
G02*
X47726500Y-10108200I0J150000D01*
G01*
X47726500Y-8658200D01*
G75*
G02*
X47876500Y-8508200I150000J0D01*
G01*
G37*
G36*
G01*
X46606500Y-8508200D02*
X46906500Y-8508200D01*
G75*
G02*
X47056500Y-8658200I0J-150000D01*
G01*
X47056500Y-10108200D01*
G75*
G02*
X46906500Y-10258200I-150000J0D01*
G01*
X46606500Y-10258200D01*
G75*
G02*
X46456500Y-10108200I0J150000D01*
G01*
X46456500Y-8658200D01*
G75*
G02*
X46606500Y-8508200I150000J0D01*
G01*
G37*
G36*
G01*
X45336500Y-8508200D02*
X45636500Y-8508200D01*
G75*
G02*
X45786500Y-8658200I0J-150000D01*
G01*
X45786500Y-10108200D01*
G75*
G02*
X45636500Y-10258200I-150000J0D01*
G01*
X45336500Y-10258200D01*
G75*
G02*
X45186500Y-10108200I0J150000D01*
G01*
X45186500Y-8658200D01*
G75*
G02*
X45336500Y-8508200I150000J0D01*
G01*
G37*
G36*
G01*
X44066500Y-8508200D02*
X44366500Y-8508200D01*
G75*
G02*
X44516500Y-8658200I0J-150000D01*
G01*
X44516500Y-10108200D01*
G75*
G02*
X44366500Y-10258200I-150000J0D01*
G01*
X44066500Y-10258200D01*
G75*
G02*
X43916500Y-10108200I0J150000D01*
G01*
X43916500Y-8658200D01*
G75*
G02*
X44066500Y-8508200I150000J0D01*
G01*
G37*
G36*
G01*
X44066500Y-13658200D02*
X44366500Y-13658200D01*
G75*
G02*
X44516500Y-13808200I0J-150000D01*
G01*
X44516500Y-15258200D01*
G75*
G02*
X44366500Y-15408200I-150000J0D01*
G01*
X44066500Y-15408200D01*
G75*
G02*
X43916500Y-15258200I0J150000D01*
G01*
X43916500Y-13808200D01*
G75*
G02*
X44066500Y-13658200I150000J0D01*
G01*
G37*
G36*
G01*
X45336500Y-13658200D02*
X45636500Y-13658200D01*
G75*
G02*
X45786500Y-13808200I0J-150000D01*
G01*
X45786500Y-15258200D01*
G75*
G02*
X45636500Y-15408200I-150000J0D01*
G01*
X45336500Y-15408200D01*
G75*
G02*
X45186500Y-15258200I0J150000D01*
G01*
X45186500Y-13808200D01*
G75*
G02*
X45336500Y-13658200I150000J0D01*
G01*
G37*
G36*
G01*
X46606500Y-13658200D02*
X46906500Y-13658200D01*
G75*
G02*
X47056500Y-13808200I0J-150000D01*
G01*
X47056500Y-15258200D01*
G75*
G02*
X46906500Y-15408200I-150000J0D01*
G01*
X46606500Y-15408200D01*
G75*
G02*
X46456500Y-15258200I0J150000D01*
G01*
X46456500Y-13808200D01*
G75*
G02*
X46606500Y-13658200I150000J0D01*
G01*
G37*
G36*
G01*
X47876500Y-13658200D02*
X48176500Y-13658200D01*
G75*
G02*
X48326500Y-13808200I0J-150000D01*
G01*
X48326500Y-15258200D01*
G75*
G02*
X48176500Y-15408200I-150000J0D01*
G01*
X47876500Y-15408200D01*
G75*
G02*
X47726500Y-15258200I0J150000D01*
G01*
X47726500Y-13808200D01*
G75*
G02*
X47876500Y-13658200I150000J0D01*
G01*
G37*
%TD*%
%TO.C,U9*%
G36*
G01*
X66164500Y-8508200D02*
X66464500Y-8508200D01*
G75*
G02*
X66614500Y-8658200I0J-150000D01*
G01*
X66614500Y-10108200D01*
G75*
G02*
X66464500Y-10258200I-150000J0D01*
G01*
X66164500Y-10258200D01*
G75*
G02*
X66014500Y-10108200I0J150000D01*
G01*
X66014500Y-8658200D01*
G75*
G02*
X66164500Y-8508200I150000J0D01*
G01*
G37*
G36*
G01*
X64894500Y-8508200D02*
X65194500Y-8508200D01*
G75*
G02*
X65344500Y-8658200I0J-150000D01*
G01*
X65344500Y-10108200D01*
G75*
G02*
X65194500Y-10258200I-150000J0D01*
G01*
X64894500Y-10258200D01*
G75*
G02*
X64744500Y-10108200I0J150000D01*
G01*
X64744500Y-8658200D01*
G75*
G02*
X64894500Y-8508200I150000J0D01*
G01*
G37*
G36*
G01*
X63624500Y-8508200D02*
X63924500Y-8508200D01*
G75*
G02*
X64074500Y-8658200I0J-150000D01*
G01*
X64074500Y-10108200D01*
G75*
G02*
X63924500Y-10258200I-150000J0D01*
G01*
X63624500Y-10258200D01*
G75*
G02*
X63474500Y-10108200I0J150000D01*
G01*
X63474500Y-8658200D01*
G75*
G02*
X63624500Y-8508200I150000J0D01*
G01*
G37*
G36*
G01*
X62354500Y-8508200D02*
X62654500Y-8508200D01*
G75*
G02*
X62804500Y-8658200I0J-150000D01*
G01*
X62804500Y-10108200D01*
G75*
G02*
X62654500Y-10258200I-150000J0D01*
G01*
X62354500Y-10258200D01*
G75*
G02*
X62204500Y-10108200I0J150000D01*
G01*
X62204500Y-8658200D01*
G75*
G02*
X62354500Y-8508200I150000J0D01*
G01*
G37*
G36*
G01*
X62354500Y-13658200D02*
X62654500Y-13658200D01*
G75*
G02*
X62804500Y-13808200I0J-150000D01*
G01*
X62804500Y-15258200D01*
G75*
G02*
X62654500Y-15408200I-150000J0D01*
G01*
X62354500Y-15408200D01*
G75*
G02*
X62204500Y-15258200I0J150000D01*
G01*
X62204500Y-13808200D01*
G75*
G02*
X62354500Y-13658200I150000J0D01*
G01*
G37*
G36*
G01*
X63624500Y-13658200D02*
X63924500Y-13658200D01*
G75*
G02*
X64074500Y-13808200I0J-150000D01*
G01*
X64074500Y-15258200D01*
G75*
G02*
X63924500Y-15408200I-150000J0D01*
G01*
X63624500Y-15408200D01*
G75*
G02*
X63474500Y-15258200I0J150000D01*
G01*
X63474500Y-13808200D01*
G75*
G02*
X63624500Y-13658200I150000J0D01*
G01*
G37*
G36*
G01*
X64894500Y-13658200D02*
X65194500Y-13658200D01*
G75*
G02*
X65344500Y-13808200I0J-150000D01*
G01*
X65344500Y-15258200D01*
G75*
G02*
X65194500Y-15408200I-150000J0D01*
G01*
X64894500Y-15408200D01*
G75*
G02*
X64744500Y-15258200I0J150000D01*
G01*
X64744500Y-13808200D01*
G75*
G02*
X64894500Y-13658200I150000J0D01*
G01*
G37*
G36*
G01*
X66164500Y-13658200D02*
X66464500Y-13658200D01*
G75*
G02*
X66614500Y-13808200I0J-150000D01*
G01*
X66614500Y-15258200D01*
G75*
G02*
X66464500Y-15408200I-150000J0D01*
G01*
X66164500Y-15408200D01*
G75*
G02*
X66014500Y-15258200I0J150000D01*
G01*
X66014500Y-13808200D01*
G75*
G02*
X66164500Y-13658200I150000J0D01*
G01*
G37*
%TD*%
%TO.C,C10*%
G36*
G01*
X43011700Y-78250400D02*
X45011700Y-78250400D01*
G75*
G02*
X45261700Y-78500400I0J-250000D01*
G01*
X45261700Y-82400400D01*
G75*
G02*
X45011700Y-82650400I-250000J0D01*
G01*
X43011700Y-82650400D01*
G75*
G02*
X42761700Y-82400400I0J250000D01*
G01*
X42761700Y-78500400D01*
G75*
G02*
X43011700Y-78250400I250000J0D01*
G01*
G37*
G36*
G01*
X43011700Y-86650400D02*
X45011700Y-86650400D01*
G75*
G02*
X45261700Y-86900400I0J-250000D01*
G01*
X45261700Y-90800400D01*
G75*
G02*
X45011700Y-91050400I-250000J0D01*
G01*
X43011700Y-91050400D01*
G75*
G02*
X42761700Y-90800400I0J250000D01*
G01*
X42761700Y-86900400D01*
G75*
G02*
X43011700Y-86650400I250000J0D01*
G01*
G37*
%TD*%
%TO.C,C11*%
G36*
G01*
X57001700Y-86650400D02*
X59001700Y-86650400D01*
G75*
G02*
X59251700Y-86900400I0J-250000D01*
G01*
X59251700Y-90800400D01*
G75*
G02*
X59001700Y-91050400I-250000J0D01*
G01*
X57001700Y-91050400D01*
G75*
G02*
X56751700Y-90800400I0J250000D01*
G01*
X56751700Y-86900400D01*
G75*
G02*
X57001700Y-86650400I250000J0D01*
G01*
G37*
G36*
G01*
X57001700Y-78250400D02*
X59001700Y-78250400D01*
G75*
G02*
X59251700Y-78500400I0J-250000D01*
G01*
X59251700Y-82400400D01*
G75*
G02*
X59001700Y-82650400I-250000J0D01*
G01*
X57001700Y-82650400D01*
G75*
G02*
X56751700Y-82400400I0J250000D01*
G01*
X56751700Y-78500400D01*
G75*
G02*
X57001700Y-78250400I250000J0D01*
G01*
G37*
%TD*%
%TO.C,C12*%
G36*
G01*
X70991700Y-78250400D02*
X72991700Y-78250400D01*
G75*
G02*
X73241700Y-78500400I0J-250000D01*
G01*
X73241700Y-82400400D01*
G75*
G02*
X72991700Y-82650400I-250000J0D01*
G01*
X70991700Y-82650400D01*
G75*
G02*
X70741700Y-82400400I0J250000D01*
G01*
X70741700Y-78500400D01*
G75*
G02*
X70991700Y-78250400I250000J0D01*
G01*
G37*
G36*
G01*
X70991700Y-86650400D02*
X72991700Y-86650400D01*
G75*
G02*
X73241700Y-86900400I0J-250000D01*
G01*
X73241700Y-90800400D01*
G75*
G02*
X72991700Y-91050400I-250000J0D01*
G01*
X70991700Y-91050400D01*
G75*
G02*
X70741700Y-90800400I0J250000D01*
G01*
X70741700Y-86900400D01*
G75*
G02*
X70991700Y-86650400I250000J0D01*
G01*
G37*
%TD*%
M02*
