%TF.GenerationSoftware,KiCad,Pcbnew,(5.1.9)-1*%
%TF.CreationDate,2021-04-29T09:51:16-05:00*%
%TF.ProjectId,controller_bldc,636f6e74-726f-46c6-9c65-725f626c6463,rev?*%
%TF.SameCoordinates,Original*%
%TF.FileFunction,Legend,Bot*%
%TF.FilePolarity,Positive*%
%FSLAX46Y46*%
G04 Gerber Fmt 4.6, Leading zero omitted, Abs format (unit mm)*
G04 Created by KiCad (PCBNEW (5.1.9)-1) date 2021-04-29 09:51:16*
%MOMM*%
%LPD*%
G01*
G04 APERTURE LIST*
%ADD10C,2.000000*%
G04 APERTURE END LIST*
D10*
X206897238Y-115680619D02*
X205468666Y-116156809D01*
X203087714Y-116156809D01*
X202135333Y-115680619D01*
X201659142Y-115204428D01*
X201182952Y-114252047D01*
X201182952Y-113299666D01*
X201659142Y-112347285D01*
X202135333Y-111871095D01*
X203087714Y-111394904D01*
X204992476Y-110918714D01*
X205944857Y-110442523D01*
X206421047Y-109966333D01*
X206897238Y-109013952D01*
X206897238Y-108061571D01*
X206421047Y-107109190D01*
X205944857Y-106633000D01*
X204992476Y-106156809D01*
X202611523Y-106156809D01*
X201182952Y-106633000D01*
X196897238Y-110918714D02*
X193563904Y-110918714D01*
X192135333Y-116156809D02*
X196897238Y-116156809D01*
X196897238Y-106156809D01*
X192135333Y-106156809D01*
X187849619Y-116156809D02*
X187849619Y-106156809D01*
X184516285Y-113299666D01*
X181182952Y-106156809D01*
X181182952Y-116156809D01*
X200895476Y-16874619D02*
X199466904Y-17350809D01*
X197085952Y-17350809D01*
X196133571Y-16874619D01*
X195657380Y-16398428D01*
X195181190Y-15446047D01*
X195181190Y-14493666D01*
X195657380Y-13541285D01*
X196133571Y-13065095D01*
X197085952Y-12588904D01*
X198990714Y-12112714D01*
X199943095Y-11636523D01*
X200419285Y-11160333D01*
X200895476Y-10207952D01*
X200895476Y-9255571D01*
X200419285Y-8303190D01*
X199943095Y-7827000D01*
X198990714Y-7350809D01*
X196609761Y-7350809D01*
X195181190Y-7827000D01*
X192324047Y-7350809D02*
X186609761Y-7350809D01*
X189466904Y-17350809D02*
X189466904Y-7350809D01*
X183276428Y-12112714D02*
X179943095Y-12112714D01*
X178514523Y-17350809D02*
X183276428Y-17350809D01*
X183276428Y-7350809D01*
X178514523Y-7350809D01*
X172324047Y-7350809D02*
X170419285Y-7350809D01*
X169466904Y-7827000D01*
X168514523Y-8779380D01*
X168038333Y-10684142D01*
X168038333Y-14017476D01*
X168514523Y-15922238D01*
X169466904Y-16874619D01*
X170419285Y-17350809D01*
X172324047Y-17350809D01*
X173276428Y-16874619D01*
X174228809Y-15922238D01*
X174705000Y-14017476D01*
X174705000Y-10684142D01*
X174228809Y-8779380D01*
X173276428Y-7827000D01*
X172324047Y-7350809D01*
X164228809Y-16874619D02*
X162800238Y-17350809D01*
X160419285Y-17350809D01*
X159466904Y-16874619D01*
X158990714Y-16398428D01*
X158514523Y-15446047D01*
X158514523Y-14493666D01*
X158990714Y-13541285D01*
X159466904Y-13065095D01*
X160419285Y-12588904D01*
X162324047Y-12112714D01*
X163276428Y-11636523D01*
X163752619Y-11160333D01*
X164228809Y-10207952D01*
X164228809Y-9255571D01*
X163752619Y-8303190D01*
X163276428Y-7827000D01*
X162324047Y-7350809D01*
X159943095Y-7350809D01*
X158514523Y-7827000D01*
M02*
