%TF.GenerationSoftware,KiCad,Pcbnew,(5.1.9)-1*%
%TF.CreationDate,2021-04-29T11:39:32-05:00*%
%TF.ProjectId,controller_bldc,636f6e74-726f-46c6-9c65-725f626c6463,rev?*%
%TF.SameCoordinates,Original*%
%TF.FileFunction,Legend,Top*%
%TF.FilePolarity,Positive*%
%FSLAX46Y46*%
G04 Gerber Fmt 4.6, Leading zero omitted, Abs format (unit mm)*
G04 Created by KiCad (PCBNEW (5.1.9)-1) date 2021-04-29 11:39:32*
%MOMM*%
%LPD*%
G01*
G04 APERTURE LIST*
%ADD10C,2.000000*%
%ADD11C,0.120000*%
%ADD12C,0.127000*%
%ADD13C,0.150000*%
%ADD14C,0.015000*%
G04 APERTURE END LIST*
D10*
X180325761Y-109330619D02*
X181754333Y-109806809D01*
X184135285Y-109806809D01*
X185087666Y-109330619D01*
X185563857Y-108854428D01*
X186040047Y-107902047D01*
X186040047Y-106949666D01*
X185563857Y-105997285D01*
X185087666Y-105521095D01*
X184135285Y-105044904D01*
X182230523Y-104568714D01*
X181278142Y-104092523D01*
X180801952Y-103616333D01*
X180325761Y-102663952D01*
X180325761Y-101711571D01*
X180801952Y-100759190D01*
X181278142Y-100283000D01*
X182230523Y-99806809D01*
X184611476Y-99806809D01*
X186040047Y-100283000D01*
X190325761Y-104568714D02*
X193659095Y-104568714D01*
X195087666Y-109806809D02*
X190325761Y-109806809D01*
X190325761Y-99806809D01*
X195087666Y-99806809D01*
X199373380Y-109806809D02*
X199373380Y-99806809D01*
X202706714Y-106949666D01*
X206040047Y-99806809D01*
X206040047Y-109806809D01*
X157498523Y-14715619D02*
X158927095Y-15191809D01*
X161308047Y-15191809D01*
X162260428Y-14715619D01*
X162736619Y-14239428D01*
X163212809Y-13287047D01*
X163212809Y-12334666D01*
X162736619Y-11382285D01*
X162260428Y-10906095D01*
X161308047Y-10429904D01*
X159403285Y-9953714D01*
X158450904Y-9477523D01*
X157974714Y-9001333D01*
X157498523Y-8048952D01*
X157498523Y-7096571D01*
X157974714Y-6144190D01*
X158450904Y-5668000D01*
X159403285Y-5191809D01*
X161784238Y-5191809D01*
X163212809Y-5668000D01*
X166069952Y-5191809D02*
X171784238Y-5191809D01*
X168927095Y-15191809D02*
X168927095Y-5191809D01*
X175117571Y-9953714D02*
X178450904Y-9953714D01*
X179879476Y-15191809D02*
X175117571Y-15191809D01*
X175117571Y-5191809D01*
X179879476Y-5191809D01*
X186069952Y-5191809D02*
X187974714Y-5191809D01*
X188927095Y-5668000D01*
X189879476Y-6620380D01*
X190355666Y-8525142D01*
X190355666Y-11858476D01*
X189879476Y-13763238D01*
X188927095Y-14715619D01*
X187974714Y-15191809D01*
X186069952Y-15191809D01*
X185117571Y-14715619D01*
X184165190Y-13763238D01*
X183689000Y-11858476D01*
X183689000Y-8525142D01*
X184165190Y-6620380D01*
X185117571Y-5668000D01*
X186069952Y-5191809D01*
X194165190Y-14715619D02*
X195593761Y-15191809D01*
X197974714Y-15191809D01*
X198927095Y-14715619D01*
X199403285Y-14239428D01*
X199879476Y-13287047D01*
X199879476Y-12334666D01*
X199403285Y-11382285D01*
X198927095Y-10906095D01*
X197974714Y-10429904D01*
X196069952Y-9953714D01*
X195117571Y-9477523D01*
X194641380Y-9001333D01*
X194165190Y-8048952D01*
X194165190Y-7096571D01*
X194641380Y-6144190D01*
X195117571Y-5668000D01*
X196069952Y-5191809D01*
X198450904Y-5191809D01*
X199879476Y-5668000D01*
D11*
%TO.C,R11*%
X77212000Y-75612000D02*
X77212000Y-74842000D01*
X77212000Y-67532000D02*
X77212000Y-68302000D01*
X78582000Y-74842000D02*
X78582000Y-68302000D01*
X75842000Y-74842000D02*
X78582000Y-74842000D01*
X75842000Y-68302000D02*
X75842000Y-74842000D01*
X78582000Y-68302000D02*
X75842000Y-68302000D01*
%TO.C,J9*%
X32960800Y-95070400D02*
X32960800Y-107290400D01*
X32960800Y-107290400D02*
X56040800Y-107290400D01*
X56040800Y-107290400D02*
X56040800Y-95070400D01*
X56040800Y-95070400D02*
X32960800Y-95070400D01*
X32960800Y-105790400D02*
X32960800Y-103990400D01*
X32960800Y-103990400D02*
X56040800Y-103990400D01*
X56040800Y-103990400D02*
X56040800Y-105790400D01*
X56040800Y-105790400D02*
X32960800Y-105790400D01*
X35880800Y-107290400D02*
X37880800Y-107290400D01*
X37880800Y-107290400D02*
X37630800Y-105790400D01*
X37630800Y-105790400D02*
X36130800Y-105790400D01*
X36130800Y-105790400D02*
X35880800Y-107290400D01*
X43500800Y-107290400D02*
X45500800Y-107290400D01*
X45500800Y-107290400D02*
X45250800Y-105790400D01*
X45250800Y-105790400D02*
X43750800Y-105790400D01*
X43750800Y-105790400D02*
X43500800Y-107290400D01*
X51120800Y-107290400D02*
X53120800Y-107290400D01*
X53120800Y-107290400D02*
X52870800Y-105790400D01*
X52870800Y-105790400D02*
X51370800Y-105790400D01*
X51370800Y-105790400D02*
X51120800Y-107290400D01*
X37180800Y-94270400D02*
X36880800Y-94870400D01*
X36880800Y-94870400D02*
X36580800Y-94270400D01*
X36580800Y-94270400D02*
X37180800Y-94270400D01*
%TO.C,SW1*%
X10905400Y-115455000D02*
X10905400Y-116055000D01*
X12505400Y-115455000D02*
X10905400Y-115455000D01*
X12505400Y-116055000D02*
X12505400Y-115455000D01*
X13445400Y-115455000D02*
X13445400Y-116055000D01*
X15045400Y-115455000D02*
X13445400Y-115455000D01*
X15045400Y-116055000D02*
X15045400Y-115455000D01*
X11955400Y-110035000D02*
X11955400Y-111035000D01*
X13995400Y-110035000D02*
X13995400Y-111035000D01*
X11955400Y-111565000D02*
X11705400Y-111035000D01*
X13995400Y-111565000D02*
X11955400Y-111565000D01*
X14245400Y-111035000D02*
X13995400Y-111565000D01*
X11705400Y-111035000D02*
X11705400Y-110035000D01*
X14245400Y-111035000D02*
X11705400Y-111035000D01*
X14245400Y-110035000D02*
X14245400Y-111035000D01*
X15915400Y-115025000D02*
X15915400Y-111025000D01*
X10325400Y-116055000D02*
X15625400Y-116055000D01*
X10325400Y-110035000D02*
X10325400Y-116055000D01*
X15625400Y-110035000D02*
X10325400Y-110035000D01*
X15625400Y-116055000D02*
X15625400Y-110035000D01*
D12*
%TO.C,U1*%
X101590600Y-51424000D02*
X101590600Y-12424000D01*
X101590600Y-12423600D02*
X129490600Y-12423600D01*
X129490600Y-12424000D02*
X129490600Y-51424000D01*
X129490600Y-51424000D02*
X101590600Y-51424000D01*
D11*
%TO.C,J1*%
X71727800Y-116915400D02*
X83947800Y-116915400D01*
X83947800Y-116915400D02*
X83947800Y-101695400D01*
X83947800Y-101695400D02*
X71727800Y-101695400D01*
X71727800Y-101695400D02*
X71727800Y-116915400D01*
X82447800Y-116915400D02*
X80647800Y-116915400D01*
X80647800Y-116915400D02*
X80647800Y-101695400D01*
X80647800Y-101695400D02*
X82447800Y-101695400D01*
X82447800Y-101695400D02*
X82447800Y-116915400D01*
X83947800Y-114055400D02*
X83947800Y-112055400D01*
X83947800Y-112055400D02*
X82447800Y-112305400D01*
X82447800Y-112305400D02*
X82447800Y-113805400D01*
X82447800Y-113805400D02*
X83947800Y-114055400D01*
X83947800Y-106555400D02*
X83947800Y-104555400D01*
X83947800Y-104555400D02*
X82447800Y-104805400D01*
X82447800Y-104805400D02*
X82447800Y-106305400D01*
X82447800Y-106305400D02*
X83947800Y-106555400D01*
X70927800Y-112755400D02*
X71527800Y-113055400D01*
X71527800Y-113055400D02*
X70927800Y-113355400D01*
X70927800Y-113355400D02*
X70927800Y-112755400D01*
%TO.C,F1*%
X32487400Y-110025000D02*
X32487400Y-116025000D01*
X32487400Y-116025000D02*
X58487400Y-116025000D01*
X58487400Y-116025000D02*
X58487400Y-110025000D01*
X58487400Y-110025000D02*
X32487400Y-110025000D01*
X35487400Y-110025000D02*
X35487400Y-116025000D01*
X55487400Y-110025000D02*
X55487400Y-116025000D01*
%TO.C,U3*%
X177762000Y-95149000D02*
X133762000Y-95149000D01*
X177762000Y-117149000D02*
X177762000Y-95149000D01*
X133762000Y-117149000D02*
X177762000Y-117149000D01*
X133762000Y-95149000D02*
X133762000Y-117149000D01*
%TO.C,U5*%
X80434000Y-95213000D02*
X80434000Y-117213000D01*
X124434000Y-95213000D02*
X80434000Y-95213000D01*
X124434000Y-117213000D02*
X124434000Y-95213000D01*
X80434000Y-117213000D02*
X124434000Y-117213000D01*
%TO.C,Q2*%
X38451100Y-58495400D02*
X38451100Y-55955400D01*
X40991100Y-58495400D02*
X40991100Y-55955400D01*
X43531100Y-58495400D02*
X43531100Y-55955400D01*
X35871100Y-41425400D02*
X35871100Y-40225400D01*
X35871100Y-43825400D02*
X35871100Y-42625400D01*
X35871100Y-46225400D02*
X35871100Y-45025400D01*
X46111100Y-41425400D02*
X46111100Y-40225400D01*
X46111100Y-43825400D02*
X46111100Y-42625400D01*
X46111100Y-46225400D02*
X46111100Y-45025400D01*
X36511100Y-40065400D02*
X35871100Y-40065400D01*
X38911100Y-40065400D02*
X37711100Y-40065400D01*
X41311100Y-40065400D02*
X40111100Y-40065400D01*
X43712100Y-40065400D02*
X42511100Y-40065400D01*
X46111100Y-40065400D02*
X44911100Y-40065400D01*
X35871100Y-55955400D02*
X35871100Y-46465400D01*
X46111100Y-55955400D02*
X46111100Y-46465400D01*
X46111100Y-46465400D02*
X35871100Y-46465400D01*
X46111100Y-55955400D02*
X35871100Y-55955400D01*
%TO.C,C4*%
X86361741Y-24073200D02*
X86361741Y-23443200D01*
X86676741Y-23758200D02*
X86046741Y-23758200D01*
X79935500Y-22321200D02*
X79935500Y-21517200D01*
X79975500Y-22552200D02*
X79975500Y-21286200D01*
X80015500Y-22721200D02*
X80015500Y-21117200D01*
X80055500Y-22859200D02*
X80055500Y-20979200D01*
X80095500Y-22978200D02*
X80095500Y-20860200D01*
X80135500Y-23084200D02*
X80135500Y-20754200D01*
X80175500Y-23181200D02*
X80175500Y-20657200D01*
X80215500Y-23269200D02*
X80215500Y-20569200D01*
X80255500Y-23351200D02*
X80255500Y-20487200D01*
X80295500Y-23428200D02*
X80295500Y-20410200D01*
X80335500Y-23500200D02*
X80335500Y-20338200D01*
X80375500Y-23569200D02*
X80375500Y-20269200D01*
X80415500Y-23633200D02*
X80415500Y-20205200D01*
X80455500Y-23695200D02*
X80455500Y-20143200D01*
X80495500Y-23753200D02*
X80495500Y-20085200D01*
X80535500Y-23809200D02*
X80535500Y-20029200D01*
X80575500Y-23863200D02*
X80575500Y-19975200D01*
X80615500Y-23914200D02*
X80615500Y-19924200D01*
X80655500Y-23963200D02*
X80655500Y-19875200D01*
X80695500Y-24011200D02*
X80695500Y-19827200D01*
X80735500Y-24056200D02*
X80735500Y-19782200D01*
X80775500Y-24101200D02*
X80775500Y-19737200D01*
X80815500Y-24143200D02*
X80815500Y-19695200D01*
X80855500Y-24184200D02*
X80855500Y-19654200D01*
X80895500Y-20879200D02*
X80895500Y-19614200D01*
X80895500Y-24224200D02*
X80895500Y-22959200D01*
X80935500Y-20879200D02*
X80935500Y-19576200D01*
X80935500Y-24262200D02*
X80935500Y-22959200D01*
X80975500Y-20879200D02*
X80975500Y-19539200D01*
X80975500Y-24299200D02*
X80975500Y-22959200D01*
X81015500Y-20879200D02*
X81015500Y-19503200D01*
X81015500Y-24335200D02*
X81015500Y-22959200D01*
X81055500Y-20879200D02*
X81055500Y-19469200D01*
X81055500Y-24369200D02*
X81055500Y-22959200D01*
X81095500Y-20879200D02*
X81095500Y-19435200D01*
X81095500Y-24403200D02*
X81095500Y-22959200D01*
X81135500Y-20879200D02*
X81135500Y-19403200D01*
X81135500Y-24435200D02*
X81135500Y-22959200D01*
X81175500Y-20879200D02*
X81175500Y-19371200D01*
X81175500Y-24467200D02*
X81175500Y-22959200D01*
X81215500Y-20879200D02*
X81215500Y-19341200D01*
X81215500Y-24497200D02*
X81215500Y-22959200D01*
X81255500Y-20879200D02*
X81255500Y-19312200D01*
X81255500Y-24526200D02*
X81255500Y-22959200D01*
X81295500Y-20879200D02*
X81295500Y-19283200D01*
X81295500Y-24555200D02*
X81295500Y-22959200D01*
X81335500Y-20879200D02*
X81335500Y-19255200D01*
X81335500Y-24583200D02*
X81335500Y-22959200D01*
X81375500Y-20879200D02*
X81375500Y-19229200D01*
X81375500Y-24609200D02*
X81375500Y-22959200D01*
X81415500Y-20879200D02*
X81415500Y-19203200D01*
X81415500Y-24635200D02*
X81415500Y-22959200D01*
X81455500Y-20879200D02*
X81455500Y-19177200D01*
X81455500Y-24661200D02*
X81455500Y-22959200D01*
X81495500Y-20879200D02*
X81495500Y-19153200D01*
X81495500Y-24685200D02*
X81495500Y-22959200D01*
X81535500Y-20879200D02*
X81535500Y-19129200D01*
X81535500Y-24709200D02*
X81535500Y-22959200D01*
X81575500Y-20879200D02*
X81575500Y-19107200D01*
X81575500Y-24731200D02*
X81575500Y-22959200D01*
X81615500Y-20879200D02*
X81615500Y-19085200D01*
X81615500Y-24753200D02*
X81615500Y-22959200D01*
X81655500Y-20879200D02*
X81655500Y-19063200D01*
X81655500Y-24775200D02*
X81655500Y-22959200D01*
X81695500Y-20879200D02*
X81695500Y-19043200D01*
X81695500Y-24795200D02*
X81695500Y-22959200D01*
X81735500Y-20879200D02*
X81735500Y-19023200D01*
X81735500Y-24815200D02*
X81735500Y-22959200D01*
X81775500Y-20879200D02*
X81775500Y-19003200D01*
X81775500Y-24835200D02*
X81775500Y-22959200D01*
X81815500Y-20879200D02*
X81815500Y-18985200D01*
X81815500Y-24853200D02*
X81815500Y-22959200D01*
X81855500Y-20879200D02*
X81855500Y-18967200D01*
X81855500Y-24871200D02*
X81855500Y-22959200D01*
X81895500Y-20879200D02*
X81895500Y-18949200D01*
X81895500Y-24889200D02*
X81895500Y-22959200D01*
X81935500Y-20879200D02*
X81935500Y-18933200D01*
X81935500Y-24905200D02*
X81935500Y-22959200D01*
X81975500Y-20879200D02*
X81975500Y-18917200D01*
X81975500Y-24921200D02*
X81975500Y-22959200D01*
X82015500Y-20879200D02*
X82015500Y-18901200D01*
X82015500Y-24937200D02*
X82015500Y-22959200D01*
X82055500Y-20879200D02*
X82055500Y-18886200D01*
X82055500Y-24952200D02*
X82055500Y-22959200D01*
X82095500Y-20879200D02*
X82095500Y-18872200D01*
X82095500Y-24966200D02*
X82095500Y-22959200D01*
X82135500Y-20879200D02*
X82135500Y-18858200D01*
X82135500Y-24980200D02*
X82135500Y-22959200D01*
X82175500Y-20879200D02*
X82175500Y-18845200D01*
X82175500Y-24993200D02*
X82175500Y-22959200D01*
X82215500Y-20879200D02*
X82215500Y-18833200D01*
X82215500Y-25005200D02*
X82215500Y-22959200D01*
X82255500Y-20879200D02*
X82255500Y-18821200D01*
X82255500Y-25017200D02*
X82255500Y-22959200D01*
X82295500Y-20879200D02*
X82295500Y-18809200D01*
X82295500Y-25029200D02*
X82295500Y-22959200D01*
X82335500Y-20879200D02*
X82335500Y-18798200D01*
X82335500Y-25040200D02*
X82335500Y-22959200D01*
X82375500Y-20879200D02*
X82375500Y-18788200D01*
X82375500Y-25050200D02*
X82375500Y-22959200D01*
X82415500Y-20879200D02*
X82415500Y-18778200D01*
X82415500Y-25060200D02*
X82415500Y-22959200D01*
X82455500Y-20879200D02*
X82455500Y-18769200D01*
X82455500Y-25069200D02*
X82455500Y-22959200D01*
X82496500Y-20879200D02*
X82496500Y-18760200D01*
X82496500Y-25078200D02*
X82496500Y-22959200D01*
X82536500Y-20879200D02*
X82536500Y-18752200D01*
X82536500Y-25086200D02*
X82536500Y-22959200D01*
X82576500Y-20879200D02*
X82576500Y-18744200D01*
X82576500Y-25094200D02*
X82576500Y-22959200D01*
X82616500Y-20879200D02*
X82616500Y-18737200D01*
X82616500Y-25101200D02*
X82616500Y-22959200D01*
X82656500Y-20879200D02*
X82656500Y-18730200D01*
X82656500Y-25108200D02*
X82656500Y-22959200D01*
X82696500Y-20879200D02*
X82696500Y-18724200D01*
X82696500Y-25114200D02*
X82696500Y-22959200D01*
X82736500Y-20879200D02*
X82736500Y-18718200D01*
X82736500Y-25120200D02*
X82736500Y-22959200D01*
X82776500Y-20879200D02*
X82776500Y-18713200D01*
X82776500Y-25125200D02*
X82776500Y-22959200D01*
X82816500Y-20879200D02*
X82816500Y-18708200D01*
X82816500Y-25130200D02*
X82816500Y-22959200D01*
X82856500Y-20879200D02*
X82856500Y-18704200D01*
X82856500Y-25134200D02*
X82856500Y-22959200D01*
X82896500Y-20879200D02*
X82896500Y-18701200D01*
X82896500Y-25137200D02*
X82896500Y-22959200D01*
X82936500Y-20879200D02*
X82936500Y-18697200D01*
X82936500Y-25141200D02*
X82936500Y-22959200D01*
X82976500Y-25143200D02*
X82976500Y-18695200D01*
X83016500Y-25146200D02*
X83016500Y-18692200D01*
X83056500Y-25147200D02*
X83056500Y-18691200D01*
X83096500Y-25149200D02*
X83096500Y-18689200D01*
X83136500Y-25149200D02*
X83136500Y-18689200D01*
X83176500Y-25149200D02*
X83176500Y-18689200D01*
X86446500Y-21919200D02*
G75*
G03*
X86446500Y-21919200I-3270000J0D01*
G01*
%TO.C,C1*%
X36482100Y-22529600D02*
X34498100Y-22529600D01*
X39738100Y-22529600D02*
X37754100Y-22529600D01*
X36482100Y-14789600D02*
X34498100Y-14789600D01*
X39738100Y-14789600D02*
X37754100Y-14789600D01*
X34498100Y-14789600D02*
X34498100Y-22529600D01*
X39738100Y-14789600D02*
X39738100Y-22529600D01*
%TO.C,C2*%
X49238741Y-24327200D02*
X49238741Y-23697200D01*
X49553741Y-24012200D02*
X48923741Y-24012200D01*
X42812500Y-22575200D02*
X42812500Y-21771200D01*
X42852500Y-22806200D02*
X42852500Y-21540200D01*
X42892500Y-22975200D02*
X42892500Y-21371200D01*
X42932500Y-23113200D02*
X42932500Y-21233200D01*
X42972500Y-23232200D02*
X42972500Y-21114200D01*
X43012500Y-23338200D02*
X43012500Y-21008200D01*
X43052500Y-23435200D02*
X43052500Y-20911200D01*
X43092500Y-23523200D02*
X43092500Y-20823200D01*
X43132500Y-23605200D02*
X43132500Y-20741200D01*
X43172500Y-23682200D02*
X43172500Y-20664200D01*
X43212500Y-23754200D02*
X43212500Y-20592200D01*
X43252500Y-23823200D02*
X43252500Y-20523200D01*
X43292500Y-23887200D02*
X43292500Y-20459200D01*
X43332500Y-23949200D02*
X43332500Y-20397200D01*
X43372500Y-24007200D02*
X43372500Y-20339200D01*
X43412500Y-24063200D02*
X43412500Y-20283200D01*
X43452500Y-24117200D02*
X43452500Y-20229200D01*
X43492500Y-24168200D02*
X43492500Y-20178200D01*
X43532500Y-24217200D02*
X43532500Y-20129200D01*
X43572500Y-24265200D02*
X43572500Y-20081200D01*
X43612500Y-24310200D02*
X43612500Y-20036200D01*
X43652500Y-24355200D02*
X43652500Y-19991200D01*
X43692500Y-24397200D02*
X43692500Y-19949200D01*
X43732500Y-24438200D02*
X43732500Y-19908200D01*
X43772500Y-21133200D02*
X43772500Y-19868200D01*
X43772500Y-24478200D02*
X43772500Y-23213200D01*
X43812500Y-21133200D02*
X43812500Y-19830200D01*
X43812500Y-24516200D02*
X43812500Y-23213200D01*
X43852500Y-21133200D02*
X43852500Y-19793200D01*
X43852500Y-24553200D02*
X43852500Y-23213200D01*
X43892500Y-21133200D02*
X43892500Y-19757200D01*
X43892500Y-24589200D02*
X43892500Y-23213200D01*
X43932500Y-21133200D02*
X43932500Y-19723200D01*
X43932500Y-24623200D02*
X43932500Y-23213200D01*
X43972500Y-21133200D02*
X43972500Y-19689200D01*
X43972500Y-24657200D02*
X43972500Y-23213200D01*
X44012500Y-21133200D02*
X44012500Y-19657200D01*
X44012500Y-24689200D02*
X44012500Y-23213200D01*
X44052500Y-21133200D02*
X44052500Y-19625200D01*
X44052500Y-24721200D02*
X44052500Y-23213200D01*
X44092500Y-21133200D02*
X44092500Y-19595200D01*
X44092500Y-24751200D02*
X44092500Y-23213200D01*
X44132500Y-21133200D02*
X44132500Y-19566200D01*
X44132500Y-24780200D02*
X44132500Y-23213200D01*
X44172500Y-21133200D02*
X44172500Y-19537200D01*
X44172500Y-24809200D02*
X44172500Y-23213200D01*
X44212500Y-21133200D02*
X44212500Y-19509200D01*
X44212500Y-24837200D02*
X44212500Y-23213200D01*
X44252500Y-21133200D02*
X44252500Y-19483200D01*
X44252500Y-24863200D02*
X44252500Y-23213200D01*
X44292500Y-21133200D02*
X44292500Y-19457200D01*
X44292500Y-24889200D02*
X44292500Y-23213200D01*
X44332500Y-21133200D02*
X44332500Y-19431200D01*
X44332500Y-24915200D02*
X44332500Y-23213200D01*
X44372500Y-21133200D02*
X44372500Y-19407200D01*
X44372500Y-24939200D02*
X44372500Y-23213200D01*
X44412500Y-21133200D02*
X44412500Y-19383200D01*
X44412500Y-24963200D02*
X44412500Y-23213200D01*
X44452500Y-21133200D02*
X44452500Y-19361200D01*
X44452500Y-24985200D02*
X44452500Y-23213200D01*
X44492500Y-21133200D02*
X44492500Y-19339200D01*
X44492500Y-25007200D02*
X44492500Y-23213200D01*
X44532500Y-21133200D02*
X44532500Y-19317200D01*
X44532500Y-25029200D02*
X44532500Y-23213200D01*
X44572500Y-21133200D02*
X44572500Y-19297200D01*
X44572500Y-25049200D02*
X44572500Y-23213200D01*
X44612500Y-21133200D02*
X44612500Y-19277200D01*
X44612500Y-25069200D02*
X44612500Y-23213200D01*
X44652500Y-21133200D02*
X44652500Y-19257200D01*
X44652500Y-25089200D02*
X44652500Y-23213200D01*
X44692500Y-21133200D02*
X44692500Y-19239200D01*
X44692500Y-25107200D02*
X44692500Y-23213200D01*
X44732500Y-21133200D02*
X44732500Y-19221200D01*
X44732500Y-25125200D02*
X44732500Y-23213200D01*
X44772500Y-21133200D02*
X44772500Y-19203200D01*
X44772500Y-25143200D02*
X44772500Y-23213200D01*
X44812500Y-21133200D02*
X44812500Y-19187200D01*
X44812500Y-25159200D02*
X44812500Y-23213200D01*
X44852500Y-21133200D02*
X44852500Y-19171200D01*
X44852500Y-25175200D02*
X44852500Y-23213200D01*
X44892500Y-21133200D02*
X44892500Y-19155200D01*
X44892500Y-25191200D02*
X44892500Y-23213200D01*
X44932500Y-21133200D02*
X44932500Y-19140200D01*
X44932500Y-25206200D02*
X44932500Y-23213200D01*
X44972500Y-21133200D02*
X44972500Y-19126200D01*
X44972500Y-25220200D02*
X44972500Y-23213200D01*
X45012500Y-21133200D02*
X45012500Y-19112200D01*
X45012500Y-25234200D02*
X45012500Y-23213200D01*
X45052500Y-21133200D02*
X45052500Y-19099200D01*
X45052500Y-25247200D02*
X45052500Y-23213200D01*
X45092500Y-21133200D02*
X45092500Y-19087200D01*
X45092500Y-25259200D02*
X45092500Y-23213200D01*
X45132500Y-21133200D02*
X45132500Y-19075200D01*
X45132500Y-25271200D02*
X45132500Y-23213200D01*
X45172500Y-21133200D02*
X45172500Y-19063200D01*
X45172500Y-25283200D02*
X45172500Y-23213200D01*
X45212500Y-21133200D02*
X45212500Y-19052200D01*
X45212500Y-25294200D02*
X45212500Y-23213200D01*
X45252500Y-21133200D02*
X45252500Y-19042200D01*
X45252500Y-25304200D02*
X45252500Y-23213200D01*
X45292500Y-21133200D02*
X45292500Y-19032200D01*
X45292500Y-25314200D02*
X45292500Y-23213200D01*
X45332500Y-21133200D02*
X45332500Y-19023200D01*
X45332500Y-25323200D02*
X45332500Y-23213200D01*
X45373500Y-21133200D02*
X45373500Y-19014200D01*
X45373500Y-25332200D02*
X45373500Y-23213200D01*
X45413500Y-21133200D02*
X45413500Y-19006200D01*
X45413500Y-25340200D02*
X45413500Y-23213200D01*
X45453500Y-21133200D02*
X45453500Y-18998200D01*
X45453500Y-25348200D02*
X45453500Y-23213200D01*
X45493500Y-21133200D02*
X45493500Y-18991200D01*
X45493500Y-25355200D02*
X45493500Y-23213200D01*
X45533500Y-21133200D02*
X45533500Y-18984200D01*
X45533500Y-25362200D02*
X45533500Y-23213200D01*
X45573500Y-21133200D02*
X45573500Y-18978200D01*
X45573500Y-25368200D02*
X45573500Y-23213200D01*
X45613500Y-21133200D02*
X45613500Y-18972200D01*
X45613500Y-25374200D02*
X45613500Y-23213200D01*
X45653500Y-21133200D02*
X45653500Y-18967200D01*
X45653500Y-25379200D02*
X45653500Y-23213200D01*
X45693500Y-21133200D02*
X45693500Y-18962200D01*
X45693500Y-25384200D02*
X45693500Y-23213200D01*
X45733500Y-21133200D02*
X45733500Y-18958200D01*
X45733500Y-25388200D02*
X45733500Y-23213200D01*
X45773500Y-21133200D02*
X45773500Y-18955200D01*
X45773500Y-25391200D02*
X45773500Y-23213200D01*
X45813500Y-21133200D02*
X45813500Y-18951200D01*
X45813500Y-25395200D02*
X45813500Y-23213200D01*
X45853500Y-25397200D02*
X45853500Y-18949200D01*
X45893500Y-25400200D02*
X45893500Y-18946200D01*
X45933500Y-25401200D02*
X45933500Y-18945200D01*
X45973500Y-25403200D02*
X45973500Y-18943200D01*
X46013500Y-25403200D02*
X46013500Y-18943200D01*
X46053500Y-25403200D02*
X46053500Y-18943200D01*
X49323500Y-22173200D02*
G75*
G03*
X49323500Y-22173200I-3270000J0D01*
G01*
%TO.C,C3*%
X67611500Y-22173200D02*
G75*
G03*
X67611500Y-22173200I-3270000J0D01*
G01*
X64341500Y-25403200D02*
X64341500Y-18943200D01*
X64301500Y-25403200D02*
X64301500Y-18943200D01*
X64261500Y-25403200D02*
X64261500Y-18943200D01*
X64221500Y-25401200D02*
X64221500Y-18945200D01*
X64181500Y-25400200D02*
X64181500Y-18946200D01*
X64141500Y-25397200D02*
X64141500Y-18949200D01*
X64101500Y-25395200D02*
X64101500Y-23213200D01*
X64101500Y-21133200D02*
X64101500Y-18951200D01*
X64061500Y-25391200D02*
X64061500Y-23213200D01*
X64061500Y-21133200D02*
X64061500Y-18955200D01*
X64021500Y-25388200D02*
X64021500Y-23213200D01*
X64021500Y-21133200D02*
X64021500Y-18958200D01*
X63981500Y-25384200D02*
X63981500Y-23213200D01*
X63981500Y-21133200D02*
X63981500Y-18962200D01*
X63941500Y-25379200D02*
X63941500Y-23213200D01*
X63941500Y-21133200D02*
X63941500Y-18967200D01*
X63901500Y-25374200D02*
X63901500Y-23213200D01*
X63901500Y-21133200D02*
X63901500Y-18972200D01*
X63861500Y-25368200D02*
X63861500Y-23213200D01*
X63861500Y-21133200D02*
X63861500Y-18978200D01*
X63821500Y-25362200D02*
X63821500Y-23213200D01*
X63821500Y-21133200D02*
X63821500Y-18984200D01*
X63781500Y-25355200D02*
X63781500Y-23213200D01*
X63781500Y-21133200D02*
X63781500Y-18991200D01*
X63741500Y-25348200D02*
X63741500Y-23213200D01*
X63741500Y-21133200D02*
X63741500Y-18998200D01*
X63701500Y-25340200D02*
X63701500Y-23213200D01*
X63701500Y-21133200D02*
X63701500Y-19006200D01*
X63661500Y-25332200D02*
X63661500Y-23213200D01*
X63661500Y-21133200D02*
X63661500Y-19014200D01*
X63620500Y-25323200D02*
X63620500Y-23213200D01*
X63620500Y-21133200D02*
X63620500Y-19023200D01*
X63580500Y-25314200D02*
X63580500Y-23213200D01*
X63580500Y-21133200D02*
X63580500Y-19032200D01*
X63540500Y-25304200D02*
X63540500Y-23213200D01*
X63540500Y-21133200D02*
X63540500Y-19042200D01*
X63500500Y-25294200D02*
X63500500Y-23213200D01*
X63500500Y-21133200D02*
X63500500Y-19052200D01*
X63460500Y-25283200D02*
X63460500Y-23213200D01*
X63460500Y-21133200D02*
X63460500Y-19063200D01*
X63420500Y-25271200D02*
X63420500Y-23213200D01*
X63420500Y-21133200D02*
X63420500Y-19075200D01*
X63380500Y-25259200D02*
X63380500Y-23213200D01*
X63380500Y-21133200D02*
X63380500Y-19087200D01*
X63340500Y-25247200D02*
X63340500Y-23213200D01*
X63340500Y-21133200D02*
X63340500Y-19099200D01*
X63300500Y-25234200D02*
X63300500Y-23213200D01*
X63300500Y-21133200D02*
X63300500Y-19112200D01*
X63260500Y-25220200D02*
X63260500Y-23213200D01*
X63260500Y-21133200D02*
X63260500Y-19126200D01*
X63220500Y-25206200D02*
X63220500Y-23213200D01*
X63220500Y-21133200D02*
X63220500Y-19140200D01*
X63180500Y-25191200D02*
X63180500Y-23213200D01*
X63180500Y-21133200D02*
X63180500Y-19155200D01*
X63140500Y-25175200D02*
X63140500Y-23213200D01*
X63140500Y-21133200D02*
X63140500Y-19171200D01*
X63100500Y-25159200D02*
X63100500Y-23213200D01*
X63100500Y-21133200D02*
X63100500Y-19187200D01*
X63060500Y-25143200D02*
X63060500Y-23213200D01*
X63060500Y-21133200D02*
X63060500Y-19203200D01*
X63020500Y-25125200D02*
X63020500Y-23213200D01*
X63020500Y-21133200D02*
X63020500Y-19221200D01*
X62980500Y-25107200D02*
X62980500Y-23213200D01*
X62980500Y-21133200D02*
X62980500Y-19239200D01*
X62940500Y-25089200D02*
X62940500Y-23213200D01*
X62940500Y-21133200D02*
X62940500Y-19257200D01*
X62900500Y-25069200D02*
X62900500Y-23213200D01*
X62900500Y-21133200D02*
X62900500Y-19277200D01*
X62860500Y-25049200D02*
X62860500Y-23213200D01*
X62860500Y-21133200D02*
X62860500Y-19297200D01*
X62820500Y-25029200D02*
X62820500Y-23213200D01*
X62820500Y-21133200D02*
X62820500Y-19317200D01*
X62780500Y-25007200D02*
X62780500Y-23213200D01*
X62780500Y-21133200D02*
X62780500Y-19339200D01*
X62740500Y-24985200D02*
X62740500Y-23213200D01*
X62740500Y-21133200D02*
X62740500Y-19361200D01*
X62700500Y-24963200D02*
X62700500Y-23213200D01*
X62700500Y-21133200D02*
X62700500Y-19383200D01*
X62660500Y-24939200D02*
X62660500Y-23213200D01*
X62660500Y-21133200D02*
X62660500Y-19407200D01*
X62620500Y-24915200D02*
X62620500Y-23213200D01*
X62620500Y-21133200D02*
X62620500Y-19431200D01*
X62580500Y-24889200D02*
X62580500Y-23213200D01*
X62580500Y-21133200D02*
X62580500Y-19457200D01*
X62540500Y-24863200D02*
X62540500Y-23213200D01*
X62540500Y-21133200D02*
X62540500Y-19483200D01*
X62500500Y-24837200D02*
X62500500Y-23213200D01*
X62500500Y-21133200D02*
X62500500Y-19509200D01*
X62460500Y-24809200D02*
X62460500Y-23213200D01*
X62460500Y-21133200D02*
X62460500Y-19537200D01*
X62420500Y-24780200D02*
X62420500Y-23213200D01*
X62420500Y-21133200D02*
X62420500Y-19566200D01*
X62380500Y-24751200D02*
X62380500Y-23213200D01*
X62380500Y-21133200D02*
X62380500Y-19595200D01*
X62340500Y-24721200D02*
X62340500Y-23213200D01*
X62340500Y-21133200D02*
X62340500Y-19625200D01*
X62300500Y-24689200D02*
X62300500Y-23213200D01*
X62300500Y-21133200D02*
X62300500Y-19657200D01*
X62260500Y-24657200D02*
X62260500Y-23213200D01*
X62260500Y-21133200D02*
X62260500Y-19689200D01*
X62220500Y-24623200D02*
X62220500Y-23213200D01*
X62220500Y-21133200D02*
X62220500Y-19723200D01*
X62180500Y-24589200D02*
X62180500Y-23213200D01*
X62180500Y-21133200D02*
X62180500Y-19757200D01*
X62140500Y-24553200D02*
X62140500Y-23213200D01*
X62140500Y-21133200D02*
X62140500Y-19793200D01*
X62100500Y-24516200D02*
X62100500Y-23213200D01*
X62100500Y-21133200D02*
X62100500Y-19830200D01*
X62060500Y-24478200D02*
X62060500Y-23213200D01*
X62060500Y-21133200D02*
X62060500Y-19868200D01*
X62020500Y-24438200D02*
X62020500Y-19908200D01*
X61980500Y-24397200D02*
X61980500Y-19949200D01*
X61940500Y-24355200D02*
X61940500Y-19991200D01*
X61900500Y-24310200D02*
X61900500Y-20036200D01*
X61860500Y-24265200D02*
X61860500Y-20081200D01*
X61820500Y-24217200D02*
X61820500Y-20129200D01*
X61780500Y-24168200D02*
X61780500Y-20178200D01*
X61740500Y-24117200D02*
X61740500Y-20229200D01*
X61700500Y-24063200D02*
X61700500Y-20283200D01*
X61660500Y-24007200D02*
X61660500Y-20339200D01*
X61620500Y-23949200D02*
X61620500Y-20397200D01*
X61580500Y-23887200D02*
X61580500Y-20459200D01*
X61540500Y-23823200D02*
X61540500Y-20523200D01*
X61500500Y-23754200D02*
X61500500Y-20592200D01*
X61460500Y-23682200D02*
X61460500Y-20664200D01*
X61420500Y-23605200D02*
X61420500Y-20741200D01*
X61380500Y-23523200D02*
X61380500Y-20823200D01*
X61340500Y-23435200D02*
X61340500Y-20911200D01*
X61300500Y-23338200D02*
X61300500Y-21008200D01*
X61260500Y-23232200D02*
X61260500Y-21114200D01*
X61220500Y-23113200D02*
X61220500Y-21233200D01*
X61180500Y-22975200D02*
X61180500Y-21371200D01*
X61140500Y-22806200D02*
X61140500Y-21540200D01*
X61100500Y-22575200D02*
X61100500Y-21771200D01*
X67841741Y-24012200D02*
X67211741Y-24012200D01*
X67526741Y-24327200D02*
X67526741Y-23697200D01*
%TO.C,D1*%
X53440000Y-13318000D02*
X51200000Y-13318000D01*
X51200000Y-13318000D02*
X51200000Y-17558000D01*
X51200000Y-17558000D02*
X53440000Y-17558000D01*
X53440000Y-17558000D02*
X53440000Y-13318000D01*
X52320000Y-12668000D02*
X52320000Y-13318000D01*
X52320000Y-18208000D02*
X52320000Y-17558000D01*
X53440000Y-14038000D02*
X51200000Y-14038000D01*
X53440000Y-14158000D02*
X51200000Y-14158000D01*
X53440000Y-13918000D02*
X51200000Y-13918000D01*
%TO.C,D2*%
X71791500Y-14248200D02*
X69551500Y-14248200D01*
X71791500Y-14488200D02*
X69551500Y-14488200D01*
X71791500Y-14368200D02*
X69551500Y-14368200D01*
X70671500Y-18538200D02*
X70671500Y-17888200D01*
X70671500Y-12998200D02*
X70671500Y-13648200D01*
X71791500Y-17888200D02*
X71791500Y-13648200D01*
X69551500Y-17888200D02*
X71791500Y-17888200D01*
X69551500Y-13648200D02*
X69551500Y-17888200D01*
X71791500Y-13648200D02*
X69551500Y-13648200D01*
%TO.C,D3*%
X90079500Y-13394200D02*
X87839500Y-13394200D01*
X87839500Y-13394200D02*
X87839500Y-17634200D01*
X87839500Y-17634200D02*
X90079500Y-17634200D01*
X90079500Y-17634200D02*
X90079500Y-13394200D01*
X88959500Y-12744200D02*
X88959500Y-13394200D01*
X88959500Y-18284200D02*
X88959500Y-17634200D01*
X90079500Y-14114200D02*
X87839500Y-14114200D01*
X90079500Y-14234200D02*
X87839500Y-14234200D01*
X90079500Y-13994200D02*
X87839500Y-13994200D01*
%TO.C,J6*%
X202512000Y-68503600D02*
X203112000Y-68503600D01*
X202512000Y-66903600D02*
X202512000Y-68503600D01*
X203112000Y-66903600D02*
X202512000Y-66903600D01*
X202512000Y-65963600D02*
X203112000Y-65963600D01*
X202512000Y-64363600D02*
X202512000Y-65963600D01*
X203112000Y-64363600D02*
X202512000Y-64363600D01*
X202512000Y-63423600D02*
X203112000Y-63423600D01*
X202512000Y-61823600D02*
X202512000Y-63423600D01*
X203112000Y-61823600D02*
X202512000Y-61823600D01*
X197092000Y-67453600D02*
X198092000Y-67453600D01*
X197092000Y-62873600D02*
X198092000Y-62873600D01*
X198622000Y-67453600D02*
X198092000Y-67703600D01*
X198622000Y-62873600D02*
X198622000Y-67453600D01*
X198092000Y-62623600D02*
X198622000Y-62873600D01*
X198092000Y-67703600D02*
X197092000Y-67703600D01*
X198092000Y-62623600D02*
X198092000Y-67703600D01*
X197092000Y-62623600D02*
X198092000Y-62623600D01*
X202082000Y-60953600D02*
X198082000Y-60953600D01*
X203112000Y-69083600D02*
X203112000Y-61243600D01*
X197092000Y-69083600D02*
X203112000Y-69083600D01*
X197092000Y-61243600D02*
X197092000Y-69083600D01*
X203112000Y-61243600D02*
X197092000Y-61243600D01*
%TO.C,J7*%
X203182000Y-70756000D02*
X197162000Y-70756000D01*
X197162000Y-70756000D02*
X197162000Y-83676000D01*
X197162000Y-83676000D02*
X203182000Y-83676000D01*
X203182000Y-83676000D02*
X203182000Y-70756000D01*
X202152000Y-70466000D02*
X198152000Y-70466000D01*
X197162000Y-72136000D02*
X198162000Y-72136000D01*
X198162000Y-72136000D02*
X198162000Y-82296000D01*
X198162000Y-82296000D02*
X197162000Y-82296000D01*
X198162000Y-72136000D02*
X198692000Y-72386000D01*
X198692000Y-72386000D02*
X198692000Y-82046000D01*
X198692000Y-82046000D02*
X198162000Y-82296000D01*
X197162000Y-72386000D02*
X198162000Y-72386000D01*
X197162000Y-82046000D02*
X198162000Y-82046000D01*
X203182000Y-71336000D02*
X202582000Y-71336000D01*
X202582000Y-71336000D02*
X202582000Y-72936000D01*
X202582000Y-72936000D02*
X203182000Y-72936000D01*
X203182000Y-73876000D02*
X202582000Y-73876000D01*
X202582000Y-73876000D02*
X202582000Y-75476000D01*
X202582000Y-75476000D02*
X203182000Y-75476000D01*
X203182000Y-76416000D02*
X202582000Y-76416000D01*
X202582000Y-76416000D02*
X202582000Y-78016000D01*
X202582000Y-78016000D02*
X203182000Y-78016000D01*
X203182000Y-78956000D02*
X202582000Y-78956000D01*
X202582000Y-78956000D02*
X202582000Y-80556000D01*
X202582000Y-80556000D02*
X203182000Y-80556000D01*
X203182000Y-81496000D02*
X202582000Y-81496000D01*
X202582000Y-81496000D02*
X202582000Y-83096000D01*
X202582000Y-83096000D02*
X203182000Y-83096000D01*
%TO.C,R1*%
X19711200Y-27146000D02*
X19711200Y-27916000D01*
X19711200Y-35226000D02*
X19711200Y-34456000D01*
X18341200Y-27916000D02*
X18341200Y-34456000D01*
X21081200Y-27916000D02*
X18341200Y-27916000D01*
X21081200Y-34456000D02*
X21081200Y-27916000D01*
X18341200Y-34456000D02*
X21081200Y-34456000D01*
%TO.C,R2*%
X25916900Y-34456000D02*
X28656900Y-34456000D01*
X28656900Y-34456000D02*
X28656900Y-27916000D01*
X28656900Y-27916000D02*
X25916900Y-27916000D01*
X25916900Y-27916000D02*
X25916900Y-34456000D01*
X27286900Y-35226000D02*
X27286900Y-34456000D01*
X27286900Y-27146000D02*
X27286900Y-27916000D01*
%TO.C,R3*%
X33492600Y-34456000D02*
X36232600Y-34456000D01*
X36232600Y-34456000D02*
X36232600Y-27916000D01*
X36232600Y-27916000D02*
X33492600Y-27916000D01*
X33492600Y-27916000D02*
X33492600Y-34456000D01*
X34862600Y-35226000D02*
X34862600Y-34456000D01*
X34862600Y-27146000D02*
X34862600Y-27916000D01*
%TO.C,R4*%
X42438300Y-35226000D02*
X42438300Y-34456000D01*
X42438300Y-27146000D02*
X42438300Y-27916000D01*
X43808300Y-34456000D02*
X43808300Y-27916000D01*
X41068300Y-34456000D02*
X43808300Y-34456000D01*
X41068300Y-27916000D02*
X41068300Y-34456000D01*
X43808300Y-27916000D02*
X41068300Y-27916000D01*
%TO.C,R5*%
X71371200Y-34456000D02*
X74111200Y-34456000D01*
X74111200Y-34456000D02*
X74111200Y-27916000D01*
X74111200Y-27916000D02*
X71371200Y-27916000D01*
X71371200Y-27916000D02*
X71371200Y-34456000D01*
X72741200Y-35226000D02*
X72741200Y-34456000D01*
X72741200Y-27146000D02*
X72741200Y-27916000D01*
%TO.C,R6*%
X65165500Y-27146000D02*
X65165500Y-27916000D01*
X65165500Y-35226000D02*
X65165500Y-34456000D01*
X63795500Y-27916000D02*
X63795500Y-34456000D01*
X66535500Y-27916000D02*
X63795500Y-27916000D01*
X66535500Y-34456000D02*
X66535500Y-27916000D01*
X63795500Y-34456000D02*
X66535500Y-34456000D01*
%TO.C,R7*%
X86522700Y-34456000D02*
X89262700Y-34456000D01*
X89262700Y-34456000D02*
X89262700Y-27916000D01*
X89262700Y-27916000D02*
X86522700Y-27916000D01*
X86522700Y-27916000D02*
X86522700Y-34456000D01*
X87892700Y-35226000D02*
X87892700Y-34456000D01*
X87892700Y-27146000D02*
X87892700Y-27916000D01*
%TO.C,R8*%
X80317000Y-27146000D02*
X80317000Y-27916000D01*
X80317000Y-35226000D02*
X80317000Y-34456000D01*
X78947000Y-27916000D02*
X78947000Y-34456000D01*
X81687000Y-27916000D02*
X78947000Y-27916000D01*
X81687000Y-34456000D02*
X81687000Y-27916000D01*
X78947000Y-34456000D02*
X81687000Y-34456000D01*
%TO.C,R9*%
X56219800Y-34456000D02*
X58959800Y-34456000D01*
X58959800Y-34456000D02*
X58959800Y-27916000D01*
X58959800Y-27916000D02*
X56219800Y-27916000D01*
X56219800Y-27916000D02*
X56219800Y-34456000D01*
X57589800Y-35226000D02*
X57589800Y-34456000D01*
X57589800Y-27146000D02*
X57589800Y-27916000D01*
%TO.C,R10*%
X48644100Y-34456000D02*
X51384100Y-34456000D01*
X51384100Y-34456000D02*
X51384100Y-27916000D01*
X51384100Y-27916000D02*
X48644100Y-27916000D01*
X48644100Y-27916000D02*
X48644100Y-34456000D01*
X50014100Y-35226000D02*
X50014100Y-34456000D01*
X50014100Y-27146000D02*
X50014100Y-27916000D01*
%TO.C,R12*%
X159116000Y-49430000D02*
X159116000Y-52170000D01*
X159116000Y-52170000D02*
X165656000Y-52170000D01*
X165656000Y-52170000D02*
X165656000Y-49430000D01*
X165656000Y-49430000D02*
X159116000Y-49430000D01*
X158346000Y-50800000D02*
X159116000Y-50800000D01*
X166426000Y-50800000D02*
X165656000Y-50800000D01*
%TO.C,R13*%
X184686000Y-71782000D02*
X184686000Y-74522000D01*
X184686000Y-74522000D02*
X191226000Y-74522000D01*
X191226000Y-74522000D02*
X191226000Y-71782000D01*
X191226000Y-71782000D02*
X184686000Y-71782000D01*
X183916000Y-73152000D02*
X184686000Y-73152000D01*
X191996000Y-73152000D02*
X191226000Y-73152000D01*
%TO.C,R14*%
X191996000Y-77343000D02*
X191226000Y-77343000D01*
X183916000Y-77343000D02*
X184686000Y-77343000D01*
X191226000Y-75973000D02*
X184686000Y-75973000D01*
X191226000Y-78713000D02*
X191226000Y-75973000D01*
X184686000Y-78713000D02*
X191226000Y-78713000D01*
X184686000Y-75973000D02*
X184686000Y-78713000D01*
%TO.C,R15*%
X184686000Y-80164000D02*
X184686000Y-82904000D01*
X184686000Y-82904000D02*
X191226000Y-82904000D01*
X191226000Y-82904000D02*
X191226000Y-80164000D01*
X191226000Y-80164000D02*
X184686000Y-80164000D01*
X183916000Y-81534000D02*
X184686000Y-81534000D01*
X191996000Y-81534000D02*
X191226000Y-81534000D01*
%TO.C,U4*%
X85804500Y-11704200D02*
X85804500Y-8254200D01*
X85804500Y-11704200D02*
X85804500Y-13654200D01*
X80684500Y-11704200D02*
X80684500Y-9754200D01*
X80684500Y-11704200D02*
X80684500Y-13654200D01*
%TO.C,U8*%
X43561500Y-11958200D02*
X43561500Y-13908200D01*
X43561500Y-11958200D02*
X43561500Y-10008200D01*
X48681500Y-11958200D02*
X48681500Y-13908200D01*
X48681500Y-11958200D02*
X48681500Y-8508200D01*
%TO.C,U9*%
X61849500Y-11958200D02*
X61849500Y-13908200D01*
X61849500Y-11958200D02*
X61849500Y-10008200D01*
X66969500Y-11958200D02*
X66969500Y-13908200D01*
X66969500Y-11958200D02*
X66969500Y-8508200D01*
%TO.C,Q1*%
X46111100Y-76695800D02*
X35871100Y-76695800D01*
X46111100Y-92585800D02*
X35871100Y-92585800D01*
X46111100Y-92585800D02*
X46111100Y-76695800D01*
X35871100Y-92585800D02*
X35871100Y-76695800D01*
X43531100Y-76695800D02*
X43531100Y-74155800D01*
X40991100Y-76695800D02*
X40991100Y-74155800D01*
X38451100Y-76695800D02*
X38451100Y-74155800D01*
%TO.C,Q3*%
X50701800Y-76695800D02*
X50701800Y-74155800D01*
X53241800Y-76695800D02*
X53241800Y-74155800D01*
X55781800Y-76695800D02*
X55781800Y-74155800D01*
X48121800Y-92585800D02*
X48121800Y-76695800D01*
X58361800Y-92585800D02*
X58361800Y-76695800D01*
X58361800Y-92585800D02*
X48121800Y-92585800D01*
X58361800Y-76695800D02*
X48121800Y-76695800D01*
%TO.C,Q4*%
X50701800Y-58495400D02*
X50701800Y-55955400D01*
X53241800Y-58495400D02*
X53241800Y-55955400D01*
X55781800Y-58495400D02*
X55781800Y-55955400D01*
X48121800Y-41425400D02*
X48121800Y-40225400D01*
X48121800Y-43825400D02*
X48121800Y-42625400D01*
X48121800Y-46225400D02*
X48121800Y-45025400D01*
X58361800Y-41425400D02*
X58361800Y-40225400D01*
X58361800Y-43825400D02*
X58361800Y-42625400D01*
X58361800Y-46225400D02*
X58361800Y-45025400D01*
X48761800Y-40065400D02*
X48121800Y-40065400D01*
X51161800Y-40065400D02*
X49961800Y-40065400D01*
X53561800Y-40065400D02*
X52361800Y-40065400D01*
X55962800Y-40065400D02*
X54761800Y-40065400D01*
X58361800Y-40065400D02*
X57161800Y-40065400D01*
X48121800Y-55955400D02*
X48121800Y-46465400D01*
X58361800Y-55955400D02*
X58361800Y-46465400D01*
X58361800Y-46465400D02*
X48121800Y-46465400D01*
X58361800Y-55955400D02*
X48121800Y-55955400D01*
%TO.C,Q5*%
X70612500Y-76695800D02*
X60372500Y-76695800D01*
X70612500Y-92585800D02*
X60372500Y-92585800D01*
X70612500Y-92585800D02*
X70612500Y-76695800D01*
X60372500Y-92585800D02*
X60372500Y-76695800D01*
X68032500Y-76695800D02*
X68032500Y-74155800D01*
X65492500Y-76695800D02*
X65492500Y-74155800D01*
X62952500Y-76695800D02*
X62952500Y-74155800D01*
%TO.C,Q6*%
X70612500Y-55955400D02*
X60372500Y-55955400D01*
X70612500Y-46465400D02*
X60372500Y-46465400D01*
X70612500Y-55955400D02*
X70612500Y-46465400D01*
X60372500Y-55955400D02*
X60372500Y-46465400D01*
X70612500Y-40065400D02*
X69412500Y-40065400D01*
X68213500Y-40065400D02*
X67012500Y-40065400D01*
X65812500Y-40065400D02*
X64612500Y-40065400D01*
X63412500Y-40065400D02*
X62212500Y-40065400D01*
X61012500Y-40065400D02*
X60372500Y-40065400D01*
X70612500Y-46225400D02*
X70612500Y-45025400D01*
X70612500Y-43825400D02*
X70612500Y-42625400D01*
X70612500Y-41425400D02*
X70612500Y-40225400D01*
X60372500Y-46225400D02*
X60372500Y-45025400D01*
X60372500Y-43825400D02*
X60372500Y-42625400D01*
X60372500Y-41425400D02*
X60372500Y-40225400D01*
X68032500Y-58495400D02*
X68032500Y-55955400D01*
X65492500Y-58495400D02*
X65492500Y-55955400D01*
X62952500Y-58495400D02*
X62952500Y-55955400D01*
%TO.C,C7*%
X164856000Y-40232000D02*
X159916000Y-40232000D01*
X164856000Y-37492000D02*
X159916000Y-37492000D01*
X164856000Y-40232000D02*
X164856000Y-39917000D01*
X164856000Y-37807000D02*
X164856000Y-37492000D01*
X159916000Y-40232000D02*
X159916000Y-39917000D01*
X159916000Y-37807000D02*
X159916000Y-37492000D01*
%TO.C,C8*%
X159916000Y-32473000D02*
X159916000Y-32158000D01*
X159916000Y-34898000D02*
X159916000Y-34583000D01*
X164856000Y-32473000D02*
X164856000Y-32158000D01*
X164856000Y-34898000D02*
X164856000Y-34583000D01*
X164856000Y-32158000D02*
X159916000Y-32158000D01*
X164856000Y-34898000D02*
X159916000Y-34898000D01*
%TO.C,C9*%
X159916000Y-27901000D02*
X159916000Y-27586000D01*
X159916000Y-30326000D02*
X159916000Y-30011000D01*
X164856000Y-27901000D02*
X164856000Y-27586000D01*
X164856000Y-30326000D02*
X164856000Y-30011000D01*
X164856000Y-27586000D02*
X159916000Y-27586000D01*
X164856000Y-30326000D02*
X159916000Y-30326000D01*
%TO.C,C13*%
X158516000Y-21716000D02*
X158516000Y-19732000D01*
X158516000Y-24972000D02*
X158516000Y-22988000D01*
X166256000Y-21716000D02*
X166256000Y-19732000D01*
X166256000Y-24972000D02*
X166256000Y-22988000D01*
X166256000Y-19732000D02*
X158516000Y-19732000D01*
X166256000Y-24972000D02*
X158516000Y-24972000D01*
%TO.C,R16*%
X106446000Y-59888000D02*
X107216000Y-59888000D01*
X114526000Y-59888000D02*
X113756000Y-59888000D01*
X107216000Y-61258000D02*
X113756000Y-61258000D01*
X107216000Y-58518000D02*
X107216000Y-61258000D01*
X113756000Y-58518000D02*
X107216000Y-58518000D01*
X113756000Y-61258000D02*
X113756000Y-58518000D01*
%TO.C,C10*%
X47396700Y-78425400D02*
X46146700Y-78425400D01*
X46771700Y-77800400D02*
X46771700Y-79050400D01*
X39716137Y-79290400D02*
X38651700Y-80354837D01*
X48307263Y-79290400D02*
X49371700Y-80354837D01*
X48307263Y-79290400D02*
X45521700Y-79290400D01*
X39716137Y-79290400D02*
X42501700Y-79290400D01*
X38651700Y-80354837D02*
X38651700Y-90010400D01*
X49371700Y-80354837D02*
X49371700Y-90010400D01*
X49371700Y-90010400D02*
X45521700Y-90010400D01*
X38651700Y-90010400D02*
X42501700Y-90010400D01*
%TO.C,C11*%
X52641700Y-90010400D02*
X56491700Y-90010400D01*
X63361700Y-90010400D02*
X59511700Y-90010400D01*
X63361700Y-80354837D02*
X63361700Y-90010400D01*
X52641700Y-80354837D02*
X52641700Y-90010400D01*
X53706137Y-79290400D02*
X56491700Y-79290400D01*
X62297263Y-79290400D02*
X59511700Y-79290400D01*
X62297263Y-79290400D02*
X63361700Y-80354837D01*
X53706137Y-79290400D02*
X52641700Y-80354837D01*
X60761700Y-77800400D02*
X60761700Y-79050400D01*
X61386700Y-78425400D02*
X60136700Y-78425400D01*
%TO.C,C12*%
X75376700Y-78425400D02*
X74126700Y-78425400D01*
X74751700Y-77800400D02*
X74751700Y-79050400D01*
X67696137Y-79290400D02*
X66631700Y-80354837D01*
X76287263Y-79290400D02*
X77351700Y-80354837D01*
X76287263Y-79290400D02*
X73501700Y-79290400D01*
X67696137Y-79290400D02*
X70481700Y-79290400D01*
X66631700Y-80354837D02*
X66631700Y-90010400D01*
X77351700Y-80354837D02*
X77351700Y-90010400D01*
X77351700Y-90010400D02*
X73501700Y-90010400D01*
X66631700Y-90010400D02*
X70481700Y-90010400D01*
%TO.C,C5*%
X166256000Y-75239200D02*
X166256000Y-77223200D01*
X166256000Y-71983200D02*
X166256000Y-73967200D01*
X158516000Y-75239200D02*
X158516000Y-77223200D01*
X158516000Y-71983200D02*
X158516000Y-73967200D01*
X158516000Y-77223200D02*
X166256000Y-77223200D01*
X158516000Y-71983200D02*
X166256000Y-71983200D01*
%TO.C,D4*%
X164326000Y-68526000D02*
X164326000Y-65586000D01*
X164086000Y-68526000D02*
X164086000Y-65586000D01*
X164206000Y-68526000D02*
X164206000Y-65586000D01*
X158646000Y-67056000D02*
X159666000Y-67056000D01*
X166126000Y-67056000D02*
X165106000Y-67056000D01*
X159666000Y-68526000D02*
X165106000Y-68526000D01*
X159666000Y-65586000D02*
X159666000Y-68526000D01*
X165106000Y-65586000D02*
X159666000Y-65586000D01*
X165106000Y-68526000D02*
X165106000Y-65586000D01*
%TO.C,D5*%
X159666000Y-60882400D02*
X159666000Y-63822400D01*
X159666000Y-63822400D02*
X165106000Y-63822400D01*
X165106000Y-63822400D02*
X165106000Y-60882400D01*
X165106000Y-60882400D02*
X159666000Y-60882400D01*
X158646000Y-62352400D02*
X159666000Y-62352400D01*
X166126000Y-62352400D02*
X165106000Y-62352400D01*
X160566000Y-60882400D02*
X160566000Y-63822400D01*
X160686000Y-60882400D02*
X160686000Y-63822400D01*
X160446000Y-60882400D02*
X160446000Y-63822400D01*
%TO.C,D6*%
X160866000Y-85184000D02*
X160866000Y-87424000D01*
X161106000Y-85184000D02*
X161106000Y-87424000D01*
X160986000Y-85184000D02*
X160986000Y-87424000D01*
X165156000Y-86304000D02*
X164506000Y-86304000D01*
X159616000Y-86304000D02*
X160266000Y-86304000D01*
X164506000Y-85184000D02*
X160266000Y-85184000D01*
X164506000Y-87424000D02*
X164506000Y-85184000D01*
X160266000Y-87424000D02*
X164506000Y-87424000D01*
X160266000Y-85184000D02*
X160266000Y-87424000D01*
%TO.C,D7*%
X148756000Y-79144000D02*
X148756000Y-81384000D01*
X148756000Y-81384000D02*
X152996000Y-81384000D01*
X152996000Y-81384000D02*
X152996000Y-79144000D01*
X152996000Y-79144000D02*
X148756000Y-79144000D01*
X148106000Y-80264000D02*
X148756000Y-80264000D01*
X153646000Y-80264000D02*
X152996000Y-80264000D01*
X149476000Y-79144000D02*
X149476000Y-81384000D01*
X149596000Y-79144000D02*
X149596000Y-81384000D01*
X149356000Y-79144000D02*
X149356000Y-81384000D01*
%TO.C,D8*%
X152284000Y-75698600D02*
X152284000Y-73458600D01*
X152044000Y-75698600D02*
X152044000Y-73458600D01*
X152164000Y-75698600D02*
X152164000Y-73458600D01*
X147994000Y-74578600D02*
X148644000Y-74578600D01*
X153534000Y-74578600D02*
X152884000Y-74578600D01*
X148644000Y-75698600D02*
X152884000Y-75698600D01*
X148644000Y-73458600D02*
X148644000Y-75698600D01*
X152884000Y-73458600D02*
X148644000Y-73458600D01*
X152884000Y-75698600D02*
X152884000Y-73458600D01*
%TO.C,C6*%
X138505000Y-81301698D02*
X139305000Y-81301698D01*
X138905000Y-81701698D02*
X138905000Y-80901698D01*
X140687000Y-73211000D02*
X141753000Y-73211000D01*
X140452000Y-73251000D02*
X141988000Y-73251000D01*
X140272000Y-73291000D02*
X142168000Y-73291000D01*
X140122000Y-73331000D02*
X142318000Y-73331000D01*
X139991000Y-73371000D02*
X142449000Y-73371000D01*
X139874000Y-73411000D02*
X142566000Y-73411000D01*
X139767000Y-73451000D02*
X142673000Y-73451000D01*
X139668000Y-73491000D02*
X142772000Y-73491000D01*
X139575000Y-73531000D02*
X142865000Y-73531000D01*
X139489000Y-73571000D02*
X142951000Y-73571000D01*
X139407000Y-73611000D02*
X143033000Y-73611000D01*
X139330000Y-73651000D02*
X143110000Y-73651000D01*
X139256000Y-73691000D02*
X143184000Y-73691000D01*
X139186000Y-73731000D02*
X143254000Y-73731000D01*
X139118000Y-73771000D02*
X143322000Y-73771000D01*
X139054000Y-73811000D02*
X143386000Y-73811000D01*
X138992000Y-73851000D02*
X143448000Y-73851000D01*
X138933000Y-73891000D02*
X143507000Y-73891000D01*
X138875000Y-73931000D02*
X143565000Y-73931000D01*
X138820000Y-73971000D02*
X143620000Y-73971000D01*
X138766000Y-74011000D02*
X143674000Y-74011000D01*
X138715000Y-74051000D02*
X143725000Y-74051000D01*
X138664000Y-74091000D02*
X143776000Y-74091000D01*
X138616000Y-74131000D02*
X143824000Y-74131000D01*
X138569000Y-74171000D02*
X143871000Y-74171000D01*
X138523000Y-74211000D02*
X143917000Y-74211000D01*
X138479000Y-74251000D02*
X143961000Y-74251000D01*
X138436000Y-74291000D02*
X144004000Y-74291000D01*
X138394000Y-74331000D02*
X144046000Y-74331000D01*
X142260000Y-74371000D02*
X144087000Y-74371000D01*
X138353000Y-74371000D02*
X140180000Y-74371000D01*
X142260000Y-74411000D02*
X144127000Y-74411000D01*
X138313000Y-74411000D02*
X140180000Y-74411000D01*
X142260000Y-74451000D02*
X144165000Y-74451000D01*
X138275000Y-74451000D02*
X140180000Y-74451000D01*
X142260000Y-74491000D02*
X144203000Y-74491000D01*
X138237000Y-74491000D02*
X140180000Y-74491000D01*
X142260000Y-74531000D02*
X144239000Y-74531000D01*
X138201000Y-74531000D02*
X140180000Y-74531000D01*
X142260000Y-74571000D02*
X144275000Y-74571000D01*
X138165000Y-74571000D02*
X140180000Y-74571000D01*
X142260000Y-74611000D02*
X144310000Y-74611000D01*
X138130000Y-74611000D02*
X140180000Y-74611000D01*
X142260000Y-74651000D02*
X144344000Y-74651000D01*
X138096000Y-74651000D02*
X140180000Y-74651000D01*
X142260000Y-74691000D02*
X144376000Y-74691000D01*
X138064000Y-74691000D02*
X140180000Y-74691000D01*
X142260000Y-74731000D02*
X144409000Y-74731000D01*
X138031000Y-74731000D02*
X140180000Y-74731000D01*
X142260000Y-74771000D02*
X144440000Y-74771000D01*
X138000000Y-74771000D02*
X140180000Y-74771000D01*
X142260000Y-74811000D02*
X144470000Y-74811000D01*
X137970000Y-74811000D02*
X140180000Y-74811000D01*
X142260000Y-74851000D02*
X144500000Y-74851000D01*
X137940000Y-74851000D02*
X140180000Y-74851000D01*
X142260000Y-74891000D02*
X144529000Y-74891000D01*
X137911000Y-74891000D02*
X140180000Y-74891000D01*
X142260000Y-74931000D02*
X144558000Y-74931000D01*
X137882000Y-74931000D02*
X140180000Y-74931000D01*
X142260000Y-74971000D02*
X144585000Y-74971000D01*
X137855000Y-74971000D02*
X140180000Y-74971000D01*
X142260000Y-75011000D02*
X144612000Y-75011000D01*
X137828000Y-75011000D02*
X140180000Y-75011000D01*
X142260000Y-75051000D02*
X144638000Y-75051000D01*
X137802000Y-75051000D02*
X140180000Y-75051000D01*
X142260000Y-75091000D02*
X144664000Y-75091000D01*
X137776000Y-75091000D02*
X140180000Y-75091000D01*
X142260000Y-75131000D02*
X144689000Y-75131000D01*
X137751000Y-75131000D02*
X140180000Y-75131000D01*
X142260000Y-75171000D02*
X144713000Y-75171000D01*
X137727000Y-75171000D02*
X140180000Y-75171000D01*
X142260000Y-75211000D02*
X144737000Y-75211000D01*
X137703000Y-75211000D02*
X140180000Y-75211000D01*
X142260000Y-75251000D02*
X144760000Y-75251000D01*
X137680000Y-75251000D02*
X140180000Y-75251000D01*
X142260000Y-75291000D02*
X144782000Y-75291000D01*
X137658000Y-75291000D02*
X140180000Y-75291000D01*
X142260000Y-75331000D02*
X144804000Y-75331000D01*
X137636000Y-75331000D02*
X140180000Y-75331000D01*
X142260000Y-75371000D02*
X144826000Y-75371000D01*
X137614000Y-75371000D02*
X140180000Y-75371000D01*
X142260000Y-75411000D02*
X144847000Y-75411000D01*
X137593000Y-75411000D02*
X140180000Y-75411000D01*
X142260000Y-75451000D02*
X144867000Y-75451000D01*
X137573000Y-75451000D02*
X140180000Y-75451000D01*
X142260000Y-75491000D02*
X144886000Y-75491000D01*
X137554000Y-75491000D02*
X140180000Y-75491000D01*
X142260000Y-75531000D02*
X144906000Y-75531000D01*
X137534000Y-75531000D02*
X140180000Y-75531000D01*
X142260000Y-75571000D02*
X144924000Y-75571000D01*
X137516000Y-75571000D02*
X140180000Y-75571000D01*
X142260000Y-75611000D02*
X144942000Y-75611000D01*
X137498000Y-75611000D02*
X140180000Y-75611000D01*
X142260000Y-75651000D02*
X144960000Y-75651000D01*
X137480000Y-75651000D02*
X140180000Y-75651000D01*
X142260000Y-75691000D02*
X144977000Y-75691000D01*
X137463000Y-75691000D02*
X140180000Y-75691000D01*
X142260000Y-75731000D02*
X144994000Y-75731000D01*
X137446000Y-75731000D02*
X140180000Y-75731000D01*
X142260000Y-75771000D02*
X145010000Y-75771000D01*
X137430000Y-75771000D02*
X140180000Y-75771000D01*
X142260000Y-75811000D02*
X145025000Y-75811000D01*
X137415000Y-75811000D02*
X140180000Y-75811000D01*
X142260000Y-75851000D02*
X145041000Y-75851000D01*
X137399000Y-75851000D02*
X140180000Y-75851000D01*
X142260000Y-75891000D02*
X145055000Y-75891000D01*
X137385000Y-75891000D02*
X140180000Y-75891000D01*
X142260000Y-75931000D02*
X145070000Y-75931000D01*
X137370000Y-75931000D02*
X140180000Y-75931000D01*
X142260000Y-75971000D02*
X145083000Y-75971000D01*
X137357000Y-75971000D02*
X140180000Y-75971000D01*
X142260000Y-76011000D02*
X145097000Y-76011000D01*
X137343000Y-76011000D02*
X140180000Y-76011000D01*
X142260000Y-76051000D02*
X145109000Y-76051000D01*
X137331000Y-76051000D02*
X140180000Y-76051000D01*
X142260000Y-76091000D02*
X145122000Y-76091000D01*
X137318000Y-76091000D02*
X140180000Y-76091000D01*
X142260000Y-76131000D02*
X145134000Y-76131000D01*
X137306000Y-76131000D02*
X140180000Y-76131000D01*
X142260000Y-76171000D02*
X145145000Y-76171000D01*
X137295000Y-76171000D02*
X140180000Y-76171000D01*
X142260000Y-76211000D02*
X145156000Y-76211000D01*
X137284000Y-76211000D02*
X140180000Y-76211000D01*
X142260000Y-76251000D02*
X145167000Y-76251000D01*
X137273000Y-76251000D02*
X140180000Y-76251000D01*
X142260000Y-76291000D02*
X145177000Y-76291000D01*
X137263000Y-76291000D02*
X140180000Y-76291000D01*
X142260000Y-76331000D02*
X145187000Y-76331000D01*
X137253000Y-76331000D02*
X140180000Y-76331000D01*
X142260000Y-76371000D02*
X145196000Y-76371000D01*
X137244000Y-76371000D02*
X140180000Y-76371000D01*
X142260000Y-76411000D02*
X145205000Y-76411000D01*
X137235000Y-76411000D02*
X140180000Y-76411000D01*
X137226000Y-76451000D02*
X145214000Y-76451000D01*
X137218000Y-76491000D02*
X145222000Y-76491000D01*
X137210000Y-76531000D02*
X145230000Y-76531000D01*
X137203000Y-76571000D02*
X145237000Y-76571000D01*
X137196000Y-76612000D02*
X145244000Y-76612000D01*
X137190000Y-76652000D02*
X145250000Y-76652000D01*
X137183000Y-76692000D02*
X145257000Y-76692000D01*
X137178000Y-76732000D02*
X145262000Y-76732000D01*
X137172000Y-76772000D02*
X145268000Y-76772000D01*
X137168000Y-76812000D02*
X145272000Y-76812000D01*
X137163000Y-76852000D02*
X145277000Y-76852000D01*
X137159000Y-76892000D02*
X145281000Y-76892000D01*
X137155000Y-76932000D02*
X145285000Y-76932000D01*
X137152000Y-76972000D02*
X145288000Y-76972000D01*
X137149000Y-77012000D02*
X145291000Y-77012000D01*
X137146000Y-77052000D02*
X145294000Y-77052000D01*
X137144000Y-77092000D02*
X145296000Y-77092000D01*
X137143000Y-77132000D02*
X145297000Y-77132000D01*
X137141000Y-77172000D02*
X145299000Y-77172000D01*
X137140000Y-77212000D02*
X145300000Y-77212000D01*
X137140000Y-77252000D02*
X145300000Y-77252000D01*
X137140000Y-77292000D02*
X145300000Y-77292000D01*
X145340000Y-77292000D02*
G75*
G03*
X145340000Y-77292000I-4120000J0D01*
G01*
%TO.C,R18*%
X166426000Y-81203600D02*
X165656000Y-81203600D01*
X158346000Y-81203600D02*
X159116000Y-81203600D01*
X165656000Y-79833600D02*
X159116000Y-79833600D01*
X165656000Y-82573600D02*
X165656000Y-79833600D01*
X159116000Y-82573600D02*
X165656000Y-82573600D01*
X159116000Y-79833600D02*
X159116000Y-82573600D01*
%TO.C,R19*%
X123340000Y-81446000D02*
X126080000Y-81446000D01*
X126080000Y-81446000D02*
X126080000Y-74906000D01*
X126080000Y-74906000D02*
X123340000Y-74906000D01*
X123340000Y-74906000D02*
X123340000Y-81446000D01*
X124710000Y-82216000D02*
X124710000Y-81446000D01*
X124710000Y-74136000D02*
X124710000Y-74906000D01*
%TO.C,R20*%
X106446000Y-86812000D02*
X107216000Y-86812000D01*
X114526000Y-86812000D02*
X113756000Y-86812000D01*
X107216000Y-88182000D02*
X113756000Y-88182000D01*
X107216000Y-85442000D02*
X107216000Y-88182000D01*
X113756000Y-85442000D02*
X107216000Y-85442000D01*
X113756000Y-88182000D02*
X113756000Y-85442000D01*
%TO.C,R21*%
X92198000Y-82216000D02*
X92198000Y-81446000D01*
X92198000Y-74136000D02*
X92198000Y-74906000D01*
X93568000Y-81446000D02*
X93568000Y-74906000D01*
X90828000Y-81446000D02*
X93568000Y-81446000D01*
X90828000Y-74906000D02*
X90828000Y-81446000D01*
X93568000Y-74906000D02*
X90828000Y-74906000D01*
%TO.C,R22*%
X98140000Y-74906000D02*
X95400000Y-74906000D01*
X95400000Y-74906000D02*
X95400000Y-81446000D01*
X95400000Y-81446000D02*
X98140000Y-81446000D01*
X98140000Y-81446000D02*
X98140000Y-74906000D01*
X96770000Y-74136000D02*
X96770000Y-74906000D01*
X96770000Y-82216000D02*
X96770000Y-81446000D01*
%TO.C,R23*%
X119984000Y-74906000D02*
X117244000Y-74906000D01*
X117244000Y-74906000D02*
X117244000Y-81446000D01*
X117244000Y-81446000D02*
X119984000Y-81446000D01*
X119984000Y-81446000D02*
X119984000Y-74906000D01*
X118614000Y-74136000D02*
X118614000Y-74906000D01*
X118614000Y-82216000D02*
X118614000Y-81446000D01*
%TO.C,R24*%
X101342000Y-82216000D02*
X101342000Y-81446000D01*
X101342000Y-74136000D02*
X101342000Y-74906000D01*
X102712000Y-81446000D02*
X102712000Y-74906000D01*
X99972000Y-81446000D02*
X102712000Y-81446000D01*
X99972000Y-74906000D02*
X99972000Y-81446000D01*
X102712000Y-74906000D02*
X99972000Y-74906000D01*
%TO.C,U2*%
X108251000Y-83306000D02*
X109501000Y-83306000D01*
X108251000Y-73026000D02*
X108251000Y-83306000D01*
X112751000Y-73026000D02*
X108251000Y-73026000D01*
X112751000Y-83306000D02*
X112751000Y-73026000D01*
X111501000Y-83306000D02*
X112751000Y-83306000D01*
X109501000Y-83306000D02*
G75*
G02*
X111501000Y-83306000I1000000J0D01*
G01*
%TO.C,R17*%
X158346000Y-55626000D02*
X159116000Y-55626000D01*
X166426000Y-55626000D02*
X165656000Y-55626000D01*
X159116000Y-56996000D02*
X165656000Y-56996000D01*
X159116000Y-54256000D02*
X159116000Y-56996000D01*
X165656000Y-54256000D02*
X159116000Y-54256000D01*
X165656000Y-56996000D02*
X165656000Y-54256000D01*
%TO.C,D9*%
X5929700Y-29666000D02*
X3689700Y-29666000D01*
X5929700Y-29906000D02*
X3689700Y-29906000D01*
X5929700Y-29786000D02*
X3689700Y-29786000D01*
X4809700Y-33956000D02*
X4809700Y-33306000D01*
X4809700Y-28416000D02*
X4809700Y-29066000D01*
X5929700Y-33306000D02*
X5929700Y-29066000D01*
X3689700Y-33306000D02*
X5929700Y-33306000D01*
X3689700Y-29066000D02*
X3689700Y-33306000D01*
X5929700Y-29066000D02*
X3689700Y-29066000D01*
%TO.C,K1*%
X11550000Y-59268000D02*
X11550000Y-76948000D01*
X10900000Y-77598000D02*
X7120000Y-77598000D01*
X33000000Y-72598000D02*
X32020000Y-72598000D01*
X33870000Y-73468000D02*
X33870000Y-89548000D01*
X30500000Y-58398000D02*
X12420000Y-58398000D01*
X31370000Y-59268000D02*
X31370000Y-71948000D01*
X33000000Y-90418000D02*
X7120000Y-90418000D01*
X6250000Y-78468000D02*
X6250000Y-89548000D01*
X22338000Y-67802000D02*
X25665400Y-67802000D01*
X15454603Y-67802002D02*
X18782003Y-67802002D01*
X15454600Y-67802000D02*
X15454600Y-66532000D01*
X25665400Y-66532000D02*
X25665400Y-67802000D01*
X23227000Y-84058000D02*
G75*
G03*
X23227000Y-84058000I-127000J0D01*
G01*
X29460000Y-62468000D02*
X22846000Y-62468000D01*
X29460000Y-62468000D02*
X29460000Y-75422000D01*
X18020000Y-86344000D02*
X19544000Y-86344000D01*
X18020000Y-86344000D02*
X18782000Y-85328000D01*
X18782000Y-85328000D02*
X19544000Y-86344000D01*
X23100000Y-84058000D02*
X18528000Y-85277200D01*
X23100000Y-84058000D02*
X29460000Y-84058000D01*
X29460000Y-84058000D02*
X29460000Y-79994000D01*
X18782000Y-87808000D02*
X13956000Y-87808000D01*
X18782000Y-86344000D02*
X18782000Y-87808000D01*
X20560355Y-68310265D02*
G75*
G02*
X21322001Y-68310000I380646J508264D01*
G01*
X19798356Y-68310266D02*
G75*
G02*
X20560002Y-68310001I380646J508264D01*
G01*
X21321733Y-68309800D02*
G75*
G02*
X22338000Y-67802000I381267J507800D01*
G01*
X19798270Y-68309802D02*
G75*
G03*
X18782003Y-67802002I-381267J507800D01*
G01*
X32020000Y-72598000D02*
G75*
G02*
X31370000Y-71948000I0J650000D01*
G01*
X30500000Y-58398000D02*
G75*
G02*
X31370000Y-59268000I0J-870000D01*
G01*
X11550000Y-59268000D02*
G75*
G02*
X12420000Y-58398000I870000J0D01*
G01*
X11550000Y-76948000D02*
G75*
G02*
X10900000Y-77598000I-650000J0D01*
G01*
X6250000Y-78468000D02*
G75*
G02*
X7120000Y-77598000I870000J0D01*
G01*
X33870000Y-89548000D02*
G75*
G02*
X33000000Y-90418000I-870000J0D01*
G01*
X7120000Y-90418000D02*
G75*
G02*
X6250000Y-89548000I0J870000D01*
G01*
X33000000Y-72598000D02*
G75*
G02*
X33870000Y-73468000I0J-870000D01*
G01*
%TO.C,Q7*%
X21862000Y-17906000D02*
X18262000Y-17906000D01*
X21900478Y-17917522D02*
G75*
G02*
X20062000Y-22356000I-1838478J-1838478D01*
G01*
X18223522Y-17917522D02*
G75*
G03*
X20062000Y-22356000I1838478J-1838478D01*
G01*
%TO.C,R25*%
X12135500Y-27146000D02*
X12135500Y-27916000D01*
X12135500Y-35226000D02*
X12135500Y-34456000D01*
X10765500Y-27916000D02*
X10765500Y-34456000D01*
X13505500Y-27916000D02*
X10765500Y-27916000D01*
X13505500Y-34456000D02*
X13505500Y-27916000D01*
X10765500Y-34456000D02*
X13505500Y-34456000D01*
%TO.C,R26*%
X106446000Y-64460000D02*
X107216000Y-64460000D01*
X114526000Y-64460000D02*
X113756000Y-64460000D01*
X107216000Y-65830000D02*
X113756000Y-65830000D01*
X107216000Y-63090000D02*
X107216000Y-65830000D01*
X113756000Y-63090000D02*
X107216000Y-63090000D01*
X113756000Y-65830000D02*
X113756000Y-63090000D01*
%TO.C,R27*%
X107216000Y-69186000D02*
X107216000Y-71926000D01*
X107216000Y-71926000D02*
X113756000Y-71926000D01*
X113756000Y-71926000D02*
X113756000Y-69186000D01*
X113756000Y-69186000D02*
X107216000Y-69186000D01*
X106446000Y-70556000D02*
X107216000Y-70556000D01*
X114526000Y-70556000D02*
X113756000Y-70556000D01*
%TO.C,R28*%
X166426000Y-45466000D02*
X165656000Y-45466000D01*
X158346000Y-45466000D02*
X159116000Y-45466000D01*
X165656000Y-44096000D02*
X159116000Y-44096000D01*
X165656000Y-46836000D02*
X165656000Y-44096000D01*
X159116000Y-46836000D02*
X165656000Y-46836000D01*
X159116000Y-44096000D02*
X159116000Y-46836000D01*
%TO.C,J2*%
X203182000Y-31640000D02*
X197162000Y-31640000D01*
X197162000Y-31640000D02*
X197162000Y-59800000D01*
X197162000Y-59800000D02*
X203182000Y-59800000D01*
X203182000Y-59800000D02*
X203182000Y-31640000D01*
X202152000Y-31350000D02*
X198152000Y-31350000D01*
X197162000Y-33020000D02*
X198162000Y-33020000D01*
X198162000Y-33020000D02*
X198162000Y-38100000D01*
X198162000Y-38100000D02*
X197162000Y-38100000D01*
X198162000Y-33020000D02*
X198692000Y-33270000D01*
X198692000Y-33270000D02*
X198692000Y-38100000D01*
X198692000Y-38100000D02*
X198162000Y-38100000D01*
X197162000Y-33270000D02*
X198162000Y-33270000D01*
X197162000Y-58420000D02*
X198162000Y-58420000D01*
X198162000Y-58420000D02*
X198162000Y-53340000D01*
X198162000Y-53340000D02*
X197162000Y-53340000D01*
X198162000Y-58420000D02*
X198692000Y-58170000D01*
X198692000Y-58170000D02*
X198692000Y-53340000D01*
X198692000Y-53340000D02*
X198162000Y-53340000D01*
X197162000Y-58170000D02*
X198162000Y-58170000D01*
X203182000Y-32220000D02*
X202582000Y-32220000D01*
X202582000Y-32220000D02*
X202582000Y-33820000D01*
X202582000Y-33820000D02*
X203182000Y-33820000D01*
X203182000Y-34760000D02*
X202582000Y-34760000D01*
X202582000Y-34760000D02*
X202582000Y-36360000D01*
X202582000Y-36360000D02*
X203182000Y-36360000D01*
X203182000Y-37300000D02*
X202582000Y-37300000D01*
X202582000Y-37300000D02*
X202582000Y-38900000D01*
X202582000Y-38900000D02*
X203182000Y-38900000D01*
X203182000Y-39840000D02*
X202582000Y-39840000D01*
X202582000Y-39840000D02*
X202582000Y-41440000D01*
X202582000Y-41440000D02*
X203182000Y-41440000D01*
X203182000Y-42380000D02*
X202582000Y-42380000D01*
X202582000Y-42380000D02*
X202582000Y-43980000D01*
X202582000Y-43980000D02*
X203182000Y-43980000D01*
X203182000Y-44920000D02*
X202582000Y-44920000D01*
X202582000Y-44920000D02*
X202582000Y-46520000D01*
X202582000Y-46520000D02*
X203182000Y-46520000D01*
X203182000Y-47460000D02*
X202582000Y-47460000D01*
X202582000Y-47460000D02*
X202582000Y-49060000D01*
X202582000Y-49060000D02*
X203182000Y-49060000D01*
X203182000Y-50000000D02*
X202582000Y-50000000D01*
X202582000Y-50000000D02*
X202582000Y-51600000D01*
X202582000Y-51600000D02*
X203182000Y-51600000D01*
X203182000Y-52540000D02*
X202582000Y-52540000D01*
X202582000Y-52540000D02*
X202582000Y-54140000D01*
X202582000Y-54140000D02*
X203182000Y-54140000D01*
X203182000Y-55080000D02*
X202582000Y-55080000D01*
X202582000Y-55080000D02*
X202582000Y-56680000D01*
X202582000Y-56680000D02*
X203182000Y-56680000D01*
X203182000Y-57620000D02*
X202582000Y-57620000D01*
X202582000Y-57620000D02*
X202582000Y-59220000D01*
X202582000Y-59220000D02*
X203182000Y-59220000D01*
%TO.C,R29*%
X175880000Y-35000000D02*
X176650000Y-35000000D01*
X183960000Y-35000000D02*
X183190000Y-35000000D01*
X176650000Y-36370000D02*
X183190000Y-36370000D01*
X176650000Y-33630000D02*
X176650000Y-36370000D01*
X183190000Y-33630000D02*
X176650000Y-33630000D01*
X183190000Y-36370000D02*
X183190000Y-33630000D01*
%TO.C,R11*%
D13*
X80034380Y-72214857D02*
X79558190Y-72548190D01*
X80034380Y-72786285D02*
X79034380Y-72786285D01*
X79034380Y-72405333D01*
X79082000Y-72310095D01*
X79129619Y-72262476D01*
X79224857Y-72214857D01*
X79367714Y-72214857D01*
X79462952Y-72262476D01*
X79510571Y-72310095D01*
X79558190Y-72405333D01*
X79558190Y-72786285D01*
X80034380Y-71262476D02*
X80034380Y-71833904D01*
X80034380Y-71548190D02*
X79034380Y-71548190D01*
X79177238Y-71643428D01*
X79272476Y-71738666D01*
X79320095Y-71833904D01*
X80034380Y-70310095D02*
X80034380Y-70881523D01*
X80034380Y-70595809D02*
X79034380Y-70595809D01*
X79177238Y-70691047D01*
X79272476Y-70786285D01*
X79320095Y-70881523D01*
%TO.C,J9*%
X44167466Y-93432780D02*
X44167466Y-94147066D01*
X44119847Y-94289923D01*
X44024609Y-94385161D01*
X43881752Y-94432780D01*
X43786514Y-94432780D01*
X44691276Y-94432780D02*
X44881752Y-94432780D01*
X44976990Y-94385161D01*
X45024609Y-94337542D01*
X45119847Y-94194685D01*
X45167466Y-94004209D01*
X45167466Y-93623257D01*
X45119847Y-93528019D01*
X45072228Y-93480400D01*
X44976990Y-93432780D01*
X44786514Y-93432780D01*
X44691276Y-93480400D01*
X44643657Y-93528019D01*
X44596038Y-93623257D01*
X44596038Y-93861352D01*
X44643657Y-93956590D01*
X44691276Y-94004209D01*
X44786514Y-94051828D01*
X44976990Y-94051828D01*
X45072228Y-94004209D01*
X45119847Y-93956590D01*
X45167466Y-93861352D01*
%TO.C,SW1*%
X11642066Y-117549761D02*
X11784923Y-117597380D01*
X12023019Y-117597380D01*
X12118257Y-117549761D01*
X12165876Y-117502142D01*
X12213495Y-117406904D01*
X12213495Y-117311666D01*
X12165876Y-117216428D01*
X12118257Y-117168809D01*
X12023019Y-117121190D01*
X11832542Y-117073571D01*
X11737304Y-117025952D01*
X11689685Y-116978333D01*
X11642066Y-116883095D01*
X11642066Y-116787857D01*
X11689685Y-116692619D01*
X11737304Y-116645000D01*
X11832542Y-116597380D01*
X12070638Y-116597380D01*
X12213495Y-116645000D01*
X12546828Y-116597380D02*
X12784923Y-117597380D01*
X12975400Y-116883095D01*
X13165876Y-117597380D01*
X13403971Y-116597380D01*
X14308733Y-117597380D02*
X13737304Y-117597380D01*
X14023019Y-117597380D02*
X14023019Y-116597380D01*
X13927780Y-116740238D01*
X13832542Y-116835476D01*
X13737304Y-116883095D01*
%TO.C,U1*%
D14*
X103949226Y-4935324D02*
X103949226Y-5745160D01*
X103996863Y-5840435D01*
X104044501Y-5888073D01*
X104139775Y-5935710D01*
X104330325Y-5935710D01*
X104425600Y-5888073D01*
X104473237Y-5840435D01*
X104520875Y-5745160D01*
X104520875Y-4935324D01*
X105521261Y-5935710D02*
X104949612Y-5935710D01*
X105235436Y-5935710D02*
X105235436Y-4935324D01*
X105140161Y-5078236D01*
X105044887Y-5173511D01*
X104949612Y-5221149D01*
%TO.C,J1*%
D13*
X70090180Y-109638733D02*
X70804466Y-109638733D01*
X70947323Y-109686352D01*
X71042561Y-109781590D01*
X71090180Y-109924447D01*
X71090180Y-110019685D01*
X71090180Y-108638733D02*
X71090180Y-109210161D01*
X71090180Y-108924447D02*
X70090180Y-108924447D01*
X70233038Y-109019685D01*
X70328276Y-109114923D01*
X70375895Y-109210161D01*
%TO.C,F1*%
X45154066Y-113453571D02*
X44820733Y-113453571D01*
X44820733Y-113977380D02*
X44820733Y-112977380D01*
X45296923Y-112977380D01*
X46201685Y-113977380D02*
X45630257Y-113977380D01*
X45915971Y-113977380D02*
X45915971Y-112977380D01*
X45820733Y-113120238D01*
X45725495Y-113215476D01*
X45630257Y-113263095D01*
%TO.C,U3*%
X155000095Y-104601380D02*
X155000095Y-105410904D01*
X155047714Y-105506142D01*
X155095333Y-105553761D01*
X155190571Y-105601380D01*
X155381047Y-105601380D01*
X155476285Y-105553761D01*
X155523904Y-105506142D01*
X155571523Y-105410904D01*
X155571523Y-104601380D01*
X155952476Y-104601380D02*
X156571523Y-104601380D01*
X156238190Y-104982333D01*
X156381047Y-104982333D01*
X156476285Y-105029952D01*
X156523904Y-105077571D01*
X156571523Y-105172809D01*
X156571523Y-105410904D01*
X156523904Y-105506142D01*
X156476285Y-105553761D01*
X156381047Y-105601380D01*
X156095333Y-105601380D01*
X156000095Y-105553761D01*
X155952476Y-105506142D01*
%TO.C,U5*%
X101672095Y-103165380D02*
X101672095Y-103974904D01*
X101719714Y-104070142D01*
X101767333Y-104117761D01*
X101862571Y-104165380D01*
X102053047Y-104165380D01*
X102148285Y-104117761D01*
X102195904Y-104070142D01*
X102243523Y-103974904D01*
X102243523Y-103165380D01*
X103195904Y-103165380D02*
X102719714Y-103165380D01*
X102672095Y-103641571D01*
X102719714Y-103593952D01*
X102814952Y-103546333D01*
X103053047Y-103546333D01*
X103148285Y-103593952D01*
X103195904Y-103641571D01*
X103243523Y-103736809D01*
X103243523Y-103974904D01*
X103195904Y-104070142D01*
X103148285Y-104117761D01*
X103053047Y-104165380D01*
X102814952Y-104165380D01*
X102719714Y-104117761D01*
X102672095Y-104070142D01*
%TO.C,Q2*%
X40895861Y-39613019D02*
X40800623Y-39565400D01*
X40705385Y-39470161D01*
X40562528Y-39327304D01*
X40467290Y-39279685D01*
X40372052Y-39279685D01*
X40419671Y-39517780D02*
X40324433Y-39470161D01*
X40229195Y-39374923D01*
X40181576Y-39184447D01*
X40181576Y-38851114D01*
X40229195Y-38660638D01*
X40324433Y-38565400D01*
X40419671Y-38517780D01*
X40610147Y-38517780D01*
X40705385Y-38565400D01*
X40800623Y-38660638D01*
X40848242Y-38851114D01*
X40848242Y-39184447D01*
X40800623Y-39374923D01*
X40705385Y-39470161D01*
X40610147Y-39517780D01*
X40419671Y-39517780D01*
X41229195Y-38613019D02*
X41276814Y-38565400D01*
X41372052Y-38517780D01*
X41610147Y-38517780D01*
X41705385Y-38565400D01*
X41753004Y-38613019D01*
X41800623Y-38708257D01*
X41800623Y-38803495D01*
X41753004Y-38946352D01*
X41181576Y-39517780D01*
X41800623Y-39517780D01*
%TO.C,C4*%
X83009833Y-26676342D02*
X82962214Y-26723961D01*
X82819357Y-26771580D01*
X82724119Y-26771580D01*
X82581261Y-26723961D01*
X82486023Y-26628723D01*
X82438404Y-26533485D01*
X82390785Y-26343009D01*
X82390785Y-26200152D01*
X82438404Y-26009676D01*
X82486023Y-25914438D01*
X82581261Y-25819200D01*
X82724119Y-25771580D01*
X82819357Y-25771580D01*
X82962214Y-25819200D01*
X83009833Y-25866819D01*
X83866976Y-26104914D02*
X83866976Y-26771580D01*
X83628880Y-25723961D02*
X83390785Y-26438247D01*
X84009833Y-26438247D01*
%TO.C,C1*%
X41225242Y-18826266D02*
X41272861Y-18873885D01*
X41320480Y-19016742D01*
X41320480Y-19111980D01*
X41272861Y-19254838D01*
X41177623Y-19350076D01*
X41082385Y-19397695D01*
X40891909Y-19445314D01*
X40749052Y-19445314D01*
X40558576Y-19397695D01*
X40463338Y-19350076D01*
X40368100Y-19254838D01*
X40320480Y-19111980D01*
X40320480Y-19016742D01*
X40368100Y-18873885D01*
X40415719Y-18826266D01*
X41320480Y-17873885D02*
X41320480Y-18445314D01*
X41320480Y-18159600D02*
X40320480Y-18159600D01*
X40463338Y-18254838D01*
X40558576Y-18350076D01*
X40606195Y-18445314D01*
%TO.C,C2*%
X45886833Y-26930342D02*
X45839214Y-26977961D01*
X45696357Y-27025580D01*
X45601119Y-27025580D01*
X45458261Y-26977961D01*
X45363023Y-26882723D01*
X45315404Y-26787485D01*
X45267785Y-26597009D01*
X45267785Y-26454152D01*
X45315404Y-26263676D01*
X45363023Y-26168438D01*
X45458261Y-26073200D01*
X45601119Y-26025580D01*
X45696357Y-26025580D01*
X45839214Y-26073200D01*
X45886833Y-26120819D01*
X46267785Y-26120819D02*
X46315404Y-26073200D01*
X46410642Y-26025580D01*
X46648738Y-26025580D01*
X46743976Y-26073200D01*
X46791595Y-26120819D01*
X46839214Y-26216057D01*
X46839214Y-26311295D01*
X46791595Y-26454152D01*
X46220166Y-27025580D01*
X46839214Y-27025580D01*
%TO.C,C3*%
X64174833Y-26930342D02*
X64127214Y-26977961D01*
X63984357Y-27025580D01*
X63889119Y-27025580D01*
X63746261Y-26977961D01*
X63651023Y-26882723D01*
X63603404Y-26787485D01*
X63555785Y-26597009D01*
X63555785Y-26454152D01*
X63603404Y-26263676D01*
X63651023Y-26168438D01*
X63746261Y-26073200D01*
X63889119Y-26025580D01*
X63984357Y-26025580D01*
X64127214Y-26073200D01*
X64174833Y-26120819D01*
X64508166Y-26025580D02*
X65127214Y-26025580D01*
X64793880Y-26406533D01*
X64936738Y-26406533D01*
X65031976Y-26454152D01*
X65079595Y-26501771D01*
X65127214Y-26597009D01*
X65127214Y-26835104D01*
X65079595Y-26930342D01*
X65031976Y-26977961D01*
X64936738Y-27025580D01*
X64651023Y-27025580D01*
X64555785Y-26977961D01*
X64508166Y-26930342D01*
%TO.C,D1*%
X54892380Y-16176095D02*
X53892380Y-16176095D01*
X53892380Y-15938000D01*
X53940000Y-15795142D01*
X54035238Y-15699904D01*
X54130476Y-15652285D01*
X54320952Y-15604666D01*
X54463809Y-15604666D01*
X54654285Y-15652285D01*
X54749523Y-15699904D01*
X54844761Y-15795142D01*
X54892380Y-15938000D01*
X54892380Y-16176095D01*
X54892380Y-14652285D02*
X54892380Y-15223714D01*
X54892380Y-14938000D02*
X53892380Y-14938000D01*
X54035238Y-15033238D01*
X54130476Y-15128476D01*
X54178095Y-15223714D01*
X54572380Y-11889904D02*
X53572380Y-11889904D01*
X54572380Y-11318476D02*
X54000952Y-11747047D01*
X53572380Y-11318476D02*
X54143809Y-11889904D01*
%TO.C,D2*%
X73243880Y-16506295D02*
X72243880Y-16506295D01*
X72243880Y-16268200D01*
X72291500Y-16125342D01*
X72386738Y-16030104D01*
X72481976Y-15982485D01*
X72672452Y-15934866D01*
X72815309Y-15934866D01*
X73005785Y-15982485D01*
X73101023Y-16030104D01*
X73196261Y-16125342D01*
X73243880Y-16268200D01*
X73243880Y-16506295D01*
X72339119Y-15553914D02*
X72291500Y-15506295D01*
X72243880Y-15411057D01*
X72243880Y-15172961D01*
X72291500Y-15077723D01*
X72339119Y-15030104D01*
X72434357Y-14982485D01*
X72529595Y-14982485D01*
X72672452Y-15030104D01*
X73243880Y-15601533D01*
X73243880Y-14982485D01*
X72923880Y-12220104D02*
X71923880Y-12220104D01*
X72923880Y-11648676D02*
X72352452Y-12077247D01*
X71923880Y-11648676D02*
X72495309Y-12220104D01*
%TO.C,D3*%
X91531880Y-16252295D02*
X90531880Y-16252295D01*
X90531880Y-16014200D01*
X90579500Y-15871342D01*
X90674738Y-15776104D01*
X90769976Y-15728485D01*
X90960452Y-15680866D01*
X91103309Y-15680866D01*
X91293785Y-15728485D01*
X91389023Y-15776104D01*
X91484261Y-15871342D01*
X91531880Y-16014200D01*
X91531880Y-16252295D01*
X90531880Y-15347533D02*
X90531880Y-14728485D01*
X90912833Y-15061819D01*
X90912833Y-14918961D01*
X90960452Y-14823723D01*
X91008071Y-14776104D01*
X91103309Y-14728485D01*
X91341404Y-14728485D01*
X91436642Y-14776104D01*
X91484261Y-14823723D01*
X91531880Y-14918961D01*
X91531880Y-15204676D01*
X91484261Y-15299914D01*
X91436642Y-15347533D01*
X91211880Y-11966104D02*
X90211880Y-11966104D01*
X91211880Y-11394676D02*
X90640452Y-11823247D01*
X90211880Y-11394676D02*
X90783309Y-11966104D01*
%TO.C,J6*%
X203654380Y-65496933D02*
X204368666Y-65496933D01*
X204511523Y-65544552D01*
X204606761Y-65639790D01*
X204654380Y-65782647D01*
X204654380Y-65877885D01*
X203654380Y-64592171D02*
X203654380Y-64782647D01*
X203702000Y-64877885D01*
X203749619Y-64925504D01*
X203892476Y-65020742D01*
X204082952Y-65068361D01*
X204463904Y-65068361D01*
X204559142Y-65020742D01*
X204606761Y-64973123D01*
X204654380Y-64877885D01*
X204654380Y-64687409D01*
X204606761Y-64592171D01*
X204559142Y-64544552D01*
X204463904Y-64496933D01*
X204225809Y-64496933D01*
X204130571Y-64544552D01*
X204082952Y-64592171D01*
X204035333Y-64687409D01*
X204035333Y-64877885D01*
X204082952Y-64973123D01*
X204130571Y-65020742D01*
X204225809Y-65068361D01*
%TO.C,J7*%
X203724380Y-77549333D02*
X204438666Y-77549333D01*
X204581523Y-77596952D01*
X204676761Y-77692190D01*
X204724380Y-77835047D01*
X204724380Y-77930285D01*
X203724380Y-77168380D02*
X203724380Y-76501714D01*
X204724380Y-76930285D01*
%TO.C,R1*%
X17793580Y-31352666D02*
X17317390Y-31686000D01*
X17793580Y-31924095D02*
X16793580Y-31924095D01*
X16793580Y-31543142D01*
X16841200Y-31447904D01*
X16888819Y-31400285D01*
X16984057Y-31352666D01*
X17126914Y-31352666D01*
X17222152Y-31400285D01*
X17269771Y-31447904D01*
X17317390Y-31543142D01*
X17317390Y-31924095D01*
X17793580Y-30400285D02*
X17793580Y-30971714D01*
X17793580Y-30686000D02*
X16793580Y-30686000D01*
X16936438Y-30781238D01*
X17031676Y-30876476D01*
X17079295Y-30971714D01*
%TO.C,R2*%
X25369280Y-31352666D02*
X24893090Y-31686000D01*
X25369280Y-31924095D02*
X24369280Y-31924095D01*
X24369280Y-31543142D01*
X24416900Y-31447904D01*
X24464519Y-31400285D01*
X24559757Y-31352666D01*
X24702614Y-31352666D01*
X24797852Y-31400285D01*
X24845471Y-31447904D01*
X24893090Y-31543142D01*
X24893090Y-31924095D01*
X24464519Y-30971714D02*
X24416900Y-30924095D01*
X24369280Y-30828857D01*
X24369280Y-30590761D01*
X24416900Y-30495523D01*
X24464519Y-30447904D01*
X24559757Y-30400285D01*
X24654995Y-30400285D01*
X24797852Y-30447904D01*
X25369280Y-31019333D01*
X25369280Y-30400285D01*
%TO.C,R3*%
X32944980Y-31352666D02*
X32468790Y-31686000D01*
X32944980Y-31924095D02*
X31944980Y-31924095D01*
X31944980Y-31543142D01*
X31992600Y-31447904D01*
X32040219Y-31400285D01*
X32135457Y-31352666D01*
X32278314Y-31352666D01*
X32373552Y-31400285D01*
X32421171Y-31447904D01*
X32468790Y-31543142D01*
X32468790Y-31924095D01*
X31944980Y-31019333D02*
X31944980Y-30400285D01*
X32325933Y-30733619D01*
X32325933Y-30590761D01*
X32373552Y-30495523D01*
X32421171Y-30447904D01*
X32516409Y-30400285D01*
X32754504Y-30400285D01*
X32849742Y-30447904D01*
X32897361Y-30495523D01*
X32944980Y-30590761D01*
X32944980Y-30876476D01*
X32897361Y-30971714D01*
X32849742Y-31019333D01*
%TO.C,R4*%
X45260680Y-31352666D02*
X44784490Y-31686000D01*
X45260680Y-31924095D02*
X44260680Y-31924095D01*
X44260680Y-31543142D01*
X44308300Y-31447904D01*
X44355919Y-31400285D01*
X44451157Y-31352666D01*
X44594014Y-31352666D01*
X44689252Y-31400285D01*
X44736871Y-31447904D01*
X44784490Y-31543142D01*
X44784490Y-31924095D01*
X44594014Y-30495523D02*
X45260680Y-30495523D01*
X44213061Y-30733619D02*
X44927347Y-30971714D01*
X44927347Y-30352666D01*
%TO.C,R5*%
X70823580Y-31352666D02*
X70347390Y-31686000D01*
X70823580Y-31924095D02*
X69823580Y-31924095D01*
X69823580Y-31543142D01*
X69871200Y-31447904D01*
X69918819Y-31400285D01*
X70014057Y-31352666D01*
X70156914Y-31352666D01*
X70252152Y-31400285D01*
X70299771Y-31447904D01*
X70347390Y-31543142D01*
X70347390Y-31924095D01*
X69823580Y-30447904D02*
X69823580Y-30924095D01*
X70299771Y-30971714D01*
X70252152Y-30924095D01*
X70204533Y-30828857D01*
X70204533Y-30590761D01*
X70252152Y-30495523D01*
X70299771Y-30447904D01*
X70395009Y-30400285D01*
X70633104Y-30400285D01*
X70728342Y-30447904D01*
X70775961Y-30495523D01*
X70823580Y-30590761D01*
X70823580Y-30828857D01*
X70775961Y-30924095D01*
X70728342Y-30971714D01*
%TO.C,R6*%
X63247880Y-31352666D02*
X62771690Y-31686000D01*
X63247880Y-31924095D02*
X62247880Y-31924095D01*
X62247880Y-31543142D01*
X62295500Y-31447904D01*
X62343119Y-31400285D01*
X62438357Y-31352666D01*
X62581214Y-31352666D01*
X62676452Y-31400285D01*
X62724071Y-31447904D01*
X62771690Y-31543142D01*
X62771690Y-31924095D01*
X62247880Y-30495523D02*
X62247880Y-30686000D01*
X62295500Y-30781238D01*
X62343119Y-30828857D01*
X62485976Y-30924095D01*
X62676452Y-30971714D01*
X63057404Y-30971714D01*
X63152642Y-30924095D01*
X63200261Y-30876476D01*
X63247880Y-30781238D01*
X63247880Y-30590761D01*
X63200261Y-30495523D01*
X63152642Y-30447904D01*
X63057404Y-30400285D01*
X62819309Y-30400285D01*
X62724071Y-30447904D01*
X62676452Y-30495523D01*
X62628833Y-30590761D01*
X62628833Y-30781238D01*
X62676452Y-30876476D01*
X62724071Y-30924095D01*
X62819309Y-30971714D01*
%TO.C,R7*%
X85975080Y-31352666D02*
X85498890Y-31686000D01*
X85975080Y-31924095D02*
X84975080Y-31924095D01*
X84975080Y-31543142D01*
X85022700Y-31447904D01*
X85070319Y-31400285D01*
X85165557Y-31352666D01*
X85308414Y-31352666D01*
X85403652Y-31400285D01*
X85451271Y-31447904D01*
X85498890Y-31543142D01*
X85498890Y-31924095D01*
X84975080Y-31019333D02*
X84975080Y-30352666D01*
X85975080Y-30781238D01*
%TO.C,R8*%
X78399380Y-31352666D02*
X77923190Y-31686000D01*
X78399380Y-31924095D02*
X77399380Y-31924095D01*
X77399380Y-31543142D01*
X77447000Y-31447904D01*
X77494619Y-31400285D01*
X77589857Y-31352666D01*
X77732714Y-31352666D01*
X77827952Y-31400285D01*
X77875571Y-31447904D01*
X77923190Y-31543142D01*
X77923190Y-31924095D01*
X77827952Y-30781238D02*
X77780333Y-30876476D01*
X77732714Y-30924095D01*
X77637476Y-30971714D01*
X77589857Y-30971714D01*
X77494619Y-30924095D01*
X77447000Y-30876476D01*
X77399380Y-30781238D01*
X77399380Y-30590761D01*
X77447000Y-30495523D01*
X77494619Y-30447904D01*
X77589857Y-30400285D01*
X77637476Y-30400285D01*
X77732714Y-30447904D01*
X77780333Y-30495523D01*
X77827952Y-30590761D01*
X77827952Y-30781238D01*
X77875571Y-30876476D01*
X77923190Y-30924095D01*
X78018428Y-30971714D01*
X78208904Y-30971714D01*
X78304142Y-30924095D01*
X78351761Y-30876476D01*
X78399380Y-30781238D01*
X78399380Y-30590761D01*
X78351761Y-30495523D01*
X78304142Y-30447904D01*
X78208904Y-30400285D01*
X78018428Y-30400285D01*
X77923190Y-30447904D01*
X77875571Y-30495523D01*
X77827952Y-30590761D01*
%TO.C,R9*%
X55672180Y-31352666D02*
X55195990Y-31686000D01*
X55672180Y-31924095D02*
X54672180Y-31924095D01*
X54672180Y-31543142D01*
X54719800Y-31447904D01*
X54767419Y-31400285D01*
X54862657Y-31352666D01*
X55005514Y-31352666D01*
X55100752Y-31400285D01*
X55148371Y-31447904D01*
X55195990Y-31543142D01*
X55195990Y-31924095D01*
X55672180Y-30876476D02*
X55672180Y-30686000D01*
X55624561Y-30590761D01*
X55576942Y-30543142D01*
X55434085Y-30447904D01*
X55243609Y-30400285D01*
X54862657Y-30400285D01*
X54767419Y-30447904D01*
X54719800Y-30495523D01*
X54672180Y-30590761D01*
X54672180Y-30781238D01*
X54719800Y-30876476D01*
X54767419Y-30924095D01*
X54862657Y-30971714D01*
X55100752Y-30971714D01*
X55195990Y-30924095D01*
X55243609Y-30876476D01*
X55291228Y-30781238D01*
X55291228Y-30590761D01*
X55243609Y-30495523D01*
X55195990Y-30447904D01*
X55100752Y-30400285D01*
%TO.C,R10*%
X48096480Y-31828857D02*
X47620290Y-32162190D01*
X48096480Y-32400285D02*
X47096480Y-32400285D01*
X47096480Y-32019333D01*
X47144100Y-31924095D01*
X47191719Y-31876476D01*
X47286957Y-31828857D01*
X47429814Y-31828857D01*
X47525052Y-31876476D01*
X47572671Y-31924095D01*
X47620290Y-32019333D01*
X47620290Y-32400285D01*
X48096480Y-30876476D02*
X48096480Y-31447904D01*
X48096480Y-31162190D02*
X47096480Y-31162190D01*
X47239338Y-31257428D01*
X47334576Y-31352666D01*
X47382195Y-31447904D01*
X47096480Y-30257428D02*
X47096480Y-30162190D01*
X47144100Y-30066952D01*
X47191719Y-30019333D01*
X47286957Y-29971714D01*
X47477433Y-29924095D01*
X47715528Y-29924095D01*
X47906004Y-29971714D01*
X48001242Y-30019333D01*
X48048861Y-30066952D01*
X48096480Y-30162190D01*
X48096480Y-30257428D01*
X48048861Y-30352666D01*
X48001242Y-30400285D01*
X47906004Y-30447904D01*
X47715528Y-30495523D01*
X47477433Y-30495523D01*
X47286957Y-30447904D01*
X47191719Y-30400285D01*
X47144100Y-30352666D01*
X47096480Y-30257428D01*
%TO.C,R12*%
X161743142Y-48882380D02*
X161409809Y-48406190D01*
X161171714Y-48882380D02*
X161171714Y-47882380D01*
X161552666Y-47882380D01*
X161647904Y-47930000D01*
X161695523Y-47977619D01*
X161743142Y-48072857D01*
X161743142Y-48215714D01*
X161695523Y-48310952D01*
X161647904Y-48358571D01*
X161552666Y-48406190D01*
X161171714Y-48406190D01*
X162695523Y-48882380D02*
X162124095Y-48882380D01*
X162409809Y-48882380D02*
X162409809Y-47882380D01*
X162314571Y-48025238D01*
X162219333Y-48120476D01*
X162124095Y-48168095D01*
X163076476Y-47977619D02*
X163124095Y-47930000D01*
X163219333Y-47882380D01*
X163457428Y-47882380D01*
X163552666Y-47930000D01*
X163600285Y-47977619D01*
X163647904Y-48072857D01*
X163647904Y-48168095D01*
X163600285Y-48310952D01*
X163028857Y-48882380D01*
X163647904Y-48882380D01*
%TO.C,R13*%
X187313142Y-71234380D02*
X186979809Y-70758190D01*
X186741714Y-71234380D02*
X186741714Y-70234380D01*
X187122666Y-70234380D01*
X187217904Y-70282000D01*
X187265523Y-70329619D01*
X187313142Y-70424857D01*
X187313142Y-70567714D01*
X187265523Y-70662952D01*
X187217904Y-70710571D01*
X187122666Y-70758190D01*
X186741714Y-70758190D01*
X188265523Y-71234380D02*
X187694095Y-71234380D01*
X187979809Y-71234380D02*
X187979809Y-70234380D01*
X187884571Y-70377238D01*
X187789333Y-70472476D01*
X187694095Y-70520095D01*
X188598857Y-70234380D02*
X189217904Y-70234380D01*
X188884571Y-70615333D01*
X189027428Y-70615333D01*
X189122666Y-70662952D01*
X189170285Y-70710571D01*
X189217904Y-70805809D01*
X189217904Y-71043904D01*
X189170285Y-71139142D01*
X189122666Y-71186761D01*
X189027428Y-71234380D01*
X188741714Y-71234380D01*
X188646476Y-71186761D01*
X188598857Y-71139142D01*
%TO.C,R14*%
X187313142Y-75425380D02*
X186979809Y-74949190D01*
X186741714Y-75425380D02*
X186741714Y-74425380D01*
X187122666Y-74425380D01*
X187217904Y-74473000D01*
X187265523Y-74520619D01*
X187313142Y-74615857D01*
X187313142Y-74758714D01*
X187265523Y-74853952D01*
X187217904Y-74901571D01*
X187122666Y-74949190D01*
X186741714Y-74949190D01*
X188265523Y-75425380D02*
X187694095Y-75425380D01*
X187979809Y-75425380D02*
X187979809Y-74425380D01*
X187884571Y-74568238D01*
X187789333Y-74663476D01*
X187694095Y-74711095D01*
X189122666Y-74758714D02*
X189122666Y-75425380D01*
X188884571Y-74377761D02*
X188646476Y-75092047D01*
X189265523Y-75092047D01*
%TO.C,R15*%
X187313142Y-79616380D02*
X186979809Y-79140190D01*
X186741714Y-79616380D02*
X186741714Y-78616380D01*
X187122666Y-78616380D01*
X187217904Y-78664000D01*
X187265523Y-78711619D01*
X187313142Y-78806857D01*
X187313142Y-78949714D01*
X187265523Y-79044952D01*
X187217904Y-79092571D01*
X187122666Y-79140190D01*
X186741714Y-79140190D01*
X188265523Y-79616380D02*
X187694095Y-79616380D01*
X187979809Y-79616380D02*
X187979809Y-78616380D01*
X187884571Y-78759238D01*
X187789333Y-78854476D01*
X187694095Y-78902095D01*
X189170285Y-78616380D02*
X188694095Y-78616380D01*
X188646476Y-79092571D01*
X188694095Y-79044952D01*
X188789333Y-78997333D01*
X189027428Y-78997333D01*
X189122666Y-79044952D01*
X189170285Y-79092571D01*
X189217904Y-79187809D01*
X189217904Y-79425904D01*
X189170285Y-79521142D01*
X189122666Y-79568761D01*
X189027428Y-79616380D01*
X188789333Y-79616380D01*
X188694095Y-79568761D01*
X188646476Y-79521142D01*
%TO.C,U4*%
X86096880Y-12466104D02*
X86906404Y-12466104D01*
X87001642Y-12418485D01*
X87049261Y-12370866D01*
X87096880Y-12275628D01*
X87096880Y-12085152D01*
X87049261Y-11989914D01*
X87001642Y-11942295D01*
X86906404Y-11894676D01*
X86096880Y-11894676D01*
X86430214Y-10989914D02*
X87096880Y-10989914D01*
X86049261Y-11228009D02*
X86763547Y-11466104D01*
X86763547Y-10847057D01*
%TO.C,U8*%
X48973880Y-12720104D02*
X49783404Y-12720104D01*
X49878642Y-12672485D01*
X49926261Y-12624866D01*
X49973880Y-12529628D01*
X49973880Y-12339152D01*
X49926261Y-12243914D01*
X49878642Y-12196295D01*
X49783404Y-12148676D01*
X48973880Y-12148676D01*
X49402452Y-11529628D02*
X49354833Y-11624866D01*
X49307214Y-11672485D01*
X49211976Y-11720104D01*
X49164357Y-11720104D01*
X49069119Y-11672485D01*
X49021500Y-11624866D01*
X48973880Y-11529628D01*
X48973880Y-11339152D01*
X49021500Y-11243914D01*
X49069119Y-11196295D01*
X49164357Y-11148676D01*
X49211976Y-11148676D01*
X49307214Y-11196295D01*
X49354833Y-11243914D01*
X49402452Y-11339152D01*
X49402452Y-11529628D01*
X49450071Y-11624866D01*
X49497690Y-11672485D01*
X49592928Y-11720104D01*
X49783404Y-11720104D01*
X49878642Y-11672485D01*
X49926261Y-11624866D01*
X49973880Y-11529628D01*
X49973880Y-11339152D01*
X49926261Y-11243914D01*
X49878642Y-11196295D01*
X49783404Y-11148676D01*
X49592928Y-11148676D01*
X49497690Y-11196295D01*
X49450071Y-11243914D01*
X49402452Y-11339152D01*
%TO.C,U9*%
X67261880Y-12720104D02*
X68071404Y-12720104D01*
X68166642Y-12672485D01*
X68214261Y-12624866D01*
X68261880Y-12529628D01*
X68261880Y-12339152D01*
X68214261Y-12243914D01*
X68166642Y-12196295D01*
X68071404Y-12148676D01*
X67261880Y-12148676D01*
X68261880Y-11624866D02*
X68261880Y-11434390D01*
X68214261Y-11339152D01*
X68166642Y-11291533D01*
X68023785Y-11196295D01*
X67833309Y-11148676D01*
X67452357Y-11148676D01*
X67357119Y-11196295D01*
X67309500Y-11243914D01*
X67261880Y-11339152D01*
X67261880Y-11529628D01*
X67309500Y-11624866D01*
X67357119Y-11672485D01*
X67452357Y-11720104D01*
X67690452Y-11720104D01*
X67785690Y-11672485D01*
X67833309Y-11624866D01*
X67880928Y-11529628D01*
X67880928Y-11339152D01*
X67833309Y-11243914D01*
X67785690Y-11196295D01*
X67690452Y-11148676D01*
%TO.C,Q1*%
X40895861Y-94133419D02*
X40800623Y-94085800D01*
X40705385Y-93990561D01*
X40562528Y-93847704D01*
X40467290Y-93800085D01*
X40372052Y-93800085D01*
X40419671Y-94038180D02*
X40324433Y-93990561D01*
X40229195Y-93895323D01*
X40181576Y-93704847D01*
X40181576Y-93371514D01*
X40229195Y-93181038D01*
X40324433Y-93085800D01*
X40419671Y-93038180D01*
X40610147Y-93038180D01*
X40705385Y-93085800D01*
X40800623Y-93181038D01*
X40848242Y-93371514D01*
X40848242Y-93704847D01*
X40800623Y-93895323D01*
X40705385Y-93990561D01*
X40610147Y-94038180D01*
X40419671Y-94038180D01*
X41800623Y-94038180D02*
X41229195Y-94038180D01*
X41514909Y-94038180D02*
X41514909Y-93038180D01*
X41419671Y-93181038D01*
X41324433Y-93276276D01*
X41229195Y-93323895D01*
%TO.C,Q3*%
X53146561Y-94133419D02*
X53051323Y-94085800D01*
X52956085Y-93990561D01*
X52813228Y-93847704D01*
X52717990Y-93800085D01*
X52622752Y-93800085D01*
X52670371Y-94038180D02*
X52575133Y-93990561D01*
X52479895Y-93895323D01*
X52432276Y-93704847D01*
X52432276Y-93371514D01*
X52479895Y-93181038D01*
X52575133Y-93085800D01*
X52670371Y-93038180D01*
X52860847Y-93038180D01*
X52956085Y-93085800D01*
X53051323Y-93181038D01*
X53098942Y-93371514D01*
X53098942Y-93704847D01*
X53051323Y-93895323D01*
X52956085Y-93990561D01*
X52860847Y-94038180D01*
X52670371Y-94038180D01*
X53432276Y-93038180D02*
X54051323Y-93038180D01*
X53717990Y-93419133D01*
X53860847Y-93419133D01*
X53956085Y-93466752D01*
X54003704Y-93514371D01*
X54051323Y-93609609D01*
X54051323Y-93847704D01*
X54003704Y-93942942D01*
X53956085Y-93990561D01*
X53860847Y-94038180D01*
X53575133Y-94038180D01*
X53479895Y-93990561D01*
X53432276Y-93942942D01*
%TO.C,Q4*%
X53146561Y-39613019D02*
X53051323Y-39565400D01*
X52956085Y-39470161D01*
X52813228Y-39327304D01*
X52717990Y-39279685D01*
X52622752Y-39279685D01*
X52670371Y-39517780D02*
X52575133Y-39470161D01*
X52479895Y-39374923D01*
X52432276Y-39184447D01*
X52432276Y-38851114D01*
X52479895Y-38660638D01*
X52575133Y-38565400D01*
X52670371Y-38517780D01*
X52860847Y-38517780D01*
X52956085Y-38565400D01*
X53051323Y-38660638D01*
X53098942Y-38851114D01*
X53098942Y-39184447D01*
X53051323Y-39374923D01*
X52956085Y-39470161D01*
X52860847Y-39517780D01*
X52670371Y-39517780D01*
X53956085Y-38851114D02*
X53956085Y-39517780D01*
X53717990Y-38470161D02*
X53479895Y-39184447D01*
X54098942Y-39184447D01*
%TO.C,Q5*%
X65397261Y-94133419D02*
X65302023Y-94085800D01*
X65206785Y-93990561D01*
X65063928Y-93847704D01*
X64968690Y-93800085D01*
X64873452Y-93800085D01*
X64921071Y-94038180D02*
X64825833Y-93990561D01*
X64730595Y-93895323D01*
X64682976Y-93704847D01*
X64682976Y-93371514D01*
X64730595Y-93181038D01*
X64825833Y-93085800D01*
X64921071Y-93038180D01*
X65111547Y-93038180D01*
X65206785Y-93085800D01*
X65302023Y-93181038D01*
X65349642Y-93371514D01*
X65349642Y-93704847D01*
X65302023Y-93895323D01*
X65206785Y-93990561D01*
X65111547Y-94038180D01*
X64921071Y-94038180D01*
X66254404Y-93038180D02*
X65778214Y-93038180D01*
X65730595Y-93514371D01*
X65778214Y-93466752D01*
X65873452Y-93419133D01*
X66111547Y-93419133D01*
X66206785Y-93466752D01*
X66254404Y-93514371D01*
X66302023Y-93609609D01*
X66302023Y-93847704D01*
X66254404Y-93942942D01*
X66206785Y-93990561D01*
X66111547Y-94038180D01*
X65873452Y-94038180D01*
X65778214Y-93990561D01*
X65730595Y-93942942D01*
%TO.C,Q6*%
X65397261Y-39613019D02*
X65302023Y-39565400D01*
X65206785Y-39470161D01*
X65063928Y-39327304D01*
X64968690Y-39279685D01*
X64873452Y-39279685D01*
X64921071Y-39517780D02*
X64825833Y-39470161D01*
X64730595Y-39374923D01*
X64682976Y-39184447D01*
X64682976Y-38851114D01*
X64730595Y-38660638D01*
X64825833Y-38565400D01*
X64921071Y-38517780D01*
X65111547Y-38517780D01*
X65206785Y-38565400D01*
X65302023Y-38660638D01*
X65349642Y-38851114D01*
X65349642Y-39184447D01*
X65302023Y-39374923D01*
X65206785Y-39470161D01*
X65111547Y-39517780D01*
X64921071Y-39517780D01*
X66206785Y-38517780D02*
X66016309Y-38517780D01*
X65921071Y-38565400D01*
X65873452Y-38613019D01*
X65778214Y-38755876D01*
X65730595Y-38946352D01*
X65730595Y-39327304D01*
X65778214Y-39422542D01*
X65825833Y-39470161D01*
X65921071Y-39517780D01*
X66111547Y-39517780D01*
X66206785Y-39470161D01*
X66254404Y-39422542D01*
X66302023Y-39327304D01*
X66302023Y-39089209D01*
X66254404Y-38993971D01*
X66206785Y-38946352D01*
X66111547Y-38898733D01*
X65921071Y-38898733D01*
X65825833Y-38946352D01*
X65778214Y-38993971D01*
X65730595Y-39089209D01*
%TO.C,C7*%
X162219333Y-41719142D02*
X162171714Y-41766761D01*
X162028857Y-41814380D01*
X161933619Y-41814380D01*
X161790761Y-41766761D01*
X161695523Y-41671523D01*
X161647904Y-41576285D01*
X161600285Y-41385809D01*
X161600285Y-41242952D01*
X161647904Y-41052476D01*
X161695523Y-40957238D01*
X161790761Y-40862000D01*
X161933619Y-40814380D01*
X162028857Y-40814380D01*
X162171714Y-40862000D01*
X162219333Y-40909619D01*
X162552666Y-40814380D02*
X163219333Y-40814380D01*
X162790761Y-41814380D01*
%TO.C,C8*%
X162219333Y-36385142D02*
X162171714Y-36432761D01*
X162028857Y-36480380D01*
X161933619Y-36480380D01*
X161790761Y-36432761D01*
X161695523Y-36337523D01*
X161647904Y-36242285D01*
X161600285Y-36051809D01*
X161600285Y-35908952D01*
X161647904Y-35718476D01*
X161695523Y-35623238D01*
X161790761Y-35528000D01*
X161933619Y-35480380D01*
X162028857Y-35480380D01*
X162171714Y-35528000D01*
X162219333Y-35575619D01*
X162790761Y-35908952D02*
X162695523Y-35861333D01*
X162647904Y-35813714D01*
X162600285Y-35718476D01*
X162600285Y-35670857D01*
X162647904Y-35575619D01*
X162695523Y-35528000D01*
X162790761Y-35480380D01*
X162981238Y-35480380D01*
X163076476Y-35528000D01*
X163124095Y-35575619D01*
X163171714Y-35670857D01*
X163171714Y-35718476D01*
X163124095Y-35813714D01*
X163076476Y-35861333D01*
X162981238Y-35908952D01*
X162790761Y-35908952D01*
X162695523Y-35956571D01*
X162647904Y-36004190D01*
X162600285Y-36099428D01*
X162600285Y-36289904D01*
X162647904Y-36385142D01*
X162695523Y-36432761D01*
X162790761Y-36480380D01*
X162981238Y-36480380D01*
X163076476Y-36432761D01*
X163124095Y-36385142D01*
X163171714Y-36289904D01*
X163171714Y-36099428D01*
X163124095Y-36004190D01*
X163076476Y-35956571D01*
X162981238Y-35908952D01*
%TO.C,C9*%
X162219333Y-31813142D02*
X162171714Y-31860761D01*
X162028857Y-31908380D01*
X161933619Y-31908380D01*
X161790761Y-31860761D01*
X161695523Y-31765523D01*
X161647904Y-31670285D01*
X161600285Y-31479809D01*
X161600285Y-31336952D01*
X161647904Y-31146476D01*
X161695523Y-31051238D01*
X161790761Y-30956000D01*
X161933619Y-30908380D01*
X162028857Y-30908380D01*
X162171714Y-30956000D01*
X162219333Y-31003619D01*
X162695523Y-31908380D02*
X162886000Y-31908380D01*
X162981238Y-31860761D01*
X163028857Y-31813142D01*
X163124095Y-31670285D01*
X163171714Y-31479809D01*
X163171714Y-31098857D01*
X163124095Y-31003619D01*
X163076476Y-30956000D01*
X162981238Y-30908380D01*
X162790761Y-30908380D01*
X162695523Y-30956000D01*
X162647904Y-31003619D01*
X162600285Y-31098857D01*
X162600285Y-31336952D01*
X162647904Y-31432190D01*
X162695523Y-31479809D01*
X162790761Y-31527428D01*
X162981238Y-31527428D01*
X163076476Y-31479809D01*
X163124095Y-31432190D01*
X163171714Y-31336952D01*
%TO.C,C13*%
X161743142Y-26459142D02*
X161695523Y-26506761D01*
X161552666Y-26554380D01*
X161457428Y-26554380D01*
X161314571Y-26506761D01*
X161219333Y-26411523D01*
X161171714Y-26316285D01*
X161124095Y-26125809D01*
X161124095Y-25982952D01*
X161171714Y-25792476D01*
X161219333Y-25697238D01*
X161314571Y-25602000D01*
X161457428Y-25554380D01*
X161552666Y-25554380D01*
X161695523Y-25602000D01*
X161743142Y-25649619D01*
X162695523Y-26554380D02*
X162124095Y-26554380D01*
X162409809Y-26554380D02*
X162409809Y-25554380D01*
X162314571Y-25697238D01*
X162219333Y-25792476D01*
X162124095Y-25840095D01*
X163028857Y-25554380D02*
X163647904Y-25554380D01*
X163314571Y-25935333D01*
X163457428Y-25935333D01*
X163552666Y-25982952D01*
X163600285Y-26030571D01*
X163647904Y-26125809D01*
X163647904Y-26363904D01*
X163600285Y-26459142D01*
X163552666Y-26506761D01*
X163457428Y-26554380D01*
X163171714Y-26554380D01*
X163076476Y-26506761D01*
X163028857Y-26459142D01*
%TO.C,R16*%
X109843142Y-62710380D02*
X109509809Y-62234190D01*
X109271714Y-62710380D02*
X109271714Y-61710380D01*
X109652666Y-61710380D01*
X109747904Y-61758000D01*
X109795523Y-61805619D01*
X109843142Y-61900857D01*
X109843142Y-62043714D01*
X109795523Y-62138952D01*
X109747904Y-62186571D01*
X109652666Y-62234190D01*
X109271714Y-62234190D01*
X110795523Y-62710380D02*
X110224095Y-62710380D01*
X110509809Y-62710380D02*
X110509809Y-61710380D01*
X110414571Y-61853238D01*
X110319333Y-61948476D01*
X110224095Y-61996095D01*
X111652666Y-61710380D02*
X111462190Y-61710380D01*
X111366952Y-61758000D01*
X111319333Y-61805619D01*
X111224095Y-61948476D01*
X111176476Y-62138952D01*
X111176476Y-62519904D01*
X111224095Y-62615142D01*
X111271714Y-62662761D01*
X111366952Y-62710380D01*
X111557428Y-62710380D01*
X111652666Y-62662761D01*
X111700285Y-62615142D01*
X111747904Y-62519904D01*
X111747904Y-62281809D01*
X111700285Y-62186571D01*
X111652666Y-62138952D01*
X111557428Y-62091333D01*
X111366952Y-62091333D01*
X111271714Y-62138952D01*
X111224095Y-62186571D01*
X111176476Y-62281809D01*
%TO.C,C10*%
X50668842Y-85293257D02*
X50716461Y-85340876D01*
X50764080Y-85483733D01*
X50764080Y-85578971D01*
X50716461Y-85721828D01*
X50621223Y-85817066D01*
X50525985Y-85864685D01*
X50335509Y-85912304D01*
X50192652Y-85912304D01*
X50002176Y-85864685D01*
X49906938Y-85817066D01*
X49811700Y-85721828D01*
X49764080Y-85578971D01*
X49764080Y-85483733D01*
X49811700Y-85340876D01*
X49859319Y-85293257D01*
X50764080Y-84340876D02*
X50764080Y-84912304D01*
X50764080Y-84626590D02*
X49764080Y-84626590D01*
X49906938Y-84721828D01*
X50002176Y-84817066D01*
X50049795Y-84912304D01*
X49764080Y-83721828D02*
X49764080Y-83626590D01*
X49811700Y-83531352D01*
X49859319Y-83483733D01*
X49954557Y-83436114D01*
X50145033Y-83388495D01*
X50383128Y-83388495D01*
X50573604Y-83436114D01*
X50668842Y-83483733D01*
X50716461Y-83531352D01*
X50764080Y-83626590D01*
X50764080Y-83721828D01*
X50716461Y-83817066D01*
X50668842Y-83864685D01*
X50573604Y-83912304D01*
X50383128Y-83959923D01*
X50145033Y-83959923D01*
X49954557Y-83912304D01*
X49859319Y-83864685D01*
X49811700Y-83817066D01*
X49764080Y-83721828D01*
%TO.C,C11*%
X64658842Y-85293257D02*
X64706461Y-85340876D01*
X64754080Y-85483733D01*
X64754080Y-85578971D01*
X64706461Y-85721828D01*
X64611223Y-85817066D01*
X64515985Y-85864685D01*
X64325509Y-85912304D01*
X64182652Y-85912304D01*
X63992176Y-85864685D01*
X63896938Y-85817066D01*
X63801700Y-85721828D01*
X63754080Y-85578971D01*
X63754080Y-85483733D01*
X63801700Y-85340876D01*
X63849319Y-85293257D01*
X64754080Y-84340876D02*
X64754080Y-84912304D01*
X64754080Y-84626590D02*
X63754080Y-84626590D01*
X63896938Y-84721828D01*
X63992176Y-84817066D01*
X64039795Y-84912304D01*
X64754080Y-83388495D02*
X64754080Y-83959923D01*
X64754080Y-83674209D02*
X63754080Y-83674209D01*
X63896938Y-83769447D01*
X63992176Y-83864685D01*
X64039795Y-83959923D01*
%TO.C,C12*%
X78648842Y-85293257D02*
X78696461Y-85340876D01*
X78744080Y-85483733D01*
X78744080Y-85578971D01*
X78696461Y-85721828D01*
X78601223Y-85817066D01*
X78505985Y-85864685D01*
X78315509Y-85912304D01*
X78172652Y-85912304D01*
X77982176Y-85864685D01*
X77886938Y-85817066D01*
X77791700Y-85721828D01*
X77744080Y-85578971D01*
X77744080Y-85483733D01*
X77791700Y-85340876D01*
X77839319Y-85293257D01*
X78744080Y-84340876D02*
X78744080Y-84912304D01*
X78744080Y-84626590D02*
X77744080Y-84626590D01*
X77886938Y-84721828D01*
X77982176Y-84817066D01*
X78029795Y-84912304D01*
X77839319Y-83959923D02*
X77791700Y-83912304D01*
X77744080Y-83817066D01*
X77744080Y-83578971D01*
X77791700Y-83483733D01*
X77839319Y-83436114D01*
X77934557Y-83388495D01*
X78029795Y-83388495D01*
X78172652Y-83436114D01*
X78744080Y-84007542D01*
X78744080Y-83388495D01*
%TO.C,C5*%
X162219333Y-71210342D02*
X162171714Y-71257961D01*
X162028857Y-71305580D01*
X161933619Y-71305580D01*
X161790761Y-71257961D01*
X161695523Y-71162723D01*
X161647904Y-71067485D01*
X161600285Y-70877009D01*
X161600285Y-70734152D01*
X161647904Y-70543676D01*
X161695523Y-70448438D01*
X161790761Y-70353200D01*
X161933619Y-70305580D01*
X162028857Y-70305580D01*
X162171714Y-70353200D01*
X162219333Y-70400819D01*
X163124095Y-70305580D02*
X162647904Y-70305580D01*
X162600285Y-70781771D01*
X162647904Y-70734152D01*
X162743142Y-70686533D01*
X162981238Y-70686533D01*
X163076476Y-70734152D01*
X163124095Y-70781771D01*
X163171714Y-70877009D01*
X163171714Y-71115104D01*
X163124095Y-71210342D01*
X163076476Y-71257961D01*
X162981238Y-71305580D01*
X162743142Y-71305580D01*
X162647904Y-71257961D01*
X162600285Y-71210342D01*
%TO.C,D4*%
X161647904Y-69978380D02*
X161647904Y-68978380D01*
X161886000Y-68978380D01*
X162028857Y-69026000D01*
X162124095Y-69121238D01*
X162171714Y-69216476D01*
X162219333Y-69406952D01*
X162219333Y-69549809D01*
X162171714Y-69740285D01*
X162124095Y-69835523D01*
X162028857Y-69930761D01*
X161886000Y-69978380D01*
X161647904Y-69978380D01*
X163076476Y-69311714D02*
X163076476Y-69978380D01*
X162838380Y-68930761D02*
X162600285Y-69645047D01*
X163219333Y-69645047D01*
X167204095Y-69608380D02*
X167204095Y-68608380D01*
X167775523Y-69608380D02*
X167346952Y-69036952D01*
X167775523Y-68608380D02*
X167204095Y-69179809D01*
%TO.C,D5*%
X161647904Y-60334780D02*
X161647904Y-59334780D01*
X161886000Y-59334780D01*
X162028857Y-59382400D01*
X162124095Y-59477638D01*
X162171714Y-59572876D01*
X162219333Y-59763352D01*
X162219333Y-59906209D01*
X162171714Y-60096685D01*
X162124095Y-60191923D01*
X162028857Y-60287161D01*
X161886000Y-60334780D01*
X161647904Y-60334780D01*
X163124095Y-59334780D02*
X162647904Y-59334780D01*
X162600285Y-59810971D01*
X162647904Y-59763352D01*
X162743142Y-59715733D01*
X162981238Y-59715733D01*
X163076476Y-59763352D01*
X163124095Y-59810971D01*
X163171714Y-59906209D01*
X163171714Y-60144304D01*
X163124095Y-60239542D01*
X163076476Y-60287161D01*
X162981238Y-60334780D01*
X162743142Y-60334780D01*
X162647904Y-60287161D01*
X162600285Y-60239542D01*
X157044095Y-60704780D02*
X157044095Y-59704780D01*
X157615523Y-60704780D02*
X157186952Y-60133352D01*
X157615523Y-59704780D02*
X157044095Y-60276209D01*
%TO.C,D6*%
X161647904Y-84636380D02*
X161647904Y-83636380D01*
X161886000Y-83636380D01*
X162028857Y-83684000D01*
X162124095Y-83779238D01*
X162171714Y-83874476D01*
X162219333Y-84064952D01*
X162219333Y-84207809D01*
X162171714Y-84398285D01*
X162124095Y-84493523D01*
X162028857Y-84588761D01*
X161886000Y-84636380D01*
X161647904Y-84636380D01*
X163076476Y-83636380D02*
X162886000Y-83636380D01*
X162790761Y-83684000D01*
X162743142Y-83731619D01*
X162647904Y-83874476D01*
X162600285Y-84064952D01*
X162600285Y-84445904D01*
X162647904Y-84541142D01*
X162695523Y-84588761D01*
X162790761Y-84636380D01*
X162981238Y-84636380D01*
X163076476Y-84588761D01*
X163124095Y-84541142D01*
X163171714Y-84445904D01*
X163171714Y-84207809D01*
X163124095Y-84112571D01*
X163076476Y-84064952D01*
X162981238Y-84017333D01*
X162790761Y-84017333D01*
X162695523Y-84064952D01*
X162647904Y-84112571D01*
X162600285Y-84207809D01*
X158314095Y-84956380D02*
X158314095Y-83956380D01*
X158885523Y-84956380D02*
X158456952Y-84384952D01*
X158885523Y-83956380D02*
X158314095Y-84527809D01*
%TO.C,D7*%
X150137904Y-78596380D02*
X150137904Y-77596380D01*
X150376000Y-77596380D01*
X150518857Y-77644000D01*
X150614095Y-77739238D01*
X150661714Y-77834476D01*
X150709333Y-78024952D01*
X150709333Y-78167809D01*
X150661714Y-78358285D01*
X150614095Y-78453523D01*
X150518857Y-78548761D01*
X150376000Y-78596380D01*
X150137904Y-78596380D01*
X151042666Y-77596380D02*
X151709333Y-77596380D01*
X151280761Y-78596380D01*
X146804095Y-78916380D02*
X146804095Y-77916380D01*
X147375523Y-78916380D02*
X146946952Y-78344952D01*
X147375523Y-77916380D02*
X146804095Y-78487809D01*
%TO.C,D8*%
X150025904Y-77150980D02*
X150025904Y-76150980D01*
X150264000Y-76150980D01*
X150406857Y-76198600D01*
X150502095Y-76293838D01*
X150549714Y-76389076D01*
X150597333Y-76579552D01*
X150597333Y-76722409D01*
X150549714Y-76912885D01*
X150502095Y-77008123D01*
X150406857Y-77103361D01*
X150264000Y-77150980D01*
X150025904Y-77150980D01*
X151168761Y-76579552D02*
X151073523Y-76531933D01*
X151025904Y-76484314D01*
X150978285Y-76389076D01*
X150978285Y-76341457D01*
X151025904Y-76246219D01*
X151073523Y-76198600D01*
X151168761Y-76150980D01*
X151359238Y-76150980D01*
X151454476Y-76198600D01*
X151502095Y-76246219D01*
X151549714Y-76341457D01*
X151549714Y-76389076D01*
X151502095Y-76484314D01*
X151454476Y-76531933D01*
X151359238Y-76579552D01*
X151168761Y-76579552D01*
X151073523Y-76627171D01*
X151025904Y-76674790D01*
X150978285Y-76770028D01*
X150978285Y-76960504D01*
X151025904Y-77055742D01*
X151073523Y-77103361D01*
X151168761Y-77150980D01*
X151359238Y-77150980D01*
X151454476Y-77103361D01*
X151502095Y-77055742D01*
X151549714Y-76960504D01*
X151549714Y-76770028D01*
X151502095Y-76674790D01*
X151454476Y-76627171D01*
X151359238Y-76579552D01*
X154312095Y-76830980D02*
X154312095Y-75830980D01*
X154883523Y-76830980D02*
X154454952Y-76259552D01*
X154883523Y-75830980D02*
X154312095Y-76402409D01*
%TO.C,C6*%
X136327142Y-77458666D02*
X136374761Y-77506285D01*
X136422380Y-77649142D01*
X136422380Y-77744380D01*
X136374761Y-77887238D01*
X136279523Y-77982476D01*
X136184285Y-78030095D01*
X135993809Y-78077714D01*
X135850952Y-78077714D01*
X135660476Y-78030095D01*
X135565238Y-77982476D01*
X135470000Y-77887238D01*
X135422380Y-77744380D01*
X135422380Y-77649142D01*
X135470000Y-77506285D01*
X135517619Y-77458666D01*
X135422380Y-76601523D02*
X135422380Y-76792000D01*
X135470000Y-76887238D01*
X135517619Y-76934857D01*
X135660476Y-77030095D01*
X135850952Y-77077714D01*
X136231904Y-77077714D01*
X136327142Y-77030095D01*
X136374761Y-76982476D01*
X136422380Y-76887238D01*
X136422380Y-76696761D01*
X136374761Y-76601523D01*
X136327142Y-76553904D01*
X136231904Y-76506285D01*
X135993809Y-76506285D01*
X135898571Y-76553904D01*
X135850952Y-76601523D01*
X135803333Y-76696761D01*
X135803333Y-76887238D01*
X135850952Y-76982476D01*
X135898571Y-77030095D01*
X135993809Y-77077714D01*
%TO.C,R18*%
X161743142Y-79285980D02*
X161409809Y-78809790D01*
X161171714Y-79285980D02*
X161171714Y-78285980D01*
X161552666Y-78285980D01*
X161647904Y-78333600D01*
X161695523Y-78381219D01*
X161743142Y-78476457D01*
X161743142Y-78619314D01*
X161695523Y-78714552D01*
X161647904Y-78762171D01*
X161552666Y-78809790D01*
X161171714Y-78809790D01*
X162695523Y-79285980D02*
X162124095Y-79285980D01*
X162409809Y-79285980D02*
X162409809Y-78285980D01*
X162314571Y-78428838D01*
X162219333Y-78524076D01*
X162124095Y-78571695D01*
X163266952Y-78714552D02*
X163171714Y-78666933D01*
X163124095Y-78619314D01*
X163076476Y-78524076D01*
X163076476Y-78476457D01*
X163124095Y-78381219D01*
X163171714Y-78333600D01*
X163266952Y-78285980D01*
X163457428Y-78285980D01*
X163552666Y-78333600D01*
X163600285Y-78381219D01*
X163647904Y-78476457D01*
X163647904Y-78524076D01*
X163600285Y-78619314D01*
X163552666Y-78666933D01*
X163457428Y-78714552D01*
X163266952Y-78714552D01*
X163171714Y-78762171D01*
X163124095Y-78809790D01*
X163076476Y-78905028D01*
X163076476Y-79095504D01*
X163124095Y-79190742D01*
X163171714Y-79238361D01*
X163266952Y-79285980D01*
X163457428Y-79285980D01*
X163552666Y-79238361D01*
X163600285Y-79190742D01*
X163647904Y-79095504D01*
X163647904Y-78905028D01*
X163600285Y-78809790D01*
X163552666Y-78762171D01*
X163457428Y-78714552D01*
%TO.C,R19*%
X122792380Y-78818857D02*
X122316190Y-79152190D01*
X122792380Y-79390285D02*
X121792380Y-79390285D01*
X121792380Y-79009333D01*
X121840000Y-78914095D01*
X121887619Y-78866476D01*
X121982857Y-78818857D01*
X122125714Y-78818857D01*
X122220952Y-78866476D01*
X122268571Y-78914095D01*
X122316190Y-79009333D01*
X122316190Y-79390285D01*
X122792380Y-77866476D02*
X122792380Y-78437904D01*
X122792380Y-78152190D02*
X121792380Y-78152190D01*
X121935238Y-78247428D01*
X122030476Y-78342666D01*
X122078095Y-78437904D01*
X122792380Y-77390285D02*
X122792380Y-77199809D01*
X122744761Y-77104571D01*
X122697142Y-77056952D01*
X122554285Y-76961714D01*
X122363809Y-76914095D01*
X121982857Y-76914095D01*
X121887619Y-76961714D01*
X121840000Y-77009333D01*
X121792380Y-77104571D01*
X121792380Y-77295047D01*
X121840000Y-77390285D01*
X121887619Y-77437904D01*
X121982857Y-77485523D01*
X122220952Y-77485523D01*
X122316190Y-77437904D01*
X122363809Y-77390285D01*
X122411428Y-77295047D01*
X122411428Y-77104571D01*
X122363809Y-77009333D01*
X122316190Y-76961714D01*
X122220952Y-76914095D01*
%TO.C,R20*%
X109843142Y-89634380D02*
X109509809Y-89158190D01*
X109271714Y-89634380D02*
X109271714Y-88634380D01*
X109652666Y-88634380D01*
X109747904Y-88682000D01*
X109795523Y-88729619D01*
X109843142Y-88824857D01*
X109843142Y-88967714D01*
X109795523Y-89062952D01*
X109747904Y-89110571D01*
X109652666Y-89158190D01*
X109271714Y-89158190D01*
X110224095Y-88729619D02*
X110271714Y-88682000D01*
X110366952Y-88634380D01*
X110605047Y-88634380D01*
X110700285Y-88682000D01*
X110747904Y-88729619D01*
X110795523Y-88824857D01*
X110795523Y-88920095D01*
X110747904Y-89062952D01*
X110176476Y-89634380D01*
X110795523Y-89634380D01*
X111414571Y-88634380D02*
X111509809Y-88634380D01*
X111605047Y-88682000D01*
X111652666Y-88729619D01*
X111700285Y-88824857D01*
X111747904Y-89015333D01*
X111747904Y-89253428D01*
X111700285Y-89443904D01*
X111652666Y-89539142D01*
X111605047Y-89586761D01*
X111509809Y-89634380D01*
X111414571Y-89634380D01*
X111319333Y-89586761D01*
X111271714Y-89539142D01*
X111224095Y-89443904D01*
X111176476Y-89253428D01*
X111176476Y-89015333D01*
X111224095Y-88824857D01*
X111271714Y-88729619D01*
X111319333Y-88682000D01*
X111414571Y-88634380D01*
%TO.C,R21*%
X95020380Y-78818857D02*
X94544190Y-79152190D01*
X95020380Y-79390285D02*
X94020380Y-79390285D01*
X94020380Y-79009333D01*
X94068000Y-78914095D01*
X94115619Y-78866476D01*
X94210857Y-78818857D01*
X94353714Y-78818857D01*
X94448952Y-78866476D01*
X94496571Y-78914095D01*
X94544190Y-79009333D01*
X94544190Y-79390285D01*
X94115619Y-78437904D02*
X94068000Y-78390285D01*
X94020380Y-78295047D01*
X94020380Y-78056952D01*
X94068000Y-77961714D01*
X94115619Y-77914095D01*
X94210857Y-77866476D01*
X94306095Y-77866476D01*
X94448952Y-77914095D01*
X95020380Y-78485523D01*
X95020380Y-77866476D01*
X95020380Y-76914095D02*
X95020380Y-77485523D01*
X95020380Y-77199809D02*
X94020380Y-77199809D01*
X94163238Y-77295047D01*
X94258476Y-77390285D01*
X94306095Y-77485523D01*
%TO.C,R22*%
X99592380Y-78818857D02*
X99116190Y-79152190D01*
X99592380Y-79390285D02*
X98592380Y-79390285D01*
X98592380Y-79009333D01*
X98640000Y-78914095D01*
X98687619Y-78866476D01*
X98782857Y-78818857D01*
X98925714Y-78818857D01*
X99020952Y-78866476D01*
X99068571Y-78914095D01*
X99116190Y-79009333D01*
X99116190Y-79390285D01*
X98687619Y-78437904D02*
X98640000Y-78390285D01*
X98592380Y-78295047D01*
X98592380Y-78056952D01*
X98640000Y-77961714D01*
X98687619Y-77914095D01*
X98782857Y-77866476D01*
X98878095Y-77866476D01*
X99020952Y-77914095D01*
X99592380Y-78485523D01*
X99592380Y-77866476D01*
X98687619Y-77485523D02*
X98640000Y-77437904D01*
X98592380Y-77342666D01*
X98592380Y-77104571D01*
X98640000Y-77009333D01*
X98687619Y-76961714D01*
X98782857Y-76914095D01*
X98878095Y-76914095D01*
X99020952Y-76961714D01*
X99592380Y-77533142D01*
X99592380Y-76914095D01*
%TO.C,R23*%
X121436380Y-78818857D02*
X120960190Y-79152190D01*
X121436380Y-79390285D02*
X120436380Y-79390285D01*
X120436380Y-79009333D01*
X120484000Y-78914095D01*
X120531619Y-78866476D01*
X120626857Y-78818857D01*
X120769714Y-78818857D01*
X120864952Y-78866476D01*
X120912571Y-78914095D01*
X120960190Y-79009333D01*
X120960190Y-79390285D01*
X120531619Y-78437904D02*
X120484000Y-78390285D01*
X120436380Y-78295047D01*
X120436380Y-78056952D01*
X120484000Y-77961714D01*
X120531619Y-77914095D01*
X120626857Y-77866476D01*
X120722095Y-77866476D01*
X120864952Y-77914095D01*
X121436380Y-78485523D01*
X121436380Y-77866476D01*
X120436380Y-77533142D02*
X120436380Y-76914095D01*
X120817333Y-77247428D01*
X120817333Y-77104571D01*
X120864952Y-77009333D01*
X120912571Y-76961714D01*
X121007809Y-76914095D01*
X121245904Y-76914095D01*
X121341142Y-76961714D01*
X121388761Y-77009333D01*
X121436380Y-77104571D01*
X121436380Y-77390285D01*
X121388761Y-77485523D01*
X121341142Y-77533142D01*
%TO.C,R24*%
X104164380Y-78818857D02*
X103688190Y-79152190D01*
X104164380Y-79390285D02*
X103164380Y-79390285D01*
X103164380Y-79009333D01*
X103212000Y-78914095D01*
X103259619Y-78866476D01*
X103354857Y-78818857D01*
X103497714Y-78818857D01*
X103592952Y-78866476D01*
X103640571Y-78914095D01*
X103688190Y-79009333D01*
X103688190Y-79390285D01*
X103259619Y-78437904D02*
X103212000Y-78390285D01*
X103164380Y-78295047D01*
X103164380Y-78056952D01*
X103212000Y-77961714D01*
X103259619Y-77914095D01*
X103354857Y-77866476D01*
X103450095Y-77866476D01*
X103592952Y-77914095D01*
X104164380Y-78485523D01*
X104164380Y-77866476D01*
X103497714Y-77009333D02*
X104164380Y-77009333D01*
X103116761Y-77247428D02*
X103831047Y-77485523D01*
X103831047Y-76866476D01*
%TO.C,U2*%
X109739095Y-83758380D02*
X109739095Y-84567904D01*
X109786714Y-84663142D01*
X109834333Y-84710761D01*
X109929571Y-84758380D01*
X110120047Y-84758380D01*
X110215285Y-84710761D01*
X110262904Y-84663142D01*
X110310523Y-84567904D01*
X110310523Y-83758380D01*
X110739095Y-83853619D02*
X110786714Y-83806000D01*
X110881952Y-83758380D01*
X111120047Y-83758380D01*
X111215285Y-83806000D01*
X111262904Y-83853619D01*
X111310523Y-83948857D01*
X111310523Y-84044095D01*
X111262904Y-84186952D01*
X110691476Y-84758380D01*
X111310523Y-84758380D01*
%TO.C,R17*%
X161743142Y-58448380D02*
X161409809Y-57972190D01*
X161171714Y-58448380D02*
X161171714Y-57448380D01*
X161552666Y-57448380D01*
X161647904Y-57496000D01*
X161695523Y-57543619D01*
X161743142Y-57638857D01*
X161743142Y-57781714D01*
X161695523Y-57876952D01*
X161647904Y-57924571D01*
X161552666Y-57972190D01*
X161171714Y-57972190D01*
X162695523Y-58448380D02*
X162124095Y-58448380D01*
X162409809Y-58448380D02*
X162409809Y-57448380D01*
X162314571Y-57591238D01*
X162219333Y-57686476D01*
X162124095Y-57734095D01*
X163028857Y-57448380D02*
X163695523Y-57448380D01*
X163266952Y-58448380D01*
%TO.C,D9*%
X7382080Y-31924095D02*
X6382080Y-31924095D01*
X6382080Y-31686000D01*
X6429700Y-31543142D01*
X6524938Y-31447904D01*
X6620176Y-31400285D01*
X6810652Y-31352666D01*
X6953509Y-31352666D01*
X7143985Y-31400285D01*
X7239223Y-31447904D01*
X7334461Y-31543142D01*
X7382080Y-31686000D01*
X7382080Y-31924095D01*
X7382080Y-30876476D02*
X7382080Y-30686000D01*
X7334461Y-30590761D01*
X7286842Y-30543142D01*
X7143985Y-30447904D01*
X6953509Y-30400285D01*
X6572557Y-30400285D01*
X6477319Y-30447904D01*
X6429700Y-30495523D01*
X6382080Y-30590761D01*
X6382080Y-30781238D01*
X6429700Y-30876476D01*
X6477319Y-30924095D01*
X6572557Y-30971714D01*
X6810652Y-30971714D01*
X6905890Y-30924095D01*
X6953509Y-30876476D01*
X7001128Y-30781238D01*
X7001128Y-30590761D01*
X6953509Y-30495523D01*
X6905890Y-30447904D01*
X6810652Y-30400285D01*
X7062080Y-27637904D02*
X6062080Y-27637904D01*
X7062080Y-27066476D02*
X6490652Y-27495047D01*
X6062080Y-27066476D02*
X6633509Y-27637904D01*
%TO.C,K1*%
X35312380Y-75372695D02*
X34312380Y-75372695D01*
X35312380Y-74801266D02*
X34740952Y-75229838D01*
X34312380Y-74801266D02*
X34883809Y-75372695D01*
X35312380Y-73848885D02*
X35312380Y-74420314D01*
X35312380Y-74134600D02*
X34312380Y-74134600D01*
X34455238Y-74229838D01*
X34550476Y-74325076D01*
X34598095Y-74420314D01*
%TO.C,Q7*%
X19966761Y-23863619D02*
X19871523Y-23816000D01*
X19776285Y-23720761D01*
X19633428Y-23577904D01*
X19538190Y-23530285D01*
X19442952Y-23530285D01*
X19490571Y-23768380D02*
X19395333Y-23720761D01*
X19300095Y-23625523D01*
X19252476Y-23435047D01*
X19252476Y-23101714D01*
X19300095Y-22911238D01*
X19395333Y-22816000D01*
X19490571Y-22768380D01*
X19681047Y-22768380D01*
X19776285Y-22816000D01*
X19871523Y-22911238D01*
X19919142Y-23101714D01*
X19919142Y-23435047D01*
X19871523Y-23625523D01*
X19776285Y-23720761D01*
X19681047Y-23768380D01*
X19490571Y-23768380D01*
X20252476Y-22768380D02*
X20919142Y-22768380D01*
X20490571Y-23768380D01*
%TO.C,R25*%
X10217880Y-31828857D02*
X9741690Y-32162190D01*
X10217880Y-32400285D02*
X9217880Y-32400285D01*
X9217880Y-32019333D01*
X9265500Y-31924095D01*
X9313119Y-31876476D01*
X9408357Y-31828857D01*
X9551214Y-31828857D01*
X9646452Y-31876476D01*
X9694071Y-31924095D01*
X9741690Y-32019333D01*
X9741690Y-32400285D01*
X9313119Y-31447904D02*
X9265500Y-31400285D01*
X9217880Y-31305047D01*
X9217880Y-31066952D01*
X9265500Y-30971714D01*
X9313119Y-30924095D01*
X9408357Y-30876476D01*
X9503595Y-30876476D01*
X9646452Y-30924095D01*
X10217880Y-31495523D01*
X10217880Y-30876476D01*
X9217880Y-29971714D02*
X9217880Y-30447904D01*
X9694071Y-30495523D01*
X9646452Y-30447904D01*
X9598833Y-30352666D01*
X9598833Y-30114571D01*
X9646452Y-30019333D01*
X9694071Y-29971714D01*
X9789309Y-29924095D01*
X10027404Y-29924095D01*
X10122642Y-29971714D01*
X10170261Y-30019333D01*
X10217880Y-30114571D01*
X10217880Y-30352666D01*
X10170261Y-30447904D01*
X10122642Y-30495523D01*
%TO.C,R26*%
X109843142Y-67282380D02*
X109509809Y-66806190D01*
X109271714Y-67282380D02*
X109271714Y-66282380D01*
X109652666Y-66282380D01*
X109747904Y-66330000D01*
X109795523Y-66377619D01*
X109843142Y-66472857D01*
X109843142Y-66615714D01*
X109795523Y-66710952D01*
X109747904Y-66758571D01*
X109652666Y-66806190D01*
X109271714Y-66806190D01*
X110224095Y-66377619D02*
X110271714Y-66330000D01*
X110366952Y-66282380D01*
X110605047Y-66282380D01*
X110700285Y-66330000D01*
X110747904Y-66377619D01*
X110795523Y-66472857D01*
X110795523Y-66568095D01*
X110747904Y-66710952D01*
X110176476Y-67282380D01*
X110795523Y-67282380D01*
X111652666Y-66282380D02*
X111462190Y-66282380D01*
X111366952Y-66330000D01*
X111319333Y-66377619D01*
X111224095Y-66520476D01*
X111176476Y-66710952D01*
X111176476Y-67091904D01*
X111224095Y-67187142D01*
X111271714Y-67234761D01*
X111366952Y-67282380D01*
X111557428Y-67282380D01*
X111652666Y-67234761D01*
X111700285Y-67187142D01*
X111747904Y-67091904D01*
X111747904Y-66853809D01*
X111700285Y-66758571D01*
X111652666Y-66710952D01*
X111557428Y-66663333D01*
X111366952Y-66663333D01*
X111271714Y-66710952D01*
X111224095Y-66758571D01*
X111176476Y-66853809D01*
%TO.C,R27*%
X109843142Y-68638380D02*
X109509809Y-68162190D01*
X109271714Y-68638380D02*
X109271714Y-67638380D01*
X109652666Y-67638380D01*
X109747904Y-67686000D01*
X109795523Y-67733619D01*
X109843142Y-67828857D01*
X109843142Y-67971714D01*
X109795523Y-68066952D01*
X109747904Y-68114571D01*
X109652666Y-68162190D01*
X109271714Y-68162190D01*
X110224095Y-67733619D02*
X110271714Y-67686000D01*
X110366952Y-67638380D01*
X110605047Y-67638380D01*
X110700285Y-67686000D01*
X110747904Y-67733619D01*
X110795523Y-67828857D01*
X110795523Y-67924095D01*
X110747904Y-68066952D01*
X110176476Y-68638380D01*
X110795523Y-68638380D01*
X111128857Y-67638380D02*
X111795523Y-67638380D01*
X111366952Y-68638380D01*
%TO.C,R28*%
X161743142Y-43548380D02*
X161409809Y-43072190D01*
X161171714Y-43548380D02*
X161171714Y-42548380D01*
X161552666Y-42548380D01*
X161647904Y-42596000D01*
X161695523Y-42643619D01*
X161743142Y-42738857D01*
X161743142Y-42881714D01*
X161695523Y-42976952D01*
X161647904Y-43024571D01*
X161552666Y-43072190D01*
X161171714Y-43072190D01*
X162124095Y-42643619D02*
X162171714Y-42596000D01*
X162266952Y-42548380D01*
X162505047Y-42548380D01*
X162600285Y-42596000D01*
X162647904Y-42643619D01*
X162695523Y-42738857D01*
X162695523Y-42834095D01*
X162647904Y-42976952D01*
X162076476Y-43548380D01*
X162695523Y-43548380D01*
X163266952Y-42976952D02*
X163171714Y-42929333D01*
X163124095Y-42881714D01*
X163076476Y-42786476D01*
X163076476Y-42738857D01*
X163124095Y-42643619D01*
X163171714Y-42596000D01*
X163266952Y-42548380D01*
X163457428Y-42548380D01*
X163552666Y-42596000D01*
X163600285Y-42643619D01*
X163647904Y-42738857D01*
X163647904Y-42786476D01*
X163600285Y-42881714D01*
X163552666Y-42929333D01*
X163457428Y-42976952D01*
X163266952Y-42976952D01*
X163171714Y-43024571D01*
X163124095Y-43072190D01*
X163076476Y-43167428D01*
X163076476Y-43357904D01*
X163124095Y-43453142D01*
X163171714Y-43500761D01*
X163266952Y-43548380D01*
X163457428Y-43548380D01*
X163552666Y-43500761D01*
X163600285Y-43453142D01*
X163647904Y-43357904D01*
X163647904Y-43167428D01*
X163600285Y-43072190D01*
X163552666Y-43024571D01*
X163457428Y-42976952D01*
%TO.C,J2*%
X203724380Y-46053333D02*
X204438666Y-46053333D01*
X204581523Y-46100952D01*
X204676761Y-46196190D01*
X204724380Y-46339047D01*
X204724380Y-46434285D01*
X203819619Y-45624761D02*
X203772000Y-45577142D01*
X203724380Y-45481904D01*
X203724380Y-45243809D01*
X203772000Y-45148571D01*
X203819619Y-45100952D01*
X203914857Y-45053333D01*
X204010095Y-45053333D01*
X204152952Y-45100952D01*
X204724380Y-45672380D01*
X204724380Y-45053333D01*
%TO.C,R29*%
X179277142Y-37822380D02*
X178943809Y-37346190D01*
X178705714Y-37822380D02*
X178705714Y-36822380D01*
X179086666Y-36822380D01*
X179181904Y-36870000D01*
X179229523Y-36917619D01*
X179277142Y-37012857D01*
X179277142Y-37155714D01*
X179229523Y-37250952D01*
X179181904Y-37298571D01*
X179086666Y-37346190D01*
X178705714Y-37346190D01*
X179658095Y-36917619D02*
X179705714Y-36870000D01*
X179800952Y-36822380D01*
X180039047Y-36822380D01*
X180134285Y-36870000D01*
X180181904Y-36917619D01*
X180229523Y-37012857D01*
X180229523Y-37108095D01*
X180181904Y-37250952D01*
X179610476Y-37822380D01*
X180229523Y-37822380D01*
X180705714Y-37822380D02*
X180896190Y-37822380D01*
X180991428Y-37774761D01*
X181039047Y-37727142D01*
X181134285Y-37584285D01*
X181181904Y-37393809D01*
X181181904Y-37012857D01*
X181134285Y-36917619D01*
X181086666Y-36870000D01*
X180991428Y-36822380D01*
X180800952Y-36822380D01*
X180705714Y-36870000D01*
X180658095Y-36917619D01*
X180610476Y-37012857D01*
X180610476Y-37250952D01*
X180658095Y-37346190D01*
X180705714Y-37393809D01*
X180800952Y-37441428D01*
X180991428Y-37441428D01*
X181086666Y-37393809D01*
X181134285Y-37346190D01*
X181181904Y-37250952D01*
%TD*%
M02*
