%TF.GenerationSoftware,KiCad,Pcbnew,(5.1.9)-1*%
%TF.CreationDate,2021-04-29T12:36:39-05:00*%
%TF.ProjectId,controller_bldc,636f6e74-726f-46c6-9c65-725f626c6463,rev?*%
%TF.SameCoordinates,Original*%
%TF.FileFunction,Soldermask,Top*%
%TF.FilePolarity,Negative*%
%FSLAX46Y46*%
G04 Gerber Fmt 4.6, Leading zero omitted, Abs format (unit mm)*
G04 Created by KiCad (PCBNEW (5.1.9)-1) date 2021-04-29 12:36:39*
%MOMM*%
%LPD*%
G01*
G04 APERTURE LIST*
%ADD10C,2.000000*%
%ADD11O,2.000000X2.000000*%
%ADD12O,6.000000X7.000000*%
%ADD13O,5.000000X7.000000*%
%ADD14R,2.000000X2.000000*%
%ADD15O,6.000000X6.000000*%
%ADD16C,5.000000*%
%ADD17C,1.524000*%
%ADD18R,1.905000X2.000000*%
%ADD19O,1.905000X2.000000*%
%ADD20C,1.600000*%
%ADD21R,1.600000X1.600000*%
%ADD22O,1.600000X1.600000*%
%ADD23O,2.190000X1.740000*%
%ADD24R,2.200000X2.200000*%
%ADD25O,2.200000X2.200000*%
%ADD26R,2.400000X1.600000*%
%ADD27O,2.400000X1.600000*%
%ADD28C,3.000000*%
%ADD29O,1.050000X1.500000*%
%ADD30R,1.050000X1.500000*%
G04 APERTURE END LIST*
D10*
%TO.C,R11*%
X77212000Y-66492000D03*
D11*
X77212000Y-76652000D03*
%TD*%
%TO.C,J9*%
G36*
G01*
X34380800Y-99585400D02*
X34380800Y-94775400D01*
G75*
G02*
X34975800Y-94180400I595000J0D01*
G01*
X38785800Y-94180400D01*
G75*
G02*
X39380800Y-94775400I0J-595000D01*
G01*
X39380800Y-99585400D01*
G75*
G02*
X38785800Y-100180400I-595000J0D01*
G01*
X34975800Y-100180400D01*
G75*
G02*
X34380800Y-99585400I0J595000D01*
G01*
G37*
D12*
X48880800Y-97180400D03*
X60880800Y-97180400D03*
%TD*%
D13*
%TO.C,SW1*%
X9245400Y-113025000D03*
G36*
G01*
X18745400Y-110245000D02*
X18745400Y-115805000D01*
G75*
G02*
X18025400Y-116525000I-720000J0D01*
G01*
X14465400Y-116525000D01*
G75*
G02*
X13745400Y-115805000I0J720000D01*
G01*
X13745400Y-110245000D01*
G75*
G02*
X14465400Y-109525000I720000J0D01*
G01*
X18025400Y-109525000D01*
G75*
G02*
X18745400Y-110245000I0J-720000D01*
G01*
G37*
%TD*%
D10*
%TO.C,U1*%
X128291400Y-14166800D03*
X128291400Y-16706800D03*
X128291400Y-19246800D03*
X128291400Y-21786800D03*
X128291400Y-24326800D03*
X128291400Y-26866800D03*
X128291400Y-29406800D03*
X128291400Y-31946800D03*
X128291400Y-34486800D03*
X128291400Y-37026800D03*
X128291400Y-39566800D03*
X128291400Y-44646800D03*
X128291400Y-47186800D03*
X128291400Y-49726800D03*
X102840600Y-49729200D03*
X102840600Y-47189200D03*
X102840600Y-44649200D03*
X102840600Y-42109200D03*
X102840600Y-39569200D03*
X102840600Y-37029200D03*
X102840600Y-34489200D03*
X102840600Y-31949200D03*
X102840600Y-29409200D03*
X102840600Y-26869200D03*
X102840600Y-24329200D03*
X102840600Y-21789200D03*
X102840600Y-19249200D03*
X128291400Y-42106800D03*
X102840600Y-16709200D03*
D14*
X102840600Y-14169200D03*
%TD*%
%TO.C,J1*%
G36*
G01*
X76212800Y-115555000D02*
X71462800Y-115555000D01*
G75*
G02*
X70837800Y-114930000I0J625000D01*
G01*
X70837800Y-111180000D01*
G75*
G02*
X71462800Y-110555000I625000J0D01*
G01*
X76212800Y-110555000D01*
G75*
G02*
X76837800Y-111180000I0J-625000D01*
G01*
X76837800Y-114930000D01*
G75*
G02*
X76212800Y-115555000I-625000J0D01*
G01*
G37*
D15*
X73837800Y-105555000D03*
%TD*%
D16*
%TO.C,F1*%
X26487400Y-113025000D03*
X64487400Y-113025000D03*
%TD*%
D17*
%TO.C,U3*%
X135262000Y-96649000D03*
X135262000Y-115649000D03*
X176262000Y-96649000D03*
X146762000Y-118649000D03*
X176262000Y-115649000D03*
%TD*%
%TO.C,U5*%
X81934000Y-96713000D03*
X81934000Y-115713000D03*
X122934000Y-96713000D03*
X122934000Y-115713000D03*
%TD*%
D18*
%TO.C,Q2*%
X43531100Y-59645400D03*
D19*
X40991100Y-59645400D03*
X38451100Y-59645400D03*
%TD*%
D20*
%TO.C,C4*%
X81926500Y-21919200D03*
D21*
X84426500Y-21919200D03*
%TD*%
D10*
%TO.C,C1*%
X37118100Y-23659600D03*
X37118100Y-13659600D03*
%TD*%
D20*
%TO.C,C2*%
X44803500Y-22173200D03*
D21*
X47303500Y-22173200D03*
%TD*%
%TO.C,C3*%
X65591500Y-22173200D03*
D20*
X63091500Y-22173200D03*
%TD*%
D21*
%TO.C,D1*%
X52320000Y-11628000D03*
D22*
X52320000Y-19248000D03*
%TD*%
%TO.C,D2*%
X70671500Y-19578200D03*
D21*
X70671500Y-11958200D03*
%TD*%
%TO.C,D3*%
X88959500Y-11704200D03*
D22*
X88959500Y-19324200D03*
%TD*%
D23*
%TO.C,J6*%
X200082000Y-67703600D03*
X200082000Y-65163600D03*
G36*
G01*
X199236999Y-61753600D02*
X200927001Y-61753600D01*
G75*
G02*
X201177000Y-62003599I0J-249999D01*
G01*
X201177000Y-63243601D01*
G75*
G02*
X200927001Y-63493600I-249999J0D01*
G01*
X199236999Y-63493600D01*
G75*
G02*
X198987000Y-63243601I0J249999D01*
G01*
X198987000Y-62003599D01*
G75*
G02*
X199236999Y-61753600I249999J0D01*
G01*
G37*
%TD*%
%TO.C,J7*%
G36*
G01*
X199306999Y-71266000D02*
X200997001Y-71266000D01*
G75*
G02*
X201247000Y-71515999I0J-249999D01*
G01*
X201247000Y-72756001D01*
G75*
G02*
X200997001Y-73006000I-249999J0D01*
G01*
X199306999Y-73006000D01*
G75*
G02*
X199057000Y-72756001I0J249999D01*
G01*
X199057000Y-71515999D01*
G75*
G02*
X199306999Y-71266000I249999J0D01*
G01*
G37*
X200152000Y-74676000D03*
X200152000Y-77216000D03*
X200152000Y-79756000D03*
X200152000Y-82296000D03*
%TD*%
D22*
%TO.C,R1*%
X19711200Y-26106000D03*
D20*
X19711200Y-36266000D03*
%TD*%
%TO.C,R2*%
X27286900Y-36266000D03*
D22*
X27286900Y-26106000D03*
%TD*%
D20*
%TO.C,R3*%
X34862600Y-36266000D03*
D22*
X34862600Y-26106000D03*
%TD*%
%TO.C,R4*%
X42438300Y-36266000D03*
D20*
X42438300Y-26106000D03*
%TD*%
%TO.C,R5*%
X72741200Y-36266000D03*
D22*
X72741200Y-26106000D03*
%TD*%
%TO.C,R6*%
X65165500Y-26106000D03*
D20*
X65165500Y-36266000D03*
%TD*%
%TO.C,R7*%
X87892700Y-36266000D03*
D22*
X87892700Y-26106000D03*
%TD*%
%TO.C,R8*%
X80317000Y-26106000D03*
D20*
X80317000Y-36266000D03*
%TD*%
%TO.C,R9*%
X57589800Y-36266000D03*
D22*
X57589800Y-26106000D03*
%TD*%
D20*
%TO.C,R10*%
X50014100Y-36266000D03*
D22*
X50014100Y-26106000D03*
%TD*%
D20*
%TO.C,R12*%
X157306000Y-50800000D03*
D22*
X167466000Y-50800000D03*
%TD*%
D20*
%TO.C,R13*%
X182876000Y-73152000D03*
D22*
X193036000Y-73152000D03*
%TD*%
%TO.C,R14*%
X193036000Y-77343000D03*
D20*
X182876000Y-77343000D03*
%TD*%
%TO.C,R15*%
X182876000Y-81534000D03*
D22*
X193036000Y-81534000D03*
%TD*%
%TO.C,U4*%
G36*
G01*
X84999500Y-13404200D02*
X85299500Y-13404200D01*
G75*
G02*
X85449500Y-13554200I0J-150000D01*
G01*
X85449500Y-15004200D01*
G75*
G02*
X85299500Y-15154200I-150000J0D01*
G01*
X84999500Y-15154200D01*
G75*
G02*
X84849500Y-15004200I0J150000D01*
G01*
X84849500Y-13554200D01*
G75*
G02*
X84999500Y-13404200I150000J0D01*
G01*
G37*
G36*
G01*
X83729500Y-13404200D02*
X84029500Y-13404200D01*
G75*
G02*
X84179500Y-13554200I0J-150000D01*
G01*
X84179500Y-15004200D01*
G75*
G02*
X84029500Y-15154200I-150000J0D01*
G01*
X83729500Y-15154200D01*
G75*
G02*
X83579500Y-15004200I0J150000D01*
G01*
X83579500Y-13554200D01*
G75*
G02*
X83729500Y-13404200I150000J0D01*
G01*
G37*
G36*
G01*
X82459500Y-13404200D02*
X82759500Y-13404200D01*
G75*
G02*
X82909500Y-13554200I0J-150000D01*
G01*
X82909500Y-15004200D01*
G75*
G02*
X82759500Y-15154200I-150000J0D01*
G01*
X82459500Y-15154200D01*
G75*
G02*
X82309500Y-15004200I0J150000D01*
G01*
X82309500Y-13554200D01*
G75*
G02*
X82459500Y-13404200I150000J0D01*
G01*
G37*
G36*
G01*
X81189500Y-13404200D02*
X81489500Y-13404200D01*
G75*
G02*
X81639500Y-13554200I0J-150000D01*
G01*
X81639500Y-15004200D01*
G75*
G02*
X81489500Y-15154200I-150000J0D01*
G01*
X81189500Y-15154200D01*
G75*
G02*
X81039500Y-15004200I0J150000D01*
G01*
X81039500Y-13554200D01*
G75*
G02*
X81189500Y-13404200I150000J0D01*
G01*
G37*
G36*
G01*
X81189500Y-8254200D02*
X81489500Y-8254200D01*
G75*
G02*
X81639500Y-8404200I0J-150000D01*
G01*
X81639500Y-9854200D01*
G75*
G02*
X81489500Y-10004200I-150000J0D01*
G01*
X81189500Y-10004200D01*
G75*
G02*
X81039500Y-9854200I0J150000D01*
G01*
X81039500Y-8404200D01*
G75*
G02*
X81189500Y-8254200I150000J0D01*
G01*
G37*
G36*
G01*
X82459500Y-8254200D02*
X82759500Y-8254200D01*
G75*
G02*
X82909500Y-8404200I0J-150000D01*
G01*
X82909500Y-9854200D01*
G75*
G02*
X82759500Y-10004200I-150000J0D01*
G01*
X82459500Y-10004200D01*
G75*
G02*
X82309500Y-9854200I0J150000D01*
G01*
X82309500Y-8404200D01*
G75*
G02*
X82459500Y-8254200I150000J0D01*
G01*
G37*
G36*
G01*
X83729500Y-8254200D02*
X84029500Y-8254200D01*
G75*
G02*
X84179500Y-8404200I0J-150000D01*
G01*
X84179500Y-9854200D01*
G75*
G02*
X84029500Y-10004200I-150000J0D01*
G01*
X83729500Y-10004200D01*
G75*
G02*
X83579500Y-9854200I0J150000D01*
G01*
X83579500Y-8404200D01*
G75*
G02*
X83729500Y-8254200I150000J0D01*
G01*
G37*
G36*
G01*
X84999500Y-8254200D02*
X85299500Y-8254200D01*
G75*
G02*
X85449500Y-8404200I0J-150000D01*
G01*
X85449500Y-9854200D01*
G75*
G02*
X85299500Y-10004200I-150000J0D01*
G01*
X84999500Y-10004200D01*
G75*
G02*
X84849500Y-9854200I0J150000D01*
G01*
X84849500Y-8404200D01*
G75*
G02*
X84999500Y-8254200I150000J0D01*
G01*
G37*
%TD*%
%TO.C,U8*%
G36*
G01*
X47876500Y-8508200D02*
X48176500Y-8508200D01*
G75*
G02*
X48326500Y-8658200I0J-150000D01*
G01*
X48326500Y-10108200D01*
G75*
G02*
X48176500Y-10258200I-150000J0D01*
G01*
X47876500Y-10258200D01*
G75*
G02*
X47726500Y-10108200I0J150000D01*
G01*
X47726500Y-8658200D01*
G75*
G02*
X47876500Y-8508200I150000J0D01*
G01*
G37*
G36*
G01*
X46606500Y-8508200D02*
X46906500Y-8508200D01*
G75*
G02*
X47056500Y-8658200I0J-150000D01*
G01*
X47056500Y-10108200D01*
G75*
G02*
X46906500Y-10258200I-150000J0D01*
G01*
X46606500Y-10258200D01*
G75*
G02*
X46456500Y-10108200I0J150000D01*
G01*
X46456500Y-8658200D01*
G75*
G02*
X46606500Y-8508200I150000J0D01*
G01*
G37*
G36*
G01*
X45336500Y-8508200D02*
X45636500Y-8508200D01*
G75*
G02*
X45786500Y-8658200I0J-150000D01*
G01*
X45786500Y-10108200D01*
G75*
G02*
X45636500Y-10258200I-150000J0D01*
G01*
X45336500Y-10258200D01*
G75*
G02*
X45186500Y-10108200I0J150000D01*
G01*
X45186500Y-8658200D01*
G75*
G02*
X45336500Y-8508200I150000J0D01*
G01*
G37*
G36*
G01*
X44066500Y-8508200D02*
X44366500Y-8508200D01*
G75*
G02*
X44516500Y-8658200I0J-150000D01*
G01*
X44516500Y-10108200D01*
G75*
G02*
X44366500Y-10258200I-150000J0D01*
G01*
X44066500Y-10258200D01*
G75*
G02*
X43916500Y-10108200I0J150000D01*
G01*
X43916500Y-8658200D01*
G75*
G02*
X44066500Y-8508200I150000J0D01*
G01*
G37*
G36*
G01*
X44066500Y-13658200D02*
X44366500Y-13658200D01*
G75*
G02*
X44516500Y-13808200I0J-150000D01*
G01*
X44516500Y-15258200D01*
G75*
G02*
X44366500Y-15408200I-150000J0D01*
G01*
X44066500Y-15408200D01*
G75*
G02*
X43916500Y-15258200I0J150000D01*
G01*
X43916500Y-13808200D01*
G75*
G02*
X44066500Y-13658200I150000J0D01*
G01*
G37*
G36*
G01*
X45336500Y-13658200D02*
X45636500Y-13658200D01*
G75*
G02*
X45786500Y-13808200I0J-150000D01*
G01*
X45786500Y-15258200D01*
G75*
G02*
X45636500Y-15408200I-150000J0D01*
G01*
X45336500Y-15408200D01*
G75*
G02*
X45186500Y-15258200I0J150000D01*
G01*
X45186500Y-13808200D01*
G75*
G02*
X45336500Y-13658200I150000J0D01*
G01*
G37*
G36*
G01*
X46606500Y-13658200D02*
X46906500Y-13658200D01*
G75*
G02*
X47056500Y-13808200I0J-150000D01*
G01*
X47056500Y-15258200D01*
G75*
G02*
X46906500Y-15408200I-150000J0D01*
G01*
X46606500Y-15408200D01*
G75*
G02*
X46456500Y-15258200I0J150000D01*
G01*
X46456500Y-13808200D01*
G75*
G02*
X46606500Y-13658200I150000J0D01*
G01*
G37*
G36*
G01*
X47876500Y-13658200D02*
X48176500Y-13658200D01*
G75*
G02*
X48326500Y-13808200I0J-150000D01*
G01*
X48326500Y-15258200D01*
G75*
G02*
X48176500Y-15408200I-150000J0D01*
G01*
X47876500Y-15408200D01*
G75*
G02*
X47726500Y-15258200I0J150000D01*
G01*
X47726500Y-13808200D01*
G75*
G02*
X47876500Y-13658200I150000J0D01*
G01*
G37*
%TD*%
%TO.C,U9*%
G36*
G01*
X66164500Y-8508200D02*
X66464500Y-8508200D01*
G75*
G02*
X66614500Y-8658200I0J-150000D01*
G01*
X66614500Y-10108200D01*
G75*
G02*
X66464500Y-10258200I-150000J0D01*
G01*
X66164500Y-10258200D01*
G75*
G02*
X66014500Y-10108200I0J150000D01*
G01*
X66014500Y-8658200D01*
G75*
G02*
X66164500Y-8508200I150000J0D01*
G01*
G37*
G36*
G01*
X64894500Y-8508200D02*
X65194500Y-8508200D01*
G75*
G02*
X65344500Y-8658200I0J-150000D01*
G01*
X65344500Y-10108200D01*
G75*
G02*
X65194500Y-10258200I-150000J0D01*
G01*
X64894500Y-10258200D01*
G75*
G02*
X64744500Y-10108200I0J150000D01*
G01*
X64744500Y-8658200D01*
G75*
G02*
X64894500Y-8508200I150000J0D01*
G01*
G37*
G36*
G01*
X63624500Y-8508200D02*
X63924500Y-8508200D01*
G75*
G02*
X64074500Y-8658200I0J-150000D01*
G01*
X64074500Y-10108200D01*
G75*
G02*
X63924500Y-10258200I-150000J0D01*
G01*
X63624500Y-10258200D01*
G75*
G02*
X63474500Y-10108200I0J150000D01*
G01*
X63474500Y-8658200D01*
G75*
G02*
X63624500Y-8508200I150000J0D01*
G01*
G37*
G36*
G01*
X62354500Y-8508200D02*
X62654500Y-8508200D01*
G75*
G02*
X62804500Y-8658200I0J-150000D01*
G01*
X62804500Y-10108200D01*
G75*
G02*
X62654500Y-10258200I-150000J0D01*
G01*
X62354500Y-10258200D01*
G75*
G02*
X62204500Y-10108200I0J150000D01*
G01*
X62204500Y-8658200D01*
G75*
G02*
X62354500Y-8508200I150000J0D01*
G01*
G37*
G36*
G01*
X62354500Y-13658200D02*
X62654500Y-13658200D01*
G75*
G02*
X62804500Y-13808200I0J-150000D01*
G01*
X62804500Y-15258200D01*
G75*
G02*
X62654500Y-15408200I-150000J0D01*
G01*
X62354500Y-15408200D01*
G75*
G02*
X62204500Y-15258200I0J150000D01*
G01*
X62204500Y-13808200D01*
G75*
G02*
X62354500Y-13658200I150000J0D01*
G01*
G37*
G36*
G01*
X63624500Y-13658200D02*
X63924500Y-13658200D01*
G75*
G02*
X64074500Y-13808200I0J-150000D01*
G01*
X64074500Y-15258200D01*
G75*
G02*
X63924500Y-15408200I-150000J0D01*
G01*
X63624500Y-15408200D01*
G75*
G02*
X63474500Y-15258200I0J150000D01*
G01*
X63474500Y-13808200D01*
G75*
G02*
X63624500Y-13658200I150000J0D01*
G01*
G37*
G36*
G01*
X64894500Y-13658200D02*
X65194500Y-13658200D01*
G75*
G02*
X65344500Y-13808200I0J-150000D01*
G01*
X65344500Y-15258200D01*
G75*
G02*
X65194500Y-15408200I-150000J0D01*
G01*
X64894500Y-15408200D01*
G75*
G02*
X64744500Y-15258200I0J150000D01*
G01*
X64744500Y-13808200D01*
G75*
G02*
X64894500Y-13658200I150000J0D01*
G01*
G37*
G36*
G01*
X66164500Y-13658200D02*
X66464500Y-13658200D01*
G75*
G02*
X66614500Y-13808200I0J-150000D01*
G01*
X66614500Y-15258200D01*
G75*
G02*
X66464500Y-15408200I-150000J0D01*
G01*
X66164500Y-15408200D01*
G75*
G02*
X66014500Y-15258200I0J150000D01*
G01*
X66014500Y-13808200D01*
G75*
G02*
X66164500Y-13658200I150000J0D01*
G01*
G37*
%TD*%
D18*
%TO.C,Q1*%
X43531100Y-73005800D03*
D19*
X40991100Y-73005800D03*
X38451100Y-73005800D03*
%TD*%
%TO.C,Q3*%
X50701800Y-73005800D03*
X53241800Y-73005800D03*
D18*
X55781800Y-73005800D03*
%TD*%
%TO.C,Q4*%
X55781800Y-59645400D03*
D19*
X53241800Y-59645400D03*
X50701800Y-59645400D03*
%TD*%
D18*
%TO.C,Q5*%
X68032500Y-73005800D03*
D19*
X65492500Y-73005800D03*
X62952500Y-73005800D03*
%TD*%
%TO.C,Q6*%
X62952500Y-59645400D03*
X65492500Y-59645400D03*
D18*
X68032500Y-59645400D03*
%TD*%
D20*
%TO.C,C7*%
X159886000Y-38862000D03*
X164886000Y-38862000D03*
%TD*%
%TO.C,C8*%
X164886000Y-33528000D03*
X159886000Y-33528000D03*
%TD*%
%TO.C,C9*%
X164886000Y-28956000D03*
X159886000Y-28956000D03*
%TD*%
D10*
%TO.C,C13*%
X167386000Y-22352000D03*
X157386000Y-22352000D03*
%TD*%
D20*
%TO.C,R16*%
X115566000Y-59888000D03*
D22*
X105406000Y-59888000D03*
%TD*%
%TO.C,C10*%
G36*
G01*
X43011700Y-78250400D02*
X45011700Y-78250400D01*
G75*
G02*
X45261700Y-78500400I0J-250000D01*
G01*
X45261700Y-82400400D01*
G75*
G02*
X45011700Y-82650400I-250000J0D01*
G01*
X43011700Y-82650400D01*
G75*
G02*
X42761700Y-82400400I0J250000D01*
G01*
X42761700Y-78500400D01*
G75*
G02*
X43011700Y-78250400I250000J0D01*
G01*
G37*
G36*
G01*
X43011700Y-86650400D02*
X45011700Y-86650400D01*
G75*
G02*
X45261700Y-86900400I0J-250000D01*
G01*
X45261700Y-90800400D01*
G75*
G02*
X45011700Y-91050400I-250000J0D01*
G01*
X43011700Y-91050400D01*
G75*
G02*
X42761700Y-90800400I0J250000D01*
G01*
X42761700Y-86900400D01*
G75*
G02*
X43011700Y-86650400I250000J0D01*
G01*
G37*
%TD*%
%TO.C,C11*%
G36*
G01*
X57001700Y-86650400D02*
X59001700Y-86650400D01*
G75*
G02*
X59251700Y-86900400I0J-250000D01*
G01*
X59251700Y-90800400D01*
G75*
G02*
X59001700Y-91050400I-250000J0D01*
G01*
X57001700Y-91050400D01*
G75*
G02*
X56751700Y-90800400I0J250000D01*
G01*
X56751700Y-86900400D01*
G75*
G02*
X57001700Y-86650400I250000J0D01*
G01*
G37*
G36*
G01*
X57001700Y-78250400D02*
X59001700Y-78250400D01*
G75*
G02*
X59251700Y-78500400I0J-250000D01*
G01*
X59251700Y-82400400D01*
G75*
G02*
X59001700Y-82650400I-250000J0D01*
G01*
X57001700Y-82650400D01*
G75*
G02*
X56751700Y-82400400I0J250000D01*
G01*
X56751700Y-78500400D01*
G75*
G02*
X57001700Y-78250400I250000J0D01*
G01*
G37*
%TD*%
%TO.C,C12*%
G36*
G01*
X70991700Y-78250400D02*
X72991700Y-78250400D01*
G75*
G02*
X73241700Y-78500400I0J-250000D01*
G01*
X73241700Y-82400400D01*
G75*
G02*
X72991700Y-82650400I-250000J0D01*
G01*
X70991700Y-82650400D01*
G75*
G02*
X70741700Y-82400400I0J250000D01*
G01*
X70741700Y-78500400D01*
G75*
G02*
X70991700Y-78250400I250000J0D01*
G01*
G37*
G36*
G01*
X70991700Y-86650400D02*
X72991700Y-86650400D01*
G75*
G02*
X73241700Y-86900400I0J-250000D01*
G01*
X73241700Y-90800400D01*
G75*
G02*
X72991700Y-91050400I-250000J0D01*
G01*
X70991700Y-91050400D01*
G75*
G02*
X70741700Y-90800400I0J250000D01*
G01*
X70741700Y-86900400D01*
G75*
G02*
X70991700Y-86650400I250000J0D01*
G01*
G37*
%TD*%
D10*
%TO.C,C5*%
X157386000Y-74603200D03*
X167386000Y-74603200D03*
%TD*%
D24*
%TO.C,D4*%
X167466000Y-67056000D03*
D25*
X157306000Y-67056000D03*
%TD*%
%TO.C,D5*%
X167466000Y-62352400D03*
D24*
X157306000Y-62352400D03*
%TD*%
D21*
%TO.C,D6*%
X158576000Y-86304000D03*
D22*
X166196000Y-86304000D03*
%TD*%
%TO.C,D7*%
X154686000Y-80264000D03*
D21*
X147066000Y-80264000D03*
%TD*%
%TO.C,D8*%
X154574000Y-74578600D03*
D22*
X146954000Y-74578600D03*
%TD*%
D21*
%TO.C,C6*%
X141220000Y-79192000D03*
D20*
X141220000Y-75392000D03*
%TD*%
%TO.C,R18*%
X157306000Y-81203600D03*
D22*
X167466000Y-81203600D03*
%TD*%
%TO.C,R19*%
X124710000Y-73096000D03*
D20*
X124710000Y-83256000D03*
%TD*%
%TO.C,R20*%
X115566000Y-86812000D03*
D22*
X105406000Y-86812000D03*
%TD*%
D20*
%TO.C,R21*%
X92198000Y-73096000D03*
D22*
X92198000Y-83256000D03*
%TD*%
%TO.C,R22*%
X96770000Y-83256000D03*
D20*
X96770000Y-73096000D03*
%TD*%
D22*
%TO.C,R23*%
X118614000Y-83256000D03*
D20*
X118614000Y-73096000D03*
%TD*%
%TO.C,R24*%
X101342000Y-73096000D03*
D22*
X101342000Y-83256000D03*
%TD*%
D26*
%TO.C,U2*%
X114311000Y-81976000D03*
D27*
X106691000Y-74356000D03*
X114311000Y-79436000D03*
X106691000Y-76896000D03*
X114311000Y-76896000D03*
X106691000Y-79436000D03*
X114311000Y-74356000D03*
X106691000Y-81976000D03*
%TD*%
D20*
%TO.C,R17*%
X167466000Y-55626000D03*
D22*
X157306000Y-55626000D03*
%TD*%
D21*
%TO.C,D9*%
X4809700Y-27376000D03*
D22*
X4809700Y-34996000D03*
%TD*%
D28*
%TO.C,K1*%
X20560000Y-62468000D03*
D10*
X15460000Y-65008000D03*
D28*
X11660000Y-87808000D03*
X29460000Y-77668000D03*
G36*
G01*
X26160000Y-66008000D02*
X25160000Y-66008000D01*
G75*
G02*
X24660000Y-65508000I0J500000D01*
G01*
X24660000Y-64508000D01*
G75*
G02*
X25160000Y-64008000I500000J0D01*
G01*
X26160000Y-64008000D01*
G75*
G02*
X26660000Y-64508000I0J-500000D01*
G01*
X26660000Y-65508000D01*
G75*
G02*
X26160000Y-66008000I-500000J0D01*
G01*
G37*
%TD*%
D29*
%TO.C,Q7*%
X20062000Y-19756000D03*
X18792000Y-19756000D03*
D30*
X21332000Y-19756000D03*
%TD*%
D20*
%TO.C,R25*%
X12135500Y-36266000D03*
D22*
X12135500Y-26106000D03*
%TD*%
D20*
%TO.C,R26*%
X115566000Y-64460000D03*
D22*
X105406000Y-64460000D03*
%TD*%
%TO.C,R27*%
X115566000Y-70556000D03*
D20*
X105406000Y-70556000D03*
%TD*%
%TO.C,R28*%
X157306000Y-45466000D03*
D22*
X167466000Y-45466000D03*
%TD*%
%TO.C,J2*%
G36*
G01*
X199306999Y-32150000D02*
X200997001Y-32150000D01*
G75*
G02*
X201247000Y-32399999I0J-249999D01*
G01*
X201247000Y-33640001D01*
G75*
G02*
X200997001Y-33890000I-249999J0D01*
G01*
X199306999Y-33890000D01*
G75*
G02*
X199057000Y-33640001I0J249999D01*
G01*
X199057000Y-32399999D01*
G75*
G02*
X199306999Y-32150000I249999J0D01*
G01*
G37*
D23*
X200152000Y-35560000D03*
X200152000Y-38100000D03*
X200152000Y-40640000D03*
X200152000Y-43180000D03*
X200152000Y-45720000D03*
X200152000Y-48260000D03*
X200152000Y-50800000D03*
X200152000Y-53340000D03*
X200152000Y-55880000D03*
X200152000Y-58420000D03*
%TD*%
D20*
%TO.C,R29*%
X185000000Y-35000000D03*
D22*
X174840000Y-35000000D03*
%TD*%
M02*
