%TF.GenerationSoftware,KiCad,Pcbnew,(5.1.9)-1*%
%TF.CreationDate,2021-04-29T12:36:39-05:00*%
%TF.ProjectId,controller_bldc,636f6e74-726f-46c6-9c65-725f626c6463,rev?*%
%TF.SameCoordinates,Original*%
%TF.FileFunction,Legend,Bot*%
%TF.FilePolarity,Positive*%
%FSLAX46Y46*%
G04 Gerber Fmt 4.6, Leading zero omitted, Abs format (unit mm)*
G04 Created by KiCad (PCBNEW (5.1.9)-1) date 2021-04-29 12:36:39*
%MOMM*%
%LPD*%
G01*
G04 APERTURE LIST*
%ADD10C,2.000000*%
G04 APERTURE END LIST*
D10*
X206897238Y-109203619D02*
X205468666Y-109679809D01*
X203087714Y-109679809D01*
X202135333Y-109203619D01*
X201659142Y-108727428D01*
X201182952Y-107775047D01*
X201182952Y-106822666D01*
X201659142Y-105870285D01*
X202135333Y-105394095D01*
X203087714Y-104917904D01*
X204992476Y-104441714D01*
X205944857Y-103965523D01*
X206421047Y-103489333D01*
X206897238Y-102536952D01*
X206897238Y-101584571D01*
X206421047Y-100632190D01*
X205944857Y-100156000D01*
X204992476Y-99679809D01*
X202611523Y-99679809D01*
X201182952Y-100156000D01*
X196897238Y-104441714D02*
X193563904Y-104441714D01*
X192135333Y-109679809D02*
X196897238Y-109679809D01*
X196897238Y-99679809D01*
X192135333Y-99679809D01*
X187849619Y-109679809D02*
X187849619Y-99679809D01*
X184516285Y-106822666D01*
X181182952Y-99679809D01*
X181182952Y-109679809D01*
X200514476Y-14715619D02*
X199085904Y-15191809D01*
X196704952Y-15191809D01*
X195752571Y-14715619D01*
X195276380Y-14239428D01*
X194800190Y-13287047D01*
X194800190Y-12334666D01*
X195276380Y-11382285D01*
X195752571Y-10906095D01*
X196704952Y-10429904D01*
X198609714Y-9953714D01*
X199562095Y-9477523D01*
X200038285Y-9001333D01*
X200514476Y-8048952D01*
X200514476Y-7096571D01*
X200038285Y-6144190D01*
X199562095Y-5668000D01*
X198609714Y-5191809D01*
X196228761Y-5191809D01*
X194800190Y-5668000D01*
X191943047Y-5191809D02*
X186228761Y-5191809D01*
X189085904Y-15191809D02*
X189085904Y-5191809D01*
X182895428Y-9953714D02*
X179562095Y-9953714D01*
X178133523Y-15191809D02*
X182895428Y-15191809D01*
X182895428Y-5191809D01*
X178133523Y-5191809D01*
X171943047Y-5191809D02*
X170038285Y-5191809D01*
X169085904Y-5668000D01*
X168133523Y-6620380D01*
X167657333Y-8525142D01*
X167657333Y-11858476D01*
X168133523Y-13763238D01*
X169085904Y-14715619D01*
X170038285Y-15191809D01*
X171943047Y-15191809D01*
X172895428Y-14715619D01*
X173847809Y-13763238D01*
X174324000Y-11858476D01*
X174324000Y-8525142D01*
X173847809Y-6620380D01*
X172895428Y-5668000D01*
X171943047Y-5191809D01*
X163847809Y-14715619D02*
X162419238Y-15191809D01*
X160038285Y-15191809D01*
X159085904Y-14715619D01*
X158609714Y-14239428D01*
X158133523Y-13287047D01*
X158133523Y-12334666D01*
X158609714Y-11382285D01*
X159085904Y-10906095D01*
X160038285Y-10429904D01*
X161943047Y-9953714D01*
X162895428Y-9477523D01*
X163371619Y-9001333D01*
X163847809Y-8048952D01*
X163847809Y-7096571D01*
X163371619Y-6144190D01*
X162895428Y-5668000D01*
X161943047Y-5191809D01*
X159562095Y-5191809D01*
X158133523Y-5668000D01*
M02*
